# Blender v2.78 (sub 0) OBJ File: ''
# www.blender.org
mtllib body_back_detail_2.mtl
o BuddyDroid_01_rig.053_BuddyDroid_01_rig.054
v -1.516092 27.758890 -5.649932
v 1.516591 27.773264 -5.510890
v 1.516292 27.758890 -5.649932
v -1.516292 27.773264 -5.510890
v 1.514695 27.350447 -5.649932
v -1.514495 27.350447 -5.649932
v -1.555320 27.343460 -5.510890
v -1.817334 27.355537 -5.510890
v -1.789586 27.398159 -5.603219
v -1.556418 27.381191 -5.649932
v -1.821427 27.704292 -5.510890
v -1.792480 27.677841 -5.603119
v -1.558015 27.718466 -5.510890
v -1.557316 27.704292 -5.649932
v 1.556717 27.381191 -5.649932
v 1.789785 27.398159 -5.603219
v 1.555619 27.343460 -5.510890
v 1.817634 27.355537 -5.510890
v 1.821726 27.704292 -5.510890
v 1.792680 27.677841 -5.603119
v 1.558214 27.718466 -5.510890
v 1.557516 27.704292 -5.649932
v 1.514795 27.315910 -5.510890
v -1.514495 27.315910 -5.510890
vt 0.6138 0.9278
vt 0.5498 0.9307
vt 0.5503 0.9278
vt 0.6138 0.9307
vt 0.5503 0.9192
vt 0.6138 0.9192
vt 0.6152 0.9169
vt 0.6206 0.9183
vt 0.6196 0.9202
vt 0.6147 0.9198
vt 0.6221 0.9266
vt 0.6216 0.9193
vt 0.6196 0.9261
vt 0.6157 0.9294
vt 0.6147 0.9266
vt 0.6211 0.9279
vt 0.6147 0.9306
vt 0.6147 0.9277
vt 0.5493 0.9198
vt 0.5444 0.9202
vt 0.5483 0.9169
vt 0.5430 0.9183
vt 0.5420 0.9266
vt 0.5439 0.9261
vt 0.5420 0.9193
vt 0.5483 0.9294
vt 0.5493 0.9266
vt 0.5430 0.9279
vt 0.5488 0.9306
vt 0.5488 0.9277
vt 0.5493 0.9163
vt 0.5493 0.9193
vt 0.5503 0.9161
vt 0.6138 0.9161
vt 0.6147 0.9163
vt 0.6147 0.9193
vn 0.0000 0.9947 -0.1028
vn -0.0000 0.9947 -0.1025
vn 0.0000 0.0000 -1.0000
vn -0.3461 -0.8969 -0.2753
vn -0.0866 -0.9370 -0.3384
vn -0.0866 -0.9370 -0.3385
vn -0.3385 -0.8973 -0.2834
vn -0.9563 -0.0079 -0.2924
vn -0.0947 0.9788 -0.1815
vn -0.7937 0.6051 -0.0629
vn -0.7937 0.6051 -0.0628
vn 0.3384 -0.8973 -0.2834
vn 0.0866 -0.9370 -0.3385
vn 0.3461 -0.8969 -0.2753
vn 0.9563 -0.0079 -0.2924
vn 0.0947 0.9788 -0.1815
vn 0.7937 0.6051 -0.0628
vn 0.7937 0.6050 -0.0629
vn 0.7937 0.6051 -0.0629
vn -0.1961 0.0000 -0.9806
vn -0.0786 0.0000 -0.9969
vn -0.1961 -0.0001 -0.9806
vn -0.0707 -0.0000 -0.9975
vn 0.0706 0.0000 -0.9975
vn 0.0784 0.0000 -0.9969
vn 0.1961 0.0000 -0.9806
vn 0.3073 -0.9218 -0.2364
vn 0.2835 -0.9294 -0.2363
vn -0.3073 -0.9218 -0.2364
vn -0.2835 -0.9294 -0.2363
usemtl M_BD1_Head_Body
s 1
f 1/1/1 2/2/1 3/3/1
f 2/2/2 1/1/2 4/4/2
f 1/1/3 5/5/3 6/6/3
f 1/1/3 3/3/3 5/5/3
f 7/7/4 8/8/5 9/9/6
f 7/7/4 9/9/6 10/10/7
f 11/11/8 9/9/8 8/12/8
f 9/9/8 11/11/8 12/13/8
f 12/13/9 13/14/9 14/15/9
f 13/14/9 12/13/9 11/16/9
f 1/1/10 13/17/11 4/4/11
f 13/17/11 1/1/10 14/18/10
f 15/19/12 16/20/13 17/21/14
f 18/22/13 17/21/14 16/20/13
f 19/23/15 16/20/15 20/24/15
f 16/20/15 19/23/15 18/25/15
f 21/26/16 20/24/16 22/27/16
f 20/24/16 21/26/16 19/28/16
f 3/3/17 2/2/18 21/29/17
f 3/3/17 21/29/17 22/30/19
f 12/13/20 10/10/21 9/9/22
f 12/13/20 14/15/23 10/10/21
f 14/15/23 6/6/3 10/10/21
f 1/1/3 6/6/3 14/15/23
f 5/5/3 3/3/3 22/27/24
f 5/5/3 22/27/24 15/19/25
f 20/24/26 15/19/25 22/27/24
f 15/19/25 20/24/26 16/20/26
f 17/31/14 5/5/27 15/32/12
f 5/5/27 17/31/14 23/33/28
f 23/33/28 6/6/29 5/5/27
f 23/33/28 24/34/30 6/6/29
f 7/35/4 6/6/29 24/34/30
f 6/6/29 7/35/4 10/36/7
