# Blender v2.78 (sub 0) OBJ File: ''
# www.blender.org
mtllib body_front_plate_detail.mtl
o BuddyDroid_01_rig.051_BuddyDroid_01_rig.052
v -1.653039 24.700851 5.903571
v -2.231966 24.700851 5.903571
v -2.231966 24.700853 5.457197
v -1.653039 24.700853 5.457197
v -1.588857 25.285170 5.903571
v -1.588857 24.765135 5.457197
v -1.588857 25.285172 5.457198
v -1.588857 24.765133 5.903571
v -2.296247 25.285170 5.903571
v -2.296247 24.765135 5.457197
v -2.296247 24.765133 5.903571
v -2.296247 25.285172 5.457198
v -2.182658 25.331287 4.992359
v -1.992310 25.331287 5.455700
v -1.992310 25.331287 4.992359
v -2.182658 25.331287 5.455700
v -2.182658 24.719021 5.455700
v -2.182658 24.719021 4.674646
v -1.702447 24.719021 5.455700
v -1.702447 24.719021 4.674646
v -1.653039 25.349354 5.457198
v -1.653039 25.349352 5.903571
v -2.231966 25.349354 5.457198
v -2.231966 25.349352 5.903571
v -1.849874 25.331287 4.992359
v -1.702447 25.331287 5.455700
v -1.702447 25.331287 4.992359
v -1.849874 25.331287 5.455700
v -1.849874 25.349354 5.457198
v -1.849874 25.970203 4.991859
v -1.849874 25.349354 5.627981
v -1.992310 25.349354 5.630477
v -1.992310 25.349354 5.457198
v -1.992310 25.970203 4.991859
v -1.638166 26.236212 4.927479
v -2.182658 26.236212 4.991660
v -1.702447 26.236212 4.991660
v -2.246839 26.236212 4.927479
v -1.638166 26.236111 4.446170
v -2.246839 26.236111 4.446170
v -2.182658 26.236111 4.381989
v -1.702447 26.236111 4.381989
v -1.638166 25.259819 4.914104
v -1.638166 25.064880 4.440481
v -1.638166 24.776014 4.704291
v -1.638166 24.783201 5.455700
v -1.638166 25.267006 5.455700
v -2.246839 25.250338 4.908713
v -2.246839 24.783201 5.455700
v -2.246839 25.267006 5.455700
v -2.246839 24.776014 4.704291
v -2.246839 25.035833 4.405845
v -1.702447 25.036932 4.382688
v -2.182658 25.036932 4.382688
vt 0.1721 0.1685
vt 0.1721 0.1782
vt 0.1644 0.1782
vt 0.1644 0.1685
vt 0.1721 0.2002
vt 0.1644 0.2095
vt 0.1644 0.2002
vt 0.1721 0.2095
vt 0.1721 0.1885
vt 0.1644 0.1792
vt 0.1721 0.1792
vt 0.1644 0.1885
vt 0.7920 0.1035
vt 0.7983 0.1064
vt 0.7920 0.1060
vt 0.7983 0.1035
vt 0.7988 0.0957
vt 0.7881 0.0952
vt 0.7988 0.0894
vt 0.7886 0.0889
vt 0.1721 0.1670
vt 0.1644 0.1670
vt 0.1644 0.1992
vt 0.1721 0.1992
vt 0.1644 0.1895
vt 0.1721 0.1895
vt 0.7690 0.1050
vt 0.7627 0.1030
vt 0.7690 0.1030
vt 0.7627 0.1050
vt 0.8018 0.1104
vt 0.8013 0.1157
vt 0.8013 0.1104
vt 0.7939 0.1152
vt 0.8013 0.1084
vt 0.1674 0.1958
vt 0.1644 0.1958
vt 0.1675 0.1934
vt 0.1644 0.1934
vt 0.7979 0.1064
vt 0.7925 0.1138
vt 0.7998 0.1069
vt 0.1960 0.1597
vt 0.2075 0.1611
vt 0.1974 0.1611
vt 0.2089 0.1597
vt 0.1960 0.1494
vt 0.2090 0.1494
vt 0.2075 0.1484
vt 0.1974 0.1479
vt 0.1732 0.2104
vt 0.1843 0.2095
vt 0.1832 0.2104
vt 0.1843 0.2002
vt 0.1732 0.1992
vt 0.1832 0.1992
vt 0.7700 0.1152
vt 0.7700 0.1021
vt 0.7764 0.1152
vt 0.7764 0.0996
vt 0.7729 0.0957
vt 0.7627 0.0957
vt 0.7627 0.1021
vt 0.7910 0.1025
vt 0.7988 0.0962
vt 0.7983 0.1030
vt 0.7886 0.0957
vt 0.7847 0.0991
vt 0.7847 0.1152
vt 0.7910 0.1157
vt 0.7773 0.0996
vt 0.7837 0.0952
vt 0.7837 0.0991
vt 0.7773 0.0947
vt 0.7891 0.0879
vt 0.7988 0.0884
vt 0.7881 0.0947
vt 0.7837 0.0986
vt 0.7764 0.0947
vt 0.7915 0.1157
vt 0.7690 0.1152
vt 0.7773 0.1152
vt 0.7837 0.1152
vt 0.1576 0.1997
vt 0.1543 0.1997
vt 0.1576 0.1992
vt 0.1534 0.1992
vt 0.1532 0.2007
vt 0.1523 0.2002
vt 0.1523 0.2095
vt 0.1532 0.2090
vt 0.1534 0.2104
vt 0.1543 0.2100
vt 0.1633 0.2104
vt 0.1625 0.2100
vt 0.1636 0.2090
vt 0.1636 0.2007
vt 0.1633 0.1992
vt 0.1625 0.1997
vt 0.1600 0.1992
vt 0.1600 0.1997
vt 0.1973 0.1802
vt 0.2004 0.1665
vt 0.2004 0.1802
vt 0.2035 0.1665
vt 0.2074 0.1802
vt 0.2034 0.1802
vn 0.0000 -1.0000 -0.0000
vn 1.0000 0.0000 0.0000
vn -1.0000 0.0000 0.0000
vn 0.0000 1.0000 0.0000
vn 0.7072 -0.7070 -0.0000
vn -0.7071 -0.7071 -0.0000
vn 0.7071 0.7071 0.0000
vn -0.7069 0.7073 0.0000
vn -0.7070 0.7072 0.0000
vn 0.0000 1.0000 -0.0001
vn 0.0000 1.0000 -0.0002
vn 0.0000 0.0000 1.0000
vn -0.0000 -0.6750 -0.7378
vn -0.2443 -0.6697 -0.7013
vn -0.6871 -0.7266 0.0000
vn -0.7452 0.6668 -0.0078
vn 0.7266 0.6870 -0.0079
vn 0.7265 0.6871 -0.0079
vn 0.6871 -0.7266 0.0000
vn 0.7195 -0.6404 -0.2688
vn 0.7183 -0.6315 -0.2921
vn -0.5125 -0.6150 -0.5992
vn -0.5125 -0.6150 -0.5993
vn 0.7173 -0.2601 -0.6464
vn 0.7165 -0.2441 -0.6535
vn -0.7525 -0.0078 0.6585
vn -0.7526 -0.0078 0.6585
vn 0.7417 -0.0079 0.6707
vn 0.6871 0.0000 -0.7266
vn 0.0079 0.7149 0.6992
vn 0.0077 0.7149 0.6992
vn -0.0000 -0.0001 -1.0000
vn 0.0000 -0.0002 -1.0000
vn -0.2924 0.0079 -0.9563
vn -0.2996 0.0079 -0.9540
vn -0.5601 0.0158 -0.8283
vn 0.0000 0.0862 -0.9963
vn -0.0079 0.0628 -0.9980
vn -0.0000 0.0863 -0.9963
vn -0.0157 0.0314 -0.9994
vn -0.0236 0.0079 -0.9997
vn -0.0236 -0.0079 -0.9997
vn -0.0157 -0.0315 -0.9994
vn -0.0078 -0.0629 -0.9980
vn 0.0157 -0.0315 -0.9994
vn 0.0079 -0.0629 -0.9980
vn 0.0236 -0.0079 -0.9997
vn 0.0236 0.0079 -0.9997
vn 0.0157 0.0315 -0.9994
vn 0.0079 0.0628 -0.9980
vn -0.0000 0.0001 1.0000
vn 0.0000 0.0002 1.0000
vn -0.0000 -0.0001 1.0000
usemtl M_BD1_Head_Body
s 1
f 1/1/1 2/2/1 3/3/1
f 1/1/1 3/3/1 4/4/1
f 5/5/2 6/6/2 7/7/2
f 6/6/2 5/5/2 8/8/2
f 9/9/3 10/10/3 11/11/3
f 10/10/3 9/9/3 12/12/3
f 13/13/4 14/14/4 15/15/4
f 14/14/4 13/13/4 16/16/4
f 17/17/1 18/18/1 19/19/1
f 19/19/1 18/18/1 20/20/1
f 8/21/5 4/4/5 6/22/5
f 4/4/5 8/21/5 1/1/5
f 10/10/6 2/2/6 11/11/6
f 2/2/6 10/10/6 3/3/6
f 21/23/7 5/5/7 7/7/7
f 5/5/7 21/23/7 22/24/7
f 12/12/8 9/9/9 23/25/9
f 23/25/9 9/9/9 24/26/8
f 25/27/4 26/28/4 27/29/4
f 26/28/4 25/27/4 28/30/4
f 28/31/2 25/32/2 29/33/2
f 30/34/2 29/33/2 25/32/2
f 29/33/2 30/34/2 31/35/2
f 31/36/4 21/23/4 29/37/4
f 21/23/4 31/36/4 22/24/4
f 32/38/4 22/24/4 31/36/4
f 32/38/4 24/26/4 22/24/4
f 24/26/4 32/38/4 23/25/4
f 33/39/4 23/25/4 32/38/4
f 33/40/3 15/15/3 14/14/3
f 33/40/3 34/41/3 15/15/3
f 33/40/3 32/42/3 34/41/3
f 35/43/10 36/44/4 37/45/4
f 35/43/10 38/46/10 36/44/4
f 39/47/11 38/46/10 35/43/10
f 39/47/11 40/48/10 38/46/10
f 39/47/11 41/49/4 40/48/10
f 41/49/4 39/47/11 42/50/4
f 1/51/12 11/52/12 2/53/12
f 11/52/12 1/51/12 8/8/12
f 8/8/12 9/54/12 11/52/12
f 9/54/12 8/8/12 5/5/12
f 22/55/12 9/54/12 5/5/12
f 22/55/12 24/56/12 9/54/12
f 35/57/2 43/58/2 39/59/2
f 39/59/2 43/58/2 44/60/2
f 43/58/2 45/61/2 44/60/2
f 43/58/2 46/62/2 45/61/2
f 46/62/2 43/58/2 47/63/2
f 48/64/3 49/65/3 50/66/3
f 49/65/3 48/64/3 51/67/3
f 51/67/3 48/64/3 52/68/3
f 48/64/3 40/69/3 52/68/3
f 40/69/3 48/64/3 38/70/3
f 53/71/13 18/72/14 54/73/14
f 18/72/14 53/71/13 20/74/13
f 49/65/15 51/67/15 17/17/15
f 18/18/15 17/17/15 51/67/15
f 13/13/16 50/66/16 16/16/16
f 50/66/16 13/13/16 48/64/16
f 47/63/17 27/29/18 26/28/18
f 27/29/18 47/63/17 43/58/17
f 19/19/19 45/75/20 46/76/19
f 45/75/20 19/19/19 20/20/21
f 51/67/22 52/68/23 18/77/14
f 54/78/14 18/77/14 52/68/23
f 20/74/21 53/71/24 45/79/20
f 45/79/20 53/71/24 44/60/25
f 38/70/26 13/13/27 36/80/27
f 13/13/27 38/70/26 48/64/27
f 37/81/28 27/29/28 35/57/28
f 35/57/28 27/29/28 43/58/28
f 39/59/29 44/60/25 42/82/29
f 42/82/29 44/60/25 53/71/24
f 31/35/30 30/34/31 34/41/30
f 34/41/30 32/42/30 31/35/30
f 42/82/32 53/71/33 41/83/34
f 41/83/34 53/71/33 54/73/35
f 41/83/34 54/73/35 40/69/36
f 40/69/36 54/73/35 52/68/36
f 14/84/37 16/85/38 33/86/39
f 23/87/40 33/86/39 16/85/38
f 50/88/41 23/87/40 16/85/38
f 23/87/40 50/88/41 12/89/41
f 50/88/41 10/90/42 12/89/41
f 10/90/42 50/88/41 49/91/42
f 3/92/43 10/90/42 49/91/42
f 3/92/43 49/91/42 17/93/44
f 4/94/45 3/92/43 17/93/44
f 4/94/45 17/93/44 19/95/46
f 46/96/47 4/94/45 19/95/46
f 4/94/45 46/96/47 6/6/47
f 47/97/48 6/6/47 46/96/47
f 6/6/47 47/97/48 7/7/48
f 21/98/49 7/7/48 47/97/48
f 47/97/48 26/99/50 21/98/49
f 29/100/37 21/98/49 26/99/50
f 29/100/37 26/99/50 28/101/37
f 27/102/51 30/103/12 25/104/51
f 27/102/51 37/45/52 30/103/12
f 37/45/52 34/105/51 30/103/12
f 36/44/12 34/105/51 37/45/52
f 13/106/51 34/105/51 36/44/12
f 34/105/51 13/106/51 15/107/53
