# Blender v2.78 (sub 0) OBJ File: ''
# www.blender.org
mtllib head_side_detail_3.mtl
o BuddyDroid_01_rig.007_BuddyDroid_01_rig.008
v -8.317595 39.156181 -1.158149
v -8.317595 39.227253 -1.170725
v -8.441965 39.227253 -1.170725
v -8.441965 39.156181 -1.158149
v -8.441965 39.289635 -1.206759
v -8.317595 39.085213 -1.170725
v -8.317595 39.289635 -1.206759
v -8.441965 39.085213 -1.170725
v -8.441965 39.335949 -1.261956
v -8.317595 39.022831 -1.206759
v -8.317595 39.335949 -1.261956
v -8.441965 39.022831 -1.206759
v -8.441965 39.360603 -1.329631
v -8.317595 38.976517 -1.261957
v -8.317595 39.360603 -1.329631
v -8.441965 38.976517 -1.261957
v -8.441965 39.360603 -1.401797
v -8.317595 38.951862 -1.329631
v -8.317595 39.360603 -1.401797
v -8.441965 38.951862 -1.329631
v -8.441965 39.335949 -1.469472
v -8.317595 38.951862 -1.401798
v -8.317595 39.335949 -1.469472
v -8.441965 38.951862 -1.401798
v -8.441965 39.289635 -1.524670
v -8.317595 38.976517 -1.469472
v -8.317595 39.289635 -1.524670
v -8.441965 38.976517 -1.469472
v -8.441965 39.227253 -1.560703
v -8.317595 39.022831 -1.524670
v -8.317595 39.227253 -1.560703
v -8.441965 39.022831 -1.524670
v -8.441965 39.156181 -1.573280
v -8.317595 39.085213 -1.560703
v -8.317595 39.156181 -1.573280
v -8.441965 39.085213 -1.560703
v -8.447156 39.156181 -1.365664
vt 0.3684 0.6860
vt 0.3669 0.6951
vt 0.3577 0.6917
vt 0.3586 0.6860
vt 0.3547 0.6965
vt 0.3669 0.6770
vt 0.3623 0.7029
vt 0.3577 0.6804
vt 0.3503 0.7002
vt 0.3623 0.6692
vt 0.3555 0.7087
vt 0.3547 0.6755
vt 0.3450 0.7021
vt 0.3555 0.6633
vt 0.3467 0.7119
vt 0.3503 0.6719
vt 0.3394 0.7021
vt 0.3467 0.6602
vt 0.3376 0.7119
vt 0.3450 0.6699
vt 0.3340 0.7002
vt 0.3376 0.6602
vt 0.3291 0.7087
vt 0.3394 0.6699
vt 0.3296 0.6965
vt 0.3291 0.6633
vt 0.3220 0.7029
vt 0.3340 0.6719
vt 0.3267 0.6917
vt 0.3220 0.6692
vt 0.3176 0.6951
vt 0.3296 0.6755
vt 0.3257 0.6860
vt 0.3176 0.6770
vt 0.3159 0.6860
vt 0.3267 0.6804
vt 0.3423 0.6860
vn 0.0000 -0.0001 1.0000
vn -0.0000 0.3398 0.9405
vn -0.0000 0.6456 0.7637
vn 0.0000 -0.3399 0.9405
vn -0.0000 -0.3398 0.9405
vn 0.0000 0.8677 0.4970
vn -0.0000 -0.6456 0.7637
vn 0.0000 0.8678 0.4970
vn 0.0000 0.9848 0.1738
vn 0.0000 -0.8678 0.4970
vn 0.0000 -0.8677 0.4970
vn 0.0000 0.9848 -0.1734
vn 0.0000 -0.9848 0.1738
vn 0.0000 0.9848 -0.1738
vn 0.0000 -0.9848 0.1737
vn 0.0000 0.8677 -0.4970
vn 0.0000 -0.9848 -0.1737
vn -0.0000 -0.9848 -0.1734
vn 0.0000 0.6456 -0.7637
vn 0.0000 -0.8677 -0.4970
vn -0.0000 -0.8678 -0.4970
vn -0.0000 0.3398 -0.9405
vn 0.0000 -0.6456 -0.7637
vn 0.0000 0.3399 -0.9405
vn 0.0000 -0.0001 -1.0000
vn 0.0000 -0.3398 -0.9405
vn -0.9997 -0.0000 0.0236
vn -0.9997 0.0081 0.0236
vn -1.0000 -0.0000 0.0000
vn -0.9997 -0.0080 0.0236
vn -0.9998 0.0157 0.0157
vn -0.9998 -0.0157 0.0157
vn -0.9996 0.0236 0.0157
vn -0.9996 -0.0236 0.0157
vn -0.9997 0.0236 0.0077
vn -0.9997 -0.0236 0.0078
vn -0.9997 0.0236 -0.0078
vn -0.9997 -0.0236 -0.0077
vn -0.9996 0.0236 -0.0158
vn -0.9996 -0.0236 -0.0157
vn -0.9998 0.0158 -0.0157
vn -0.9998 -0.0158 -0.0157
vn -0.9997 0.0082 -0.0235
vn -0.9997 -0.0080 -0.0236
vn -0.9997 -0.0000 -0.0236
usemtl M_BD1_Overcharge_001
s 1
f 1/1/1 2/2/2 3/3/2
f 3/3/2 4/4/1 1/1/1
f 5/5/3 3/3/2 2/2/2
f 6/6/4 1/1/1 4/4/1
f 2/2/2 7/7/3 5/5/3
f 4/4/1 8/8/5 6/6/4
f 9/9/6 5/5/3 7/7/3
f 10/10/7 6/6/4 8/8/5
f 7/7/3 11/11/8 9/9/6
f 8/8/5 12/12/7 10/10/7
f 13/13/9 9/9/6 11/11/8
f 14/14/10 10/10/7 12/12/7
f 11/11/8 15/15/9 13/13/9
f 12/12/7 16/16/11 14/14/10
f 17/17/12 13/13/9 15/15/9
f 18/18/13 14/14/10 16/16/11
f 15/15/9 19/19/14 17/17/12
f 16/16/11 20/20/15 18/18/13
f 21/21/16 17/17/12 19/19/14
f 22/22/17 18/18/13 20/20/15
f 19/19/14 23/23/16 21/21/16
f 20/20/15 24/24/18 22/22/17
f 25/25/19 21/21/16 23/23/16
f 26/26/20 22/22/17 24/24/18
f 23/23/16 27/27/19 25/25/19
f 24/24/18 28/28/21 26/26/20
f 29/29/22 25/25/19 27/27/19
f 30/30/23 26/26/20 28/28/21
f 27/27/19 31/31/24 29/29/22
f 28/28/21 32/32/23 30/30/23
f 33/33/25 29/29/22 31/31/24
f 34/34/26 30/30/23 32/32/23
f 31/31/24 35/35/25 33/33/25
f 32/32/23 36/36/26 34/34/26
f 36/36/26 33/33/25 35/35/25
f 35/35/25 34/34/26 36/36/26
f 4/4/27 3/3/28 37/37/29
f 8/8/30 4/4/27 37/37/29
f 3/3/28 5/5/31 37/37/29
f 12/12/32 8/8/30 37/37/29
f 5/5/31 9/9/33 37/37/29
f 16/16/34 12/12/32 37/37/29
f 9/9/33 13/13/35 37/37/29
f 20/20/36 16/16/34 37/37/29
f 13/13/35 17/17/37 37/37/29
f 24/24/38 20/20/36 37/37/29
f 17/17/37 21/21/39 37/37/29
f 28/28/40 24/24/38 37/37/29
f 21/21/39 25/25/41 37/37/29
f 32/32/42 28/28/40 37/37/29
f 25/25/41 29/29/43 37/37/29
f 36/36/44 32/32/42 37/37/29
f 29/29/43 33/33/45 37/37/29
f 33/33/45 36/36/44 37/37/29
