# Blender v2.78 (sub 0) OBJ File: ''
# www.blender.org
mtllib head_back_detail_3.mtl
o BuddyDroid_01_rig.013_BuddyDroid_01_rig.014
v 1.439534 33.889141 -13.636240
v 1.439534 33.889137 -10.389453
v 0.457054 33.889137 -10.389453
v 0.457054 33.889141 -13.636240
v 1.439534 36.968834 -10.241327
v 1.439534 36.968838 -14.140206
v 0.457054 36.968838 -14.140206
v 0.457054 36.968834 -10.241327
v 1.439534 34.211140 -10.241327
v 1.439534 36.879803 -14.229242
v 0.457054 36.879803 -14.229242
v 0.394769 33.951424 -10.429379
v 0.394769 33.951427 -13.596314
v 1.501819 33.951427 -13.596314
v 1.501819 33.951424 -10.429379
v 0.394769 36.906555 -14.114454
v 0.394769 36.906551 -10.303612
v 1.501819 36.906555 -14.114454
v 0.394769 36.854050 -14.166957
v 0.394769 34.225716 -10.301915
v 0.394769 35.159889 -14.168754
v 1.501819 36.854050 -14.166957
v 1.501819 36.906551 -10.303612
v 1.501819 34.225716 -10.301915
v 1.501819 35.159889 -14.168754
v 0.457054 35.174561 -14.229242
v 1.439534 35.174561 -14.229242
v 0.457054 34.211140 -10.241327
vt 0.9082 0.9128
vt 0.9502 0.9129
vt 0.9502 0.9255
vt 0.9082 0.9255
vt 0.9521 0.8730
vt 0.9014 0.8729
vt 0.9019 0.8602
vt 0.9521 0.8604
vt 0.9521 0.9086
vt 0.9648 0.8729
vt 0.8662 0.9129
vt 0.8677 0.9129
vt 0.8677 0.9255
vt 0.8662 0.9255
vt 0.2266 0.0044
vt 0.2260 0.0054
vt 0.1851 0.0054
vt 0.1844 0.0044
vt 0.9087 0.9119
vt 0.9492 0.9119
vt 0.1779 0.0444
vt 0.1783 0.0435
vt 0.2275 0.0435
vt 0.9019 0.8740
vt 0.1776 0.0430
vt 0.2275 0.0088
vt 0.1776 0.0210
vt 0.9014 0.8746
vt 0.9512 0.8739
vt 0.9512 0.9084
vt 0.9014 0.8964
vt 0.8896 0.9255
vt 0.8896 0.9129
vt 0.9648 0.9086
vt 0.9546 0.9255
vt 0.9546 0.9129
vt 0.2285 0.0444
vt 0.2286 0.0088
vt 0.1765 0.0435
vt 0.1765 0.0210
vt 0.9004 0.8741
vt 0.9004 0.8962
vn 0.0000 -1.0000 -0.0000
vn 0.0000 1.0000 0.0000
vn -0.0000 -0.2128 0.9771
vn 0.0000 0.0000 1.0000
vn 0.0000 0.7071 -0.7071
vn -0.7071 -0.7071 -0.0000
vn 0.7071 -0.7071 -0.0000
vn -0.7321 0.6297 -0.2598
vn -0.7071 0.7071 0.0000
vn 0.7321 0.6297 -0.2598
vn 0.7321 0.6297 -0.2597
vn 0.7071 0.7071 0.0000
vn -1.0000 0.0000 0.0000
vn 1.0000 0.0000 0.0000
vn 0.0000 -0.2127 -0.9771
vn 0.0000 0.0000 -1.0000
vn 0.0000 -0.2128 -0.9771
vn 0.0000 -0.4184 -0.9083
vn 0.0000 -0.4185 -0.9082
vn 0.0000 -0.4184 0.9082
vn -0.0000 -0.4186 0.9082
vn -0.7070 0.0004 0.7072
vn -0.7073 0.0004 0.7069
vn -0.7070 -0.1493 0.6913
vn -0.7056 -0.2979 0.6429
vn -0.7321 0.2598 -0.6297
vn -0.6768 -0.1338 -0.7239
vn -0.6612 -0.1967 -0.7240
vn -0.7075 -0.3066 -0.6367
vn -0.7092 -0.2994 -0.6383
vn 0.7321 0.2598 -0.6297
vn 0.6600 -0.2043 -0.7230
vn 0.6767 -0.1338 -0.7240
vn 0.7017 -0.2996 -0.6465
vn 0.7056 -0.2979 -0.6429
vn 0.7070 0.0000 0.7073
vn 0.7071 0.0000 0.7071
vn 0.7070 -0.1493 0.6913
vn 0.7070 -0.1493 0.6912
vn 0.7057 -0.2979 0.6429
vn 0.7092 -0.2995 0.6382
usemtl M_BD1_Head_Body
s 1
f 1/1/1 2/2/1 3/3/1
f 3/3/1 4/4/1 1/1/1
f 5/5/2 6/6/2 7/7/2
f 7/7/2 8/8/2 5/5/2
f 9/9/3 5/5/4 8/10/4
f 6/11/5 10/12/5 11/13/5
f 11/13/5 7/14/5 6/11/5
f 3/15/6 12/16/6 13/17/6
f 13/17/6 4/18/6 3/15/6
f 1/1/7 14/19/7 15/20/7
f 15/20/7 2/2/7 1/1/7
f 7/21/8 16/22/8 17/23/9
f 18/24/10 6/6/11 5/5/12
f 17/23/13 16/22/13 19/25/13
f 19/25/13 20/26/13 17/23/13
f 20/26/13 19/25/13 21/27/13
f 20/26/13 21/27/13 13/17/13
f 13/17/13 12/16/13 20/26/13
f 22/28/14 18/24/14 23/29/14
f 23/29/14 24/30/14 22/28/14
f 24/30/14 25/31/14 22/28/14
f 14/19/14 25/31/14 24/30/14
f 24/30/14 15/20/14 14/19/14
f 26/32/15 11/13/16 10/12/16
f 27/33/17 1/1/18 4/4/19
f 8/10/4 28/34/3 9/9/3
f 28/35/3 3/3/20 2/2/21
f 2/2/21 9/36/3 28/35/3
f 8/37/22 17/23/23 20/26/24
f 20/26/24 28/38/24 8/37/22
f 28/38/24 20/26/24 12/16/25
f 12/16/25 3/15/25 28/38/24
f 17/23/9 8/37/9 7/21/8
f 16/22/8 7/21/8 11/39/26
f 11/39/26 19/25/26 16/22/8
f 19/25/26 11/39/26 26/40/27
f 26/40/27 21/27/28 19/25/26
f 21/27/28 26/40/27 4/18/29
f 4/18/29 13/17/30 21/27/28
f 5/5/12 23/29/12 18/24/10
f 6/6/11 18/24/10 22/28/31
f 22/28/31 10/41/31 6/6/11
f 10/41/31 22/28/31 25/31/32
f 25/31/32 27/42/33 10/41/31
f 27/42/33 25/31/32 14/19/34
f 14/19/34 1/1/35 27/42/33
f 23/29/36 5/5/37 9/9/38
f 9/9/38 24/30/39 23/29/36
f 24/30/39 9/9/38 2/2/40
f 2/2/40 15/20/41 24/30/39
f 10/12/16 27/33/17 26/32/15
f 4/4/19 26/32/15 27/33/17
