# Blender v2.78 (sub 0) OBJ File: ''
# www.blender.org
mtllib head_side_detail_4.mtl
o BuddyDroid_01_rig.008_BuddyDroid_01_rig.009
v -8.307415 38.771194 -1.161443
v -8.307415 38.823101 -1.170626
v -8.397049 38.823101 -1.170626
v -8.397049 38.771194 -1.161443
v -8.397049 38.868717 -1.196977
v -8.307415 38.719292 -1.170626
v -8.307415 38.868717 -1.196977
v -8.397049 38.719292 -1.170626
v -8.397049 38.902554 -1.237302
v -8.307415 38.673676 -1.196977
v -8.307415 38.902554 -1.237302
v -8.397049 38.673676 -1.196977
v -8.397049 38.920620 -1.286811
v -8.307415 38.639740 -1.237302
v -8.307415 38.920620 -1.286811
v -8.397049 38.639740 -1.237302
v -8.397049 38.920620 -1.339513
v -8.307415 38.621773 -1.286811
v -8.307415 38.920620 -1.339513
v -8.397049 38.621773 -1.286811
v -8.397049 38.902554 -1.389021
v -8.307415 38.621773 -1.339513
v -8.307415 38.902554 -1.389021
v -8.397049 38.621773 -1.339513
v -8.397049 38.868717 -1.429446
v -8.307415 38.639740 -1.389021
v -8.307415 38.868717 -1.429446
v -8.397049 38.639740 -1.389021
v -8.397049 38.823101 -1.455798
v -8.307415 38.673676 -1.429446
v -8.307415 38.823101 -1.455798
v -8.397049 38.673676 -1.429446
v -8.397049 38.771194 -1.464980
v -8.307415 38.719292 -1.455798
v -8.307415 38.771194 -1.464980
v -8.397049 38.719292 -1.455798
v -8.402140 38.771194 -1.313162
vt 0.3542 0.7859
vt 0.3530 0.7925
vt 0.3464 0.7900
vt 0.3472 0.7859
vt 0.3442 0.7937
vt 0.3530 0.7794
vt 0.3499 0.7982
vt 0.3464 0.7819
vt 0.3411 0.7964
vt 0.3499 0.7737
vt 0.3447 0.8025
vt 0.3442 0.7782
vt 0.3372 0.7977
vt 0.3447 0.7694
vt 0.3384 0.8048
vt 0.3411 0.7755
vt 0.3330 0.7977
vt 0.3384 0.7671
vt 0.3318 0.8048
vt 0.3372 0.7740
vt 0.3291 0.7964
vt 0.3318 0.7671
vt 0.3254 0.8025
vt 0.3330 0.7740
vt 0.3259 0.7937
vt 0.3254 0.7694
vt 0.3203 0.7982
vt 0.3291 0.7755
vt 0.3237 0.7900
vt 0.3203 0.7737
vt 0.3171 0.7925
vt 0.3259 0.7782
vt 0.3230 0.7859
vt 0.3171 0.7794
vt 0.3159 0.7859
vt 0.3237 0.7819
vt 0.3350 0.7859
vn 0.0000 -0.0000 1.0000
vn -0.0000 0.3399 0.9405
vn 0.0000 0.3398 0.9405
vn 0.0000 0.6456 0.7637
vn 0.0000 -0.3398 0.9405
vn -0.0000 -0.3399 0.9405
vn 0.0000 0.8644 0.5028
vn 0.0000 -0.6456 0.7637
vn -0.0000 0.8643 0.5029
vn 0.0000 0.9848 0.1737
vn 0.0000 -0.8644 0.5029
vn 0.0000 0.9847 0.1741
vn 0.0000 0.9847 -0.1741
vn 0.0000 -0.9849 0.1732
vn 0.0000 0.9849 -0.1732
vn -0.0000 0.8643 -0.5030
vn 0.0000 -0.9849 -0.1732
vn 0.0000 0.8644 -0.5028
vn 0.0000 0.6456 -0.7637
vn 0.0000 -0.8644 -0.5029
vn 0.0000 -0.8643 -0.5030
vn 0.0000 0.3399 -0.9405
vn 0.0000 -0.6456 -0.7637
vn 0.0000 -0.0000 -1.0000
vn 0.0000 -0.3399 -0.9405
vn -0.9995 0.0000 0.0316
vn -0.9995 0.0079 0.0315
vn -1.0000 0.0000 0.0000
vn -0.9995 -0.0079 0.0315
vn -0.9994 0.0237 0.0236
vn -0.9994 -0.0236 0.0236
vn -0.9994 0.0314 0.0157
vn -0.9994 -0.0314 0.0157
vn -0.9995 0.0315 0.0079
vn -0.9995 -0.0315 0.0078
vn -0.9995 0.0315 -0.0079
vn -0.9995 -0.0314 -0.0079
vn -0.9994 0.0314 -0.0157
vn -0.9994 -0.0315 -0.0157
vn -0.9994 0.0237 -0.0236
vn -0.9994 -0.0236 -0.0236
vn -0.9995 0.0079 -0.0315
vn -0.9995 -0.0079 -0.0315
vn -0.9995 -0.0000 -0.0314
usemtl M_BD1_Overcharge_001
s 1
f 1/1/1 2/2/2 3/3/3
f 3/3/3 4/4/1 1/1/1
f 5/5/4 3/3/3 2/2/2
f 6/6/5 1/1/1 4/4/1
f 2/2/2 7/7/4 5/5/4
f 4/4/1 8/8/6 6/6/5
f 9/9/7 5/5/4 7/7/4
f 10/10/8 6/6/5 8/8/6
f 7/7/4 11/11/9 9/9/7
f 8/8/6 12/12/8 10/10/8
f 13/13/10 9/9/7 11/11/9
f 14/14/11 10/10/8 12/12/8
f 11/11/9 15/15/12 13/13/10
f 12/12/8 16/16/11 14/14/11
f 17/17/13 13/13/10 15/15/12
f 18/18/14 14/14/11 16/16/11
f 15/15/12 19/19/15 17/17/13
f 16/16/11 20/20/14 18/18/14
f 21/21/16 17/17/13 19/19/15
f 22/22/17 18/18/14 20/20/14
f 19/19/15 23/23/18 21/21/16
f 20/20/14 24/24/17 22/22/17
f 25/25/19 21/21/16 23/23/18
f 26/26/20 22/22/17 24/24/17
f 23/23/18 27/27/19 25/25/19
f 24/24/17 28/28/21 26/26/20
f 29/29/22 25/25/19 27/27/19
f 30/30/23 26/26/20 28/28/21
f 27/27/19 31/31/22 29/29/22
f 28/28/21 32/32/23 30/30/23
f 33/33/24 29/29/22 31/31/22
f 34/34/25 30/30/23 32/32/23
f 31/31/22 35/35/24 33/33/24
f 32/32/23 36/36/25 34/34/25
f 36/36/25 33/33/24 35/35/24
f 35/35/24 34/34/25 36/36/25
f 4/4/26 3/3/27 37/37/28
f 8/8/29 4/4/26 37/37/28
f 3/3/27 5/5/30 37/37/28
f 12/12/31 8/8/29 37/37/28
f 5/5/30 9/9/32 37/37/28
f 16/16/33 12/12/31 37/37/28
f 9/9/32 13/13/34 37/37/28
f 20/20/35 16/16/33 37/37/28
f 13/13/34 17/17/36 37/37/28
f 24/24/37 20/20/35 37/37/28
f 17/17/36 21/21/38 37/37/28
f 28/28/39 24/24/37 37/37/28
f 21/21/38 25/25/40 37/37/28
f 32/32/41 28/28/39 37/37/28
f 25/25/40 29/29/42 37/37/28
f 36/36/43 32/32/41 37/37/28
f 29/29/42 33/33/44 37/37/28
f 33/33/44 36/36/43 37/37/28
