# Blender v2.78 (sub 0) OBJ File: ''
# www.blender.org
mtllib head_side_detail_5.mtl
o BuddyDroid_01_rig.009_BuddyDroid_01_rig.010
v -8.317595 37.270973 1.449522
v -8.317595 37.341942 1.436945
v -8.440768 37.341942 1.436945
v -8.440768 37.270973 1.449522
v -8.440768 37.404427 1.400912
v -8.317595 37.200005 1.436945
v -8.317595 37.404427 1.400912
v -8.440768 37.200005 1.436945
v -8.440768 37.450741 1.345714
v -8.317595 37.137623 1.400912
v -8.317595 37.450741 1.345714
v -8.440768 37.137623 1.400912
v -8.440768 37.475395 1.278039
v -8.317595 37.091309 1.345714
v -8.317595 37.475395 1.278039
v -8.440768 37.091309 1.345714
v -8.440768 37.475395 1.205973
v -8.317595 37.066654 1.278039
v -8.317595 37.475395 1.205973
v -8.440768 37.066654 1.278039
v -8.440768 37.450741 1.138198
v -8.317595 37.066654 1.205973
v -8.317595 37.450741 1.138198
v -8.440768 37.066654 1.205973
v -8.440768 37.404427 1.083000
v -8.317595 37.091309 1.138198
v -8.317595 37.404427 1.083000
v -8.440768 37.091309 1.138198
v -8.440768 37.341942 1.046967
v -8.317595 37.137623 1.083000
v -8.317595 37.341942 1.046967
v -8.440768 37.137623 1.083000
v -8.440768 37.270973 1.034490
v -8.317595 37.200005 1.046967
v -8.317595 37.270973 1.034490
v -8.440768 37.200005 1.046967
v -8.447156 37.270973 1.242006
vt 0.3684 0.7395
vt 0.3667 0.7485
vt 0.3577 0.7451
vt 0.3586 0.7395
vt 0.3547 0.7500
vt 0.3667 0.7305
vt 0.3623 0.7562
vt 0.3577 0.7339
vt 0.3503 0.7537
vt 0.3623 0.7227
vt 0.3552 0.7621
vt 0.3547 0.7290
vt 0.3450 0.7556
vt 0.3552 0.7168
vt 0.3467 0.7653
vt 0.3503 0.7253
vt 0.3394 0.7556
vt 0.3467 0.7136
vt 0.3376 0.7653
vt 0.3450 0.7234
vt 0.3340 0.7537
vt 0.3376 0.7136
vt 0.3291 0.7621
vt 0.3394 0.7234
vt 0.3296 0.7500
vt 0.3291 0.7168
vt 0.3220 0.7562
vt 0.3340 0.7253
vt 0.3267 0.7451
vt 0.3220 0.7227
vt 0.3176 0.7485
vt 0.3296 0.7290
vt 0.3257 0.7395
vt 0.3176 0.7305
vt 0.3159 0.7395
vt 0.3267 0.7339
vt 0.3420 0.7395
vn 0.0000 0.0000 1.0000
vn 0.0000 0.3398 0.9405
vn 0.0000 0.3399 0.9405
vn 0.0000 0.6456 0.7637
vn 0.0000 -0.3399 0.9405
vn -0.0000 0.8678 0.4970
vn 0.0000 -0.6456 0.7637
vn 0.0000 0.8677 0.4970
vn 0.0000 0.9848 0.1738
vn 0.0000 -0.8677 0.4970
vn 0.0000 0.9848 -0.1736
vn 0.0000 -0.9848 0.1738
vn 0.0000 0.9848 -0.1735
vn 0.0000 -0.9848 0.1737
vn 0.0000 0.8677 -0.4970
vn 0.0000 -0.9848 -0.1735
vn -0.0000 0.8678 -0.4970
vn 0.0000 -0.9848 -0.1736
vn 0.0000 0.6456 -0.7637
vn 0.0000 -0.8677 -0.4970
vn -0.0000 -0.8678 -0.4970
vn -0.0000 0.3398 -0.9405
vn 0.0000 -0.6456 -0.7637
vn 0.0000 0.3399 -0.9405
vn 0.0000 0.0000 -1.0000
vn 0.0000 -0.3398 -0.9405
vn 0.0000 -0.3399 -0.9405
vn -0.9995 0.0000 0.0313
vn -0.9995 0.0079 0.0315
vn -1.0000 -0.0000 0.0000
vn -0.9995 -0.0079 0.0314
vn -0.9994 0.0236 0.0236
vn -0.9994 -0.0236 0.0236
vn -0.9996 0.0236 0.0158
vn -0.9996 -0.0236 0.0157
vn -0.9995 0.0314 0.0078
vn -0.9995 -0.0315 0.0078
vn -0.9995 0.0314 -0.0078
vn -0.9995 -0.0314 -0.0078
vn -0.9996 0.0236 -0.0157
vn -0.9996 -0.0236 -0.0157
vn -0.9994 0.0236 -0.0236
vn -0.9994 -0.0236 -0.0236
vn -0.9995 0.0079 -0.0315
vn -0.9995 -0.0079 -0.0314
vn -0.9995 0.0000 -0.0314
usemtl M_BD1_Overcharge_001
s 1
f 1/1/1 2/2/2 3/3/3
f 3/3/3 4/4/1 1/1/1
f 5/5/4 3/3/3 2/2/2
f 6/6/5 1/1/1 4/4/1
f 2/2/2 7/7/4 5/5/4
f 4/4/1 8/8/5 6/6/5
f 9/9/6 5/5/4 7/7/4
f 10/10/7 6/6/5 8/8/5
f 7/7/4 11/11/8 9/9/6
f 8/8/5 12/12/7 10/10/7
f 13/13/9 9/9/6 11/11/8
f 14/14/10 10/10/7 12/12/7
f 11/11/8 15/15/9 13/13/9
f 12/12/7 16/16/10 14/14/10
f 17/17/11 13/13/9 15/15/9
f 18/18/12 14/14/10 16/16/10
f 15/15/9 19/19/13 17/17/11
f 16/16/10 20/20/14 18/18/12
f 21/21/15 17/17/11 19/19/13
f 22/22/16 18/18/12 20/20/14
f 19/19/13 23/23/17 21/21/15
f 20/20/14 24/24/18 22/22/16
f 25/25/19 21/21/15 23/23/17
f 26/26/20 22/22/16 24/24/18
f 23/23/17 27/27/19 25/25/19
f 24/24/18 28/28/21 26/26/20
f 29/29/22 25/25/19 27/27/19
f 30/30/23 26/26/20 28/28/21
f 27/27/19 31/31/24 29/29/22
f 28/28/21 32/32/23 30/30/23
f 33/33/25 29/29/22 31/31/24
f 34/34/26 30/30/23 32/32/23
f 31/31/24 35/35/25 33/33/25
f 32/32/23 36/36/27 34/34/26
f 36/36/27 33/33/25 35/35/25
f 35/35/25 34/34/26 36/36/27
f 4/4/28 3/3/29 37/37/30
f 8/8/31 4/4/28 37/37/30
f 3/3/29 5/5/32 37/37/30
f 12/12/33 8/8/31 37/37/30
f 5/5/32 9/9/34 37/37/30
f 16/16/35 12/12/33 37/37/30
f 9/9/34 13/13/36 37/37/30
f 20/20/37 16/16/35 37/37/30
f 13/13/36 17/17/38 37/37/30
f 24/24/39 20/20/37 37/37/30
f 17/17/38 21/21/40 37/37/30
f 28/28/41 24/24/39 37/37/30
f 21/21/40 25/25/42 37/37/30
f 32/32/43 28/28/41 37/37/30
f 25/25/42 29/29/44 37/37/30
f 36/36/45 32/32/43 37/37/30
f 29/29/44 33/33/46 37/37/30
f 33/33/46 36/36/45 37/37/30
