# Blender v2.78 (sub 0) OBJ File: ''
# www.blender.org
mtllib head_back_detail_1.mtl
o BuddyDroid_01_rig.011_BuddyDroid_01_rig.012
v -2.332480 33.889141 -13.636240
v -2.332480 33.889137 -10.389453
v -3.314961 33.889137 -10.389453
v -3.314961 33.889141 -13.636240
v -2.332480 36.968834 -10.241327
v -2.332480 36.968838 -14.140206
v -3.314961 36.968838 -14.140206
v -3.314961 36.968834 -10.241327
v -2.332480 36.879803 -14.229242
v -3.314961 36.879803 -14.229242
v -3.377245 33.951424 -10.429279
v -3.377245 33.951427 -13.596314
v -2.270196 33.951427 -13.596314
v -2.270196 33.951424 -10.429279
v -3.377245 36.906555 -14.114454
v -3.377245 36.906551 -10.303612
v -2.270196 36.906555 -14.114454
v -3.377245 36.854050 -14.166957
v -3.377245 34.225716 -10.301915
v -3.377245 35.159889 -14.168754
v -2.270196 36.854050 -14.166957
v -2.270196 36.906551 -10.303612
v -2.270196 34.225716 -10.301915
v -2.270196 35.159889 -14.168754
v -3.314961 35.174561 -14.229242
v -2.332480 34.211140 -10.241327
v -3.314961 34.211140 -10.241327
v -2.332480 35.174561 -14.229242
vt 0.2170 0.9807
vt 0.2571 0.9807
vt 0.2571 0.9938
vt 0.2170 0.9938
vt 0.5386 0.1152
vt 0.5889 0.1152
vt 0.5889 0.1279
vt 0.5386 0.1279
vt 0.7617 0.9478
vt 0.7637 0.9478
vt 0.7637 0.9605
vt 0.7617 0.9605
vt 0.1705 0.0039
vt 0.1699 0.0049
vt 0.1290 0.0049
vt 0.1284 0.0039
vt 0.5674 0.8661
vt 0.5679 0.8650
vt 0.6089 0.8650
vt 0.6094 0.8661
vt 0.1219 0.0439
vt 0.1223 0.0430
vt 0.1715 0.0430
vt 0.5610 0.8269
vt 0.5610 0.8259
vt 0.6113 0.8259
vt 0.1217 0.0420
vt 0.1716 0.0083
vt 0.1216 0.0205
vt 0.5605 0.8276
vt 0.6104 0.8269
vt 0.6104 0.8616
vt 0.5605 0.8495
vt 0.7856 0.9605
vt 0.2615 0.9807
vt 0.2954 0.9807
vt 0.2954 0.9938
vt 0.1725 0.0439
vt 0.1727 0.0078
vt 0.1206 0.0425
vt 0.1205 0.0205
vt 0.5596 0.8271
vt 0.5596 0.8494
vt 0.6118 0.8618
vt 0.7856 0.9478
vt 0.8037 0.9605
vt 0.8037 0.9478
vt 0.2615 0.9938
vn 0.0000 -1.0000 -0.0000
vn 0.0000 1.0000 0.0000
vn 0.0000 0.7071 -0.7071
vn -0.7071 -0.7071 -0.0000
vn 0.7071 -0.7071 -0.0000
vn -0.7321 0.6297 -0.2598
vn -0.7071 0.7071 0.0000
vn 0.7321 0.6297 -0.2598
vn 0.7321 0.6297 -0.2597
vn 0.7071 0.7071 0.0000
vn -1.0000 -0.0000 0.0000
vn 1.0000 0.0000 0.0000
vn 0.0000 -0.2127 -0.9771
vn 0.0000 0.0000 -1.0000
vn -0.0000 -0.2128 0.9771
vn 0.0000 0.0000 1.0000
vn -0.7070 0.0004 0.7072
vn -0.7073 0.0004 0.7069
vn -0.7070 -0.1492 0.6913
vn -0.7070 -0.1493 0.6913
vn -0.7056 -0.2979 0.6429
vn -0.7056 -0.2980 0.6429
vn -0.7321 0.2598 -0.6297
vn -0.6767 -0.1338 -0.7240
vn -0.6609 -0.1969 -0.7242
vn -0.7075 -0.3066 -0.6368
vn -0.7092 -0.2994 -0.6383
vn 0.7321 0.2598 -0.6297
vn 0.6600 -0.2043 -0.7230
vn 0.6767 -0.1338 -0.7240
vn 0.7017 -0.2996 -0.6465
vn 0.7056 -0.2979 -0.6429
vn 0.7070 0.0000 0.7073
vn 0.7071 0.0000 0.7071
vn 0.7070 -0.1493 0.6913
vn 0.7071 -0.1493 0.6912
vn 0.7056 -0.2979 0.6429
vn 0.7092 -0.2994 0.6382
vn 0.0000 -0.2128 -0.9771
vn 0.0000 -0.4185 -0.9082
vn 0.0000 -0.4184 -0.9083
vn -0.0000 -0.2127 0.9771
vn -0.0000 -0.4186 0.9082
vn 0.0000 -0.4185 0.9082
usemtl M_BD1_Head_Body
s 1
f 1/1/1 2/2/1 3/3/1
f 3/3/1 4/4/1 1/1/1
f 5/5/2 6/6/2 7/7/2
f 7/7/2 8/8/2 5/5/2
f 6/9/3 9/10/3 10/11/3
f 10/11/3 7/12/3 6/9/3
f 3/13/4 11/14/4 12/15/4
f 12/15/4 4/16/4 3/13/4
f 1/17/5 13/18/5 14/19/5
f 14/19/5 2/20/5 1/17/5
f 7/21/6 15/22/6 16/23/7
f 17/24/8 6/25/9 5/26/10
f 16/23/11 15/22/11 18/27/11
f 18/27/11 19/28/11 16/23/11
f 19/28/11 18/27/11 20/29/11
f 19/28/11 20/29/11 12/15/11
f 12/15/11 11/14/11 19/28/11
f 21/30/12 17/24/12 22/31/12
f 22/31/12 23/32/12 21/30/12
f 23/32/12 24/33/12 21/30/12
f 13/18/12 24/33/12 23/32/12
f 23/32/12 14/19/12 13/18/12
f 25/34/13 10/11/14 9/10/14
f 26/35/15 5/36/16 8/37/16
f 8/38/17 16/23/18 19/28/19
f 19/28/19 27/39/20 8/38/17
f 27/39/20 19/28/19 11/14/21
f 11/14/21 3/13/22 27/39/20
f 16/23/7 8/38/7 7/21/6
f 15/22/6 7/21/6 10/40/23
f 10/40/23 18/27/23 15/22/6
f 18/27/23 10/40/23 25/41/24
f 25/41/24 20/29/25 18/27/23
f 20/29/25 25/41/24 4/16/26
f 4/16/26 12/15/27 20/29/25
f 5/26/10 22/31/10 17/24/8
f 6/25/9 17/24/8 21/30/28
f 21/30/28 9/42/28 6/25/9
f 9/42/28 21/30/28 24/33/29
f 24/33/29 28/43/30 9/42/28
f 28/43/30 24/33/29 13/18/31
f 13/18/31 1/17/32 28/43/30
f 22/31/33 5/26/34 26/44/35
f 26/44/35 23/32/36 22/31/33
f 23/32/36 26/44/35 2/20/37
f 2/20/37 14/19/38 23/32/36
f 9/10/14 28/45/39 25/34/13
f 4/46/40 25/34/13 28/45/39
f 28/45/39 1/47/41 4/46/40
f 8/37/16 27/48/42 26/35/15
f 2/2/43 26/35/15 27/48/42
f 27/48/42 3/3/44 2/2/43
