# Blender v2.78 (sub 0) OBJ File: ''
# www.blender.org
mtllib led_matrix_cover.mtl
o BuddyDroid_01_rig.010_BuddyDroid_01_rig.011
v -5.622986 41.488564 -10.643682
v -7.507796 38.902058 -12.324469
v -6.756088 41.511921 -10.628011
v 7.547322 37.893925 -13.002813
v 7.407581 37.805786 -13.062103
v 7.553411 38.902058 -12.324569
v 8.098701 38.650425 -12.493855
v 8.139726 38.741554 -12.432569
v 8.139726 38.918728 -12.313389
v 8.139326 40.597713 -11.242073
v 8.095607 40.832779 -11.081870
v 7.990801 41.022728 -10.955704
v 7.827603 41.187523 -10.845508
v 7.624679 41.340736 -10.742698
v 7.382727 41.441051 -10.675523
v 7.075397 41.495552 -10.638990
v 6.801703 41.511921 -10.628011
v 5.668602 41.488564 -10.643682
v 5.190787 40.470150 -11.328413
v 4.971193 40.363747 -11.399482
v -7.361966 37.805786 -13.062103
v -4.925578 40.363747 -11.399482
v -7.501707 37.893925 -13.002813
v -5.145171 40.470150 -11.328413
v -8.053085 38.650425 -12.493855
v -8.094110 38.741554 -12.432569
v -8.094110 38.918728 -12.313389
v -7.029781 41.495552 -10.638890
v -8.093711 40.597713 -11.242073
v -7.337112 41.441051 -10.675423
v -8.049992 40.832779 -11.081870
v -7.579064 41.340736 -10.742599
v -7.945086 41.022728 -10.955604
v -7.781988 41.187523 -10.845407
vt 0.8477 0.6353
vt 0.9585 0.4390
vt 0.9180 0.6348
vt 0.0380 0.3618
vt 0.0482 0.3540
vt 0.0414 0.4390
vt 0.0035 0.4185
vt 0.0007 0.4263
vt 0.0005 0.4404
vt 0.0009 0.5620
vt 0.0038 0.5806
vt 0.0102 0.5955
vt 0.0199 0.6084
vt 0.0320 0.6204
vt 0.0466 0.6287
vt 0.0652 0.6333
vt 0.0817 0.6348
vt 0.1522 0.6353
vt 0.1864 0.5605
vt 0.1987 0.5535
vt 0.9517 0.3540
vt 0.8013 0.5535
vt 0.9614 0.3618
vt 0.8135 0.5605
vt 0.9961 0.4185
vt 0.9990 0.4263
vt 0.9990 0.4404
vt 0.9346 0.6333
vt 0.9990 0.5620
vt 0.9531 0.6287
vt 0.9961 0.5803
vt 0.9678 0.6204
vt 0.9897 0.5955
vt 0.9800 0.6082
vn -0.0079 0.5510 -0.8345
vn 0.0000 0.5509 -0.8346
vn -0.0001 0.5453 -0.8382
vn -0.0000 0.5601 -0.8284
vn 0.0000 0.5602 -0.8284
vn -0.0000 0.5510 -0.8345
vn -0.0628 0.5499 -0.8328
vn -0.0237 0.5454 -0.8378
vn -0.0159 0.5455 -0.8380
vn -0.0157 0.5419 -0.8403
vn -0.0079 0.5419 -0.8404
vn -0.0078 0.5419 -0.8404
vn -0.0000 0.5419 -0.8404
vn -0.0000 0.5453 -0.8382
vn 0.0079 0.5510 -0.8345
vn 0.0000 0.5364 -0.8440
vn 0.0000 0.5511 -0.8344
vn -0.0000 0.5420 -0.8404
vn 0.0628 0.5500 -0.8328
vn 0.0078 0.5419 -0.8404
vn 0.0237 0.5454 -0.8378
vn 0.0159 0.5455 -0.8380
vn 0.0157 0.5419 -0.8403
usemtl MI_BD1_Droid_Lights
s 1
f 1/1/1 2/2/2 3/3/3
f 4/4/4 5/5/4 6/6/2
f 7/7/5 4/4/4 6/6/2
f 8/8/5 7/7/5 6/6/2
f 9/9/6 8/8/5 6/6/2
f 6/6/2 10/10/7 9/9/6
f 6/6/2 11/11/8 10/10/7
f 6/6/2 12/12/9 11/11/8
f 6/6/2 13/13/10 12/12/9
f 14/14/11 13/13/10 6/6/2
f 15/15/12 14/14/11 6/6/2
f 16/16/13 15/15/12 6/6/2
f 17/17/14 16/16/13 6/6/2
f 18/18/15 17/17/14 6/6/2
f 18/18/15 6/6/2 19/19/15
f 19/19/15 6/6/2 20/20/16
f 21/21/5 6/6/2 5/5/4
f 6/6/2 2/2/2 20/20/16
f 6/6/2 21/21/5 2/2/2
f 20/20/16 2/2/2 22/22/16
f 23/23/4 2/2/2 21/21/5
f 24/24/1 22/22/16 2/2/2
f 25/25/5 2/2/2 23/23/4
f 24/24/1 2/2/2 1/1/1
f 26/26/5 2/2/2 25/25/5
f 27/27/17 2/2/2 26/26/5
f 3/3/3 2/2/2 28/28/18
f 2/2/2 27/27/17 29/29/19
f 28/28/18 2/2/2 30/30/20
f 2/2/2 29/29/19 31/31/21
f 30/30/20 2/2/2 32/32/20
f 2/2/2 31/31/21 33/33/22
f 32/32/20 2/2/2 34/34/23
f 2/2/2 33/33/22 34/34/23
