# Blender v2.78 (sub 0) OBJ File: ''
# www.blender.org
mtllib left_shin.mtl
o BuddyDroid_01_rig.084_BuddyDroid_01_rig.085
v 6.239944 4.972690 3.366067
v 6.239944 4.054491 3.979331
v 6.239944 4.028039 3.921538
v 4.483896 4.972690 3.366067
v 4.483896 4.028039 3.921538
v 4.483896 4.054491 3.979331
v 5.914047 3.793174 3.964259
v 5.914047 3.925629 3.999993
v 5.914047 3.925829 3.940703
v 5.914047 3.820923 3.911756
v 5.914047 3.758339 3.866340
v 5.914047 3.715318 3.907364
v 5.914047 3.658025 3.831105
v 5.914047 3.705537 3.795172
v 4.809793 3.793174 3.964259
v 4.809793 3.925829 3.940703
v 4.809793 3.925629 3.999993
v 4.809793 3.820923 3.911756
v 4.809793 3.758339 3.866340
v 4.809793 3.715318 3.907364
v 4.809793 3.658025 3.831105
v 4.809793 3.705537 3.795172
v 4.483896 3.925629 3.999993
v 4.483896 3.925829 3.940703
v 4.483896 3.793174 3.964159
v 4.483896 3.820923 3.911756
v 4.483896 3.758339 3.866340
v 4.483896 3.715318 3.907364
v 4.483896 3.658025 3.831105
v 4.483896 3.705537 3.795172
v 6.239944 3.925629 3.999993
v 6.239944 3.925829 3.940703
v 6.239944 3.793174 3.964259
v 6.239944 3.820923 3.911756
v 6.239944 3.758339 3.866340
v 6.239944 3.715318 3.907364
v 6.239944 3.658025 3.831105
v 6.239944 3.705537 3.795172
v 5.760632 4.183352 3.893590
v 4.963109 4.183352 3.893590
v 4.963109 4.150613 3.844381
v 5.760632 4.150613 3.844381
v 6.073951 5.076997 3.225228
v 4.649789 5.076997 3.225228
v 4.649789 5.109736 3.274536
v 6.073951 5.109736 3.274536
v 6.239844 4.939951 3.316758
v 4.483896 4.939951 3.316758
v 5.914047 4.055589 3.978632
v 5.858550 4.137537 3.924233
v 6.178757 5.059230 3.308274
v 4.544983 5.059230 3.308274
v 4.865290 4.137537 3.924233
v 4.809793 4.055589 3.978632
v 6.178757 5.026491 3.258965
v 5.856753 4.105396 3.874725
v 5.913548 4.024846 3.923235
v 4.866986 4.105297 3.874725
v 4.810291 4.024846 3.923235
v 4.544983 5.026491 3.258965
vt 0.7764 0.6028
vt 0.7539 0.6028
vt 0.7539 0.6016
vt 0.7764 0.6384
vt 0.7539 0.6399
vt 0.7539 0.6384
vt 0.8120 0.6104
vt 0.8096 0.6104
vt 0.8096 0.6094
vt 0.8120 0.6091
vt 0.8135 0.6089
vt 0.8135 0.6101
vt 0.8154 0.6099
vt 0.8154 0.6089
vt 0.8120 0.6311
vt 0.8096 0.6321
vt 0.8096 0.6309
vt 0.8120 0.6323
vt 0.8135 0.6323
vt 0.8135 0.6311
vt 0.8154 0.6313
vt 0.8154 0.6326
vt 0.8071 0.6384
vt 0.8091 0.6399
vt 0.8062 0.6396
vt 0.8091 0.6387
vt 0.8115 0.6401
vt 0.8115 0.6389
vt 0.8130 0.6389
vt 0.8130 0.6401
vt 0.8149 0.6401
vt 0.8149 0.6392
vt 0.8091 0.6016
vt 0.8071 0.6030
vt 0.8062 0.6018
vt 0.8091 0.6028
vt 0.8115 0.6013
vt 0.8115 0.6025
vt 0.8130 0.6023
vt 0.8130 0.6011
vt 0.8149 0.6011
vt 0.8149 0.6023
vt 0.7573 0.6125
vt 0.7573 0.6289
vt 0.7559 0.6289
vt 0.7559 0.6125
vt 0.7812 0.6062
vt 0.7812 0.6353
vt 0.7798 0.6353
vt 0.7798 0.6062
vt 0.7764 0.6016
vt 0.7764 0.6396
vt 0.7432 0.6318
vt 0.7446 0.6384
vt 0.7432 0.6384
vt 0.7446 0.6318
vt 0.7432 0.6096
vt 0.7432 0.6028
vt 0.7446 0.6028
vt 0.7446 0.6096
vt 0.7466 0.6096
vt 0.7466 0.6028
vt 0.7485 0.6096
vt 0.7485 0.6028
vt 0.7515 0.6094
vt 0.7515 0.6028
vt 0.7539 0.6094
vt 0.7559 0.6106
vt 0.7788 0.6040
vt 0.7788 0.6372
vt 0.7559 0.6309
vt 0.7539 0.6318
vt 0.7515 0.6318
vt 0.7515 0.6384
vt 0.7485 0.6318
vt 0.7485 0.6384
vt 0.7466 0.6318
vt 0.7466 0.6384
vt 0.7817 0.6035
vt 0.7837 0.6018
vt 0.7847 0.6030
vt 0.7822 0.6042
vt 0.7803 0.6055
vt 0.8052 0.6108
vt 0.8047 0.6133
vt 0.8037 0.6125
vt 0.8057 0.6116
vt 0.8071 0.6096
vt 0.8071 0.6108
vt 0.8047 0.6282
vt 0.8052 0.6306
vt 0.8037 0.6287
vt 0.8057 0.6299
vt 0.8071 0.6318
vt 0.8071 0.6306
vt 0.7822 0.6372
vt 0.7803 0.6360
vt 0.7817 0.6379
vt 0.7847 0.6384
vt 0.7837 0.6394
vn 0.9653 0.2197 -0.1413
vn 1.0000 -0.0000 0.0000
vn -0.9653 0.2197 -0.1413
vn -1.0000 0.0000 0.0000
vn -0.2525 -0.8055 0.5361
vn 0.2526 -0.8048 0.5371
vn 0.2526 -0.8056 0.5360
vn -0.2525 -0.8053 0.5363
vn 0.2599 0.8035 -0.5355
vn -0.2599 0.8034 -0.5356
vn -0.2599 0.8035 -0.5356
vn 0.2599 0.8036 -0.5355
vn 0.9642 0.2195 -0.1489
vn -0.9642 0.2195 -0.1488
vn 0.0000 -0.6063 -0.7952
vn -0.0000 -0.8019 0.5975
vn 0.0000 -0.7030 0.7112
vn 0.0000 -0.7031 0.7111
vn -0.0000 -0.4316 0.9021
vn 0.0000 -0.4315 0.9021
vn -0.0000 -0.0549 0.9985
vn 0.0000 -0.0551 0.9985
vn -0.0000 0.3632 0.9317
vn 0.0000 0.3930 0.9195
vn 0.0000 0.5564 0.8309
vn 0.0001 0.5565 0.8309
vn 0.0000 0.5565 0.8309
vn 0.0000 0.5565 0.8308
vn -0.0001 0.5565 0.8309
vn 0.0000 -0.0550 0.9985
vn -0.0000 -0.4314 0.9022
vn 0.0000 -0.7032 0.7110
vn 0.7065 0.5889 -0.3925
vn -0.6993 -0.5972 0.3929
vn -0.7066 -0.5888 0.3925
vn -0.9696 -0.2049 0.1339
vn -0.9572 -0.2432 0.1569
vn 0.6993 -0.5972 0.3929
vn 0.7065 -0.5888 0.3926
vn 0.9696 -0.2049 0.1340
vn 0.9572 -0.2432 0.1569
vn -0.7065 0.5889 -0.3925
vn -0.0000 0.8019 -0.5975
vn 0.0000 0.7034 -0.7108
vn 0.0000 0.4344 -0.9007
vn -0.0000 0.0472 -0.9989
vn 0.0000 0.0469 -0.9989
vn 0.0079 -0.4025 -0.9154
vn 0.0001 -0.3768 -0.9263
vn 0.0236 -0.5509 -0.8342
vn 0.0157 -0.5510 -0.8344
vn 0.0079 -0.5511 -0.8344
vn 0.0000 -0.5565 -0.8309
vn 0.0000 -0.5564 -0.8309
vn -0.0000 -0.5566 -0.8308
vn -0.0079 -0.5511 -0.8344
vn -0.0157 -0.5510 -0.8344
vn -0.0236 -0.5509 -0.8342
vn -0.0079 -0.4025 -0.9154
vn -0.0001 -0.3768 -0.9263
vn 0.0000 0.4345 -0.9007
vn 0.0000 0.8019 -0.5974
usemtl M_BD1_Legs
s 1
f 1/1/1 2/2/2 3/3/2
f 4/4/3 5/5/4 6/6/4
f 7/7/4 8/8/4 9/9/4
f 7/7/4 9/9/4 10/10/4
f 11/11/4 7/7/4 10/10/4
f 7/7/4 11/11/4 12/12/4
f 11/11/4 13/13/4 12/12/4
f 11/11/4 14/14/4 13/13/4
f 15/15/2 16/16/2 17/17/2
f 16/16/2 15/15/2 18/18/2
f 15/15/2 19/19/2 18/18/2
f 19/19/2 15/15/2 20/20/2
f 21/21/2 19/19/2 20/20/2
f 19/19/2 21/21/2 22/22/2
f 5/23/4 23/24/4 6/25/4
f 23/24/4 5/23/4 24/26/4
f 25/27/4 23/24/4 24/26/4
f 25/27/4 24/26/4 26/28/4
f 27/29/4 25/27/4 26/28/4
f 25/27/4 27/29/4 28/30/4
f 27/29/4 29/31/4 28/30/4
f 27/29/4 30/32/4 29/31/4
f 31/33/2 3/34/2 2/35/2
f 3/34/2 31/33/2 32/36/2
f 33/37/2 32/36/2 31/33/2
f 32/36/2 33/37/2 34/38/2
f 33/37/2 35/39/2 34/38/2
f 35/39/2 33/37/2 36/40/2
f 37/41/2 35/39/2 36/40/2
f 35/39/2 37/41/2 38/42/2
f 39/43/5 40/44/6 41/45/7
f 39/43/5 41/45/7 42/46/8
f 43/47/9 44/48/10 45/49/11
f 43/47/9 45/49/11 46/50/12
f 3/3/2 47/51/13 1/1/1
f 5/5/4 4/4/3 48/52/14
f 22/53/15 29/54/15 30/55/15
f 29/54/15 22/53/15 21/56/15
f 14/57/15 38/58/15 37/59/15
f 14/57/15 37/59/15 13/60/15
f 37/59/16 12/61/17 13/60/16
f 12/61/17 37/59/16 36/62/18
f 36/62/18 7/63/19 12/61/17
f 7/63/19 36/62/18 33/64/20
f 33/64/20 8/65/21 7/63/19
f 8/65/21 33/64/20 31/66/22
f 2/2/23 8/65/21 31/66/22
f 8/65/21 2/2/23 49/67/24
f 49/67/24 2/2/23 1/1/25
f 49/67/24 1/1/25 50/68/26
f 51/69/27 50/68/26 1/1/25
f 50/68/26 51/69/27 39/43/25
f 46/50/28 39/43/25 51/69/27
f 46/50/28 45/49/25 39/43/25
f 45/49/25 40/44/25 39/43/25
f 40/44/25 45/49/25 52/70/25
f 52/70/25 53/71/29 40/44/25
f 53/71/29 52/70/25 4/4/25
f 4/4/25 54/72/24 53/71/29
f 6/6/23 54/72/24 4/4/25
f 6/6/23 17/73/30 54/72/24
f 17/73/30 6/6/23 23/74/21
f 23/74/21 15/75/20 17/73/30
f 15/75/20 23/74/21 25/76/31
f 25/76/31 20/77/32 15/75/20
f 20/77/32 25/76/31 28/78/18
f 20/77/32 28/78/18 29/54/16
f 20/77/32 29/54/16 21/56/16
f 51/79/33 1/80/1 47/81/13
f 47/81/13 55/82/33 51/79/33
f 55/82/33 46/83/12 51/79/33
f 55/82/33 43/47/9 46/83/12
f 56/84/34 39/85/5 42/86/8
f 39/85/5 56/84/34 50/87/35
f 57/88/36 50/87/35 56/84/34
f 50/87/35 57/88/36 49/89/37
f 57/88/36 8/8/4 49/89/37
f 8/8/4 57/88/36 9/9/4
f 40/90/6 58/91/38 41/92/7
f 53/93/39 58/91/38 40/90/6
f 58/91/38 53/93/39 59/94/40
f 53/93/39 54/95/41 59/94/40
f 17/17/2 59/94/40 54/95/41
f 59/94/40 17/17/2 16/16/2
f 60/96/42 45/97/11 44/48/10
f 45/97/11 60/96/42 52/98/42
f 48/99/14 52/98/42 60/96/42
f 52/98/42 48/99/14 4/100/3
f 22/22/43 30/32/43 19/19/44
f 27/29/44 19/19/44 30/32/43
f 19/19/44 27/29/44 26/28/45
f 19/19/44 26/28/45 18/18/45
f 18/18/45 26/28/45 24/26/46
f 18/18/45 24/26/46 16/16/47
f 24/26/46 59/94/48 16/16/47
f 59/94/48 24/26/46 5/23/49
f 59/94/48 5/23/49 48/99/50
f 59/94/48 48/99/50 58/91/51
f 60/96/52 58/91/51 48/99/50
f 60/96/52 41/92/53 58/91/51
f 44/48/54 41/92/53 60/96/52
f 44/48/54 42/86/53 41/92/53
f 44/48/54 43/47/55 42/86/53
f 55/82/56 42/86/53 43/47/55
f 55/82/56 56/84/57 42/86/53
f 56/84/57 55/82/56 47/81/58
f 47/81/58 57/88/59 56/84/57
f 3/34/60 57/88/59 47/81/58
f 57/88/59 3/34/60 32/36/46
f 57/88/59 32/36/46 9/9/47
f 32/36/46 10/10/61 9/9/47
f 10/10/61 32/36/46 34/38/61
f 35/39/44 10/10/61 34/38/61
f 35/39/44 11/11/44 10/10/61
f 11/11/44 35/39/44 14/14/62
f 38/42/43 14/14/62 35/39/44
