# Blender v2.78 (sub 0) OBJ File: ''
# www.blender.org
mtllib left antenna_4.mtl
o BuddyDroid_01_rig.019_BuddyDroid_01_rig.020
v 10.256704 47.976952 -18.873739
v 10.195219 47.995117 -18.732000
v 10.230253 47.914566 -18.803768
v 10.216679 48.069080 -18.791590
v 10.336856 48.069981 -18.978146
v 10.103389 48.044926 -18.687584
v 10.111573 48.126076 -18.740784
v 10.240734 48.874290 -19.668667
v 10.286650 48.769085 -19.762493
v 10.281459 48.197342 -18.864655
v 10.120856 48.939369 -19.610674
v 10.136328 48.275997 -18.794584
v 9.981813 48.126076 -18.740784
v 9.989999 48.044926 -18.687584
v 9.957060 48.275997 -18.794584
v 9.972531 48.939369 -19.610674
v 9.812028 48.197342 -18.864655
v 9.852653 48.874290 -19.668667
v 9.876808 48.069080 -18.791590
v 9.898169 47.995117 -18.732000
v 9.756531 48.069981 -18.978146
v 9.806838 48.769085 -19.762493
v 9.852653 48.663780 -19.856319
v 9.836682 47.976952 -18.873739
v 9.863133 47.914566 -18.803768
v 9.898169 47.834015 -18.875536
v 9.876808 47.884823 -18.955887
v 9.989999 47.784206 -18.919952
v 9.981813 47.827827 -19.006693
v 9.812028 47.942715 -19.091635
v 9.972531 48.598698 -19.914310
v 10.103389 47.784206 -18.919952
v 9.957060 47.864059 -19.161705
v 10.111573 47.827827 -19.006693
v 10.136328 47.864059 -19.161705
v 10.120856 48.598698 -19.914310
v 10.281459 47.942715 -19.091635
v 10.240734 48.663780 -19.856319
v 10.216679 47.884823 -18.955887
v 10.195219 47.834015 -18.875536
v 9.828697 48.786251 -19.781757
v 9.870320 48.690628 -19.867098
v 9.870320 48.881973 -19.696514
v 9.979319 48.631538 -19.919701
v 9.979319 48.941067 -19.643911
v 10.114069 48.631538 -19.919701
v 10.114069 48.941067 -19.643911
v 10.223067 48.690628 -19.867098
v 10.223067 48.881973 -19.696514
v 10.264689 48.786251 -19.781757
v 10.046694 47.914566 -18.803768
v 10.046694 48.786251 -19.781757
vt 0.6768 0.3804
vt 0.6748 0.3809
vt 0.6758 0.3794
vt 0.6758 0.3813
vt 0.6787 0.3813
vt 0.6738 0.3818
vt 0.6743 0.3828
vt 0.6831 0.3955
vt 0.6851 0.3950
vt 0.6772 0.3828
vt 0.6812 0.3965
vt 0.6758 0.3843
vt 0.6729 0.3833
vt 0.6724 0.3823
vt 0.6738 0.3853
vt 0.6797 0.3975
vt 0.6719 0.3862
vt 0.6777 0.3984
vt 0.6709 0.3843
vt 0.6704 0.3833
vt 0.6704 0.3872
vt 0.6758 0.3994
vt 0.6738 0.4004
vt 0.6694 0.3853
vt 0.6689 0.3843
vt 0.6670 0.3848
vt 0.6675 0.3857
vt 0.6655 0.3853
vt 0.6660 0.3867
vt 0.6685 0.3877
vt 0.6719 0.4009
vt 0.6636 0.3862
vt 0.6665 0.3887
vt 0.6641 0.3872
vt 0.6646 0.3892
vt 0.6699 0.4019
vt 0.6621 0.3896
vt 0.6680 0.4023
vt 0.6602 0.3896
vt 0.6665 0.4033
vt 0.6621 0.3877
vt 0.6641 0.3862
vt 0.6621 0.3862
vt 0.6606 0.3877
vt 0.6606 0.3862
vt 0.5156 0.1196
vt 0.5176 0.1240
vt 0.5142 0.1196
vt 0.5166 0.1147
vt 0.5166 0.1250
vt 0.5156 0.1138
vt 0.5220 0.1265
vt 0.5205 0.1113
vt 0.5220 0.1279
vt 0.5200 0.1099
vt 0.5269 0.1260
vt 0.5254 0.1108
vt 0.5273 0.1274
vt 0.5259 0.1094
vt 0.5317 0.1235
vt 0.5308 0.1123
vt 0.5308 0.1230
vt 0.5298 0.1133
vt 0.5332 0.1177
vt 0.5317 0.1177
vt 0.6294 0.3271
vt 0.6348 0.3271
vt 0.6304 0.3301
vt 0.6328 0.3320
vt 0.6304 0.3242
vt 0.6362 0.3320
vt 0.6328 0.3223
vt 0.6387 0.3301
vt 0.6362 0.3223
vt 0.6396 0.3271
vt 0.6387 0.3242
vt 0.5239 0.1187
vn 0.9186 -0.2591 0.2983
vn 0.7769 0.2432 0.5807
vn 0.9618 -0.1813 0.2049
vn 0.7420 0.1420 0.6552
vn 0.9749 -0.1493 0.1651
vn 0.2990 0.5036 0.8105
vn 0.2844 0.3872 0.8770
vn 0.8084 0.4709 0.3532
vn 0.9987 0.0314 -0.0393
vn 0.7892 0.2841 0.5445
vn 0.3071 0.7401 0.5983
vn 0.3004 0.5454 0.7825
vn -0.2844 0.3873 0.8770
vn -0.2990 0.5036 0.8106
vn -0.3002 0.5455 0.7825
vn -0.3070 0.7401 0.5983
vn -0.7892 0.2841 0.5445
vn -0.8084 0.4709 0.3532
vn -0.7420 0.1420 0.6552
vn -0.7769 0.2433 0.5807
vn -0.9749 -0.1493 0.1651
vn -0.9987 0.0315 -0.0393
vn -0.8085 -0.4082 -0.4239
vn -0.9186 -0.2591 0.2983
vn -0.9618 -0.1813 0.2050
vn -0.7775 -0.6047 -0.1727
vn -0.7402 -0.6694 -0.0629
vn -0.2981 -0.8630 -0.4078
vn -0.2842 -0.9157 -0.2842
vn -0.7891 -0.5761 -0.2131
vn -0.3069 -0.6769 -0.6691
vn 0.2981 -0.8630 -0.4079
vn -0.2991 -0.8422 -0.4486
vn 0.2842 -0.9157 -0.2842
vn 0.2991 -0.8422 -0.4486
vn 0.3070 -0.6769 -0.6690
vn 0.7891 -0.5761 -0.2131
vn 0.8085 -0.4082 -0.4239
vn 0.7403 -0.6693 -0.0630
vn 0.7775 -0.6047 -0.1727
vn -0.7631 0.4328 -0.4799
vn -0.6162 0.0948 -0.7819
vn -0.7631 0.4327 -0.4799
vn -0.6164 0.7663 -0.1813
vn -0.6161 0.0948 -0.7820
vn -0.2357 -0.1101 -0.9656
vn -0.2370 0.9715 -0.0000
vn -0.2355 -0.1098 -0.9657
vn -0.2370 0.9715 -0.0001
vn 0.2357 -0.1100 -0.9656
vn 0.2370 0.9715 -0.0001
vn 0.2355 -0.1098 -0.9657
vn 0.2369 0.9715 -0.0001
vn 0.6160 0.0947 -0.7820
vn 0.6162 0.7664 -0.1815
vn 0.6160 0.0948 -0.7820
vn 0.6163 0.7664 -0.1814
vn 0.7631 0.4327 -0.4800
vn 0.0000 -0.6669 0.7452
vn -0.0000 -0.6668 0.7452
vn 0.0000 -0.6624 0.7491
vn -0.0000 -0.6667 0.7453
vn 0.0000 0.6668 -0.7453
vn 0.0000 0.6668 -0.7452
vn -0.0000 0.6669 -0.7452
usemtl M_BD1_Head_Body
s 1
f 1/1/1 2/2/2 3/3/3
f 2/2/2 1/1/1 4/4/4
f 5/5/5 4/4/4 1/1/1
f 4/4/4 6/6/6 2/2/2
f 6/6/6 4/4/4 7/7/7
f 8/8/8 5/5/5 9/9/9
f 4/4/4 5/5/5 10/10/10
f 5/5/5 8/8/8 10/10/10
f 10/10/10 7/7/7 4/4/4
f 11/11/11 10/10/10 8/8/8
f 7/7/7 10/10/10 12/12/12
f 10/10/10 11/11/11 12/12/12
f 12/12/12 13/13/13 7/7/7
f 7/7/7 13/13/13 6/6/6
f 13/13/13 14/14/14 6/6/6
f 11/11/11 15/15/15 12/12/12
f 13/13/13 12/12/12 15/15/15
f 16/16/16 15/15/15 11/11/11
f 16/16/16 17/17/17 15/15/15
f 17/17/17 13/13/13 15/15/15
f 18/18/18 17/17/17 16/16/16
f 19/19/19 13/13/13 17/17/17
f 13/13/13 19/19/19 14/14/14
f 20/20/20 14/14/14 19/19/19
f 17/17/17 18/18/18 21/21/21
f 21/21/21 19/19/19 17/17/17
f 21/21/21 18/18/18 22/22/22
f 23/23/23 21/21/21 22/22/22
f 19/19/19 21/21/21 24/24/24
f 24/24/24 20/20/20 19/19/19
f 20/20/20 24/24/24 25/25/25
f 24/24/24 26/26/26 25/25/25
f 26/26/26 24/24/24 27/27/27
f 21/21/21 27/27/27 24/24/24
f 27/27/27 28/28/28 26/26/26
f 28/28/28 27/27/27 29/29/29
f 27/27/27 21/21/21 30/30/30
f 21/21/21 23/23/23 30/30/30
f 30/30/30 29/29/29 27/27/27
f 31/31/31 30/30/30 23/23/23
f 29/29/29 32/32/32 28/28/28
f 30/30/30 31/31/31 33/33/33
f 29/29/29 30/30/30 33/33/33
f 32/32/32 29/29/29 34/34/34
f 31/31/31 35/35/35 33/33/33
f 35/35/35 29/29/29 33/33/33
f 29/29/29 35/35/35 34/34/34
f 36/36/36 35/35/35 31/31/31
f 36/36/36 37/37/37 35/35/35
f 34/34/34 35/35/35 37/37/37
f 38/38/38 37/37/37 36/36/36
f 5/39/5 38/38/38 9/40/9
f 38/38/38 5/39/5 37/37/37
f 34/34/34 37/37/37 39/41/39
f 5/39/5 39/41/39 37/37/37
f 32/42/32 34/34/34 39/41/39
f 32/42/32 39/41/39 40/43/40
f 39/41/39 5/39/5 1/44/1
f 1/44/1 40/43/40 39/41/39
f 40/43/40 1/44/1 3/45/3
f 41/46/41 42/47/42 22/48/43
f 22/48/43 43/49/44 41/46/41
f 23/50/45 22/48/43 42/47/42
f 43/49/44 22/48/43 18/51/44
f 44/52/46 23/50/45 42/47/42
f 18/51/44 45/53/47 43/49/44
f 31/54/48 23/50/45 44/52/46
f 45/53/47 18/51/44 16/55/49
f 46/56/50 31/54/48 44/52/46
f 16/55/49 47/57/51 45/53/47
f 31/54/48 46/56/50 36/58/52
f 47/57/51 16/55/49 11/59/53
f 46/56/50 38/60/54 36/58/52
f 11/59/53 8/61/55 47/57/51
f 38/60/54 46/56/50 48/62/56
f 47/57/51 8/61/55 49/63/57
f 48/62/56 9/64/58 38/60/54
f 8/61/55 9/64/58 49/63/57
f 9/64/58 48/62/56 50/65/58
f 50/65/58 49/63/57 9/64/58
f 26/66/59 51/67/59 25/68/59
f 25/68/59 51/67/59 20/69/60
f 28/70/61 51/67/59 26/66/59
f 20/69/60 51/67/59 14/71/60
f 32/72/61 51/67/59 28/70/61
f 14/71/60 51/67/59 6/73/60
f 40/74/60 51/67/59 32/72/61
f 6/73/60 51/67/59 2/75/62
f 3/76/60 51/67/59 40/74/60
f 2/75/62 51/67/59 3/76/60
f 41/46/63 52/77/64 42/47/64
f 42/47/64 52/77/64 44/52/63
f 43/49/64 52/77/64 41/46/63
f 44/52/63 52/77/64 46/56/64
f 45/53/63 52/77/64 43/49/64
f 46/56/64 52/77/64 48/62/64
f 47/57/63 52/77/64 45/53/63
f 48/62/64 52/77/64 50/65/64
f 49/63/65 52/77/64 47/57/63
f 50/65/64 52/77/64 49/63/65
