# Blender v2.78 (sub 0) OBJ File: ''
# www.blender.org
mtllib left_upper_leg._detail_2.mtl
o BuddyDroid_01_rig.064_BuddyDroid_01_rig.065
v 8.141223 20.712839 -2.695505
v 8.141223 20.143993 -3.192983
v 8.471312 20.654648 -2.628928
v 8.471312 20.085802 -3.126506
v 8.801400 20.712839 -2.695505
v 8.801400 20.143993 -3.192983
v 9.043053 20.871946 -2.877368
v 9.043053 20.303099 -3.374946
v 9.131489 21.089243 -3.125808
v 9.131489 20.520397 -3.623386
v 9.043053 21.306541 -3.374247
v 9.043053 20.737694 -3.871826
v 8.801400 20.896799 -4.053689
v 8.801400 21.465647 -3.556111
v 8.471312 21.523838 -3.622687
v 8.471312 20.954992 -4.120266
v 8.141223 20.896799 -4.053689
v 8.141223 21.465647 -3.556111
v 8.222472 20.228836 -3.305774
v 8.222472 19.851036 -3.636262
v 8.471312 20.184917 -3.255567
v 8.471312 19.807117 -3.586055
v 8.720150 20.228836 -3.305774
v 8.720150 19.851036 -3.636262
v 8.902313 20.348814 -3.442920
v 8.902313 19.970915 -3.773309
v 8.968890 20.134710 -3.960662
v 8.968890 20.512611 -3.630174
v 8.902313 20.298508 -4.147915
v 8.902313 20.676407 -3.817427
v 8.720150 20.796286 -3.954573
v 8.720150 20.418486 -4.285061
v 8.471312 20.840204 -4.004680
v 8.471312 20.462404 -4.335168
v 8.222472 20.796286 -3.954573
v 8.222472 20.418486 -4.285061
v 8.185940 19.441793 -3.909956
v 8.185940 18.581886 -4.662163
v 8.471312 19.391487 -3.852362
v 8.471312 18.531481 -4.604569
v 8.756783 19.441793 -3.909956
v 8.756783 18.581886 -4.662163
v 8.965695 18.719431 -4.819372
v 8.965695 19.579340 -4.067164
v 9.042154 19.767292 -4.282066
v 9.042154 18.907284 -5.034274
v 8.965695 19.095236 -5.249075
v 8.965695 19.955242 -4.496869
v 8.756783 19.232780 -5.406384
v 8.756783 20.092789 -4.654177
v 8.471312 19.283188 -5.463878
v 8.471312 20.143095 -4.711671
v 8.185940 20.092789 -4.654177
v 8.185940 19.232780 -5.406384
v 8.139426 21.844145 -3.229016
v 8.471312 21.692427 -3.479952
v 8.139426 21.633835 -3.413075
v 8.471312 21.902737 -3.295992
v 8.803197 21.633835 -3.413075
v 8.803197 21.844145 -3.229016
v 9.046146 21.684240 -3.046255
v 9.046146 21.473930 -3.230214
v 9.134982 21.255436 -2.980377
v 9.134982 21.465746 -2.796417
v 9.046146 21.036940 -2.730639
v 9.046146 21.247250 -2.546680
v 8.803197 21.087347 -2.363819
v 8.803197 20.877035 -2.547778
v 8.471312 20.818445 -2.480802
v 8.471312 21.028755 -2.296843
v 8.139426 20.877035 -2.547778
v 8.139426 21.087347 -2.363819
v 8.471312 21.800726 -3.147966
v 8.228761 21.757904 -3.099057
v 8.713862 21.757904 -3.099057
v 8.891433 21.641022 -2.965405
v 8.956413 21.481318 -2.782843
v 8.891433 21.321613 -2.600181
v 8.713862 21.204729 -2.466529
v 8.471312 21.162008 -2.417619
v 8.228761 21.204729 -2.466529
v 8.228761 22.035789 -2.856007
v 8.471312 22.078611 -2.904917
v 8.713862 22.035789 -2.856007
v 8.891433 21.918907 -2.722355
v 8.956413 21.759203 -2.539793
v 8.891433 21.599499 -2.357231
v 8.713862 21.482615 -2.223578
v 8.471312 21.439795 -2.174569
v 8.228761 21.482615 -2.223578
v 8.240339 22.315971 -2.584210
v 8.471312 22.168444 -2.795419
v 8.240339 22.127720 -2.748905
v 8.471312 22.356695 -2.630824
v 8.702284 22.127720 -2.748905
v 8.702284 22.315971 -2.584210
v 8.871370 22.016426 -2.621641
v 8.871370 22.204678 -2.456946
v 8.933256 22.052658 -2.283068
v 8.933256 21.864407 -2.447763
v 8.871370 21.712290 -2.273985
v 8.871370 21.900541 -2.109290
v 8.702284 21.600996 -2.146721
v 8.702284 21.789246 -1.982026
v 8.471312 21.748522 -1.935412
v 8.471312 21.560270 -2.100107
v 8.240339 21.600996 -2.146721
v 8.240339 21.789246 -1.982026
v 8.193925 19.796337 -3.618296
v 8.471312 19.747429 -3.562399
v 8.748697 19.796337 -3.618296
v 8.951721 19.930090 -3.771113
v 9.026084 20.112652 -3.979926
v 8.951721 20.295313 -4.188739
v 8.748697 20.428967 -4.341556
v 8.471312 20.477875 -4.397552
v 8.193925 20.428967 -4.341556
v 8.193027 21.488403 -3.416968
v 8.471312 21.537413 -3.473164
v 8.749596 21.488403 -3.416968
v 8.953319 21.354252 -3.263652
v 9.027881 21.170992 -3.054240
v 8.953319 20.987831 -2.844728
v 8.749596 20.853680 -2.691412
v 8.471312 20.804569 -2.635316
v 8.193027 20.853680 -2.691412
v 8.308213 22.006245 -2.698998
v 8.471312 22.034992 -2.731937
v 8.634409 22.006245 -2.698998
v 8.753788 21.927589 -2.609164
v 8.797507 21.820189 -2.486392
v 8.753788 21.712889 -2.363619
v 8.634409 21.634233 -2.273785
v 8.471312 21.605488 -2.240846
v 8.308213 21.634233 -2.273785
v 8.471312 19.544903 -3.739571
v 8.193925 19.593813 -3.795468
v 8.748697 19.593813 -3.795468
v 8.951721 19.727465 -3.948285
v 9.026084 19.910126 -4.157098
v 8.951721 20.092789 -4.365911
v 8.748697 20.226440 -4.518728
v 8.471312 20.275351 -4.574724
v 8.193925 20.226440 -4.518728
v 8.228761 19.558178 -3.906762
v 8.471312 19.515457 -3.857852
v 8.713862 19.558178 -3.906762
v 8.891433 19.675161 -4.040414
v 8.956413 19.834766 -4.222976
v 8.891433 19.994471 -4.405538
v 8.713862 20.111454 -4.539190
v 8.471312 20.154175 -4.588099
v 8.228761 20.111454 -4.539190
v 8.328775 18.337040 -5.204957
v 8.471312 18.311886 -5.176211
v 8.613847 18.337040 -5.204957
v 8.718254 18.405813 -5.283512
v 8.756383 18.499640 -5.390813
v 8.718254 18.593466 -5.498115
v 8.613847 18.662237 -5.576669
v 8.471312 18.687391 -5.605416
v 8.328775 18.662237 -5.576669
v 8.328775 17.346176 -6.059175
v 8.471312 17.321024 -6.030429
v 8.613847 17.346176 -6.059175
v 8.718254 17.414850 -6.137730
v 8.756483 17.508677 -6.245031
v 8.718254 17.602602 -6.352233
v 8.613847 17.671274 -6.430788
v 8.471312 17.696428 -6.459634
v 8.328775 17.671274 -6.430788
vt 0.9536 0.5237
vt 0.9526 0.5386
vt 0.9473 0.5239
vt 0.9468 0.5386
vt 0.9414 0.5239
vt 0.9409 0.5386
vt 0.9355 0.5242
vt 0.9351 0.5386
vt 0.9292 0.5242
vt 0.9292 0.5386
vt 0.9233 0.5242
vt 0.9233 0.5386
vt 0.9175 0.5386
vt 0.9170 0.5239
vt 0.9111 0.5237
vt 0.9116 0.5386
vt 0.9053 0.5386
vt 0.9048 0.5237
vt 0.9526 0.5417
vt 0.9517 0.5518
vt 0.9468 0.5417
vt 0.9463 0.5515
vt 0.9409 0.5415
vt 0.9404 0.5513
vt 0.9351 0.5415
vt 0.9346 0.5513
vt 0.9292 0.5513
vt 0.9292 0.5415
vt 0.9233 0.5513
vt 0.9233 0.5415
vt 0.9175 0.5415
vt 0.9180 0.5513
vt 0.9116 0.5415
vt 0.9121 0.5515
vt 0.9058 0.5417
vt 0.9067 0.5518
vt 0.9507 0.5632
vt 0.9478 0.5854
vt 0.9453 0.5625
vt 0.9429 0.5847
vt 0.9399 0.5620
vt 0.9385 0.5845
vt 0.9336 0.5842
vt 0.9346 0.5618
vt 0.9292 0.5618
vt 0.9292 0.5840
vt 0.9243 0.5842
vt 0.9238 0.5618
vt 0.9199 0.5842
vt 0.9185 0.5620
vt 0.9150 0.5847
vt 0.9131 0.5625
vt 0.9077 0.5632
vt 0.9102 0.5854
vt 0.9062 0.5122
vt 0.9116 0.5183
vt 0.9053 0.5176
vt 0.9121 0.5129
vt 0.9175 0.5186
vt 0.9180 0.5134
vt 0.9238 0.5137
vt 0.9233 0.5188
vt 0.9292 0.5188
vt 0.9292 0.5137
vt 0.9351 0.5188
vt 0.9351 0.5137
vt 0.9409 0.5134
vt 0.9414 0.5188
vt 0.9473 0.5183
vt 0.9463 0.5129
vt 0.9531 0.5178
vt 0.9521 0.5125
vt 0.9131 0.5095
vt 0.9072 0.5088
vt 0.9185 0.5100
vt 0.9238 0.5103
vt 0.9292 0.5105
vt 0.9351 0.5103
vt 0.9404 0.5103
vt 0.9458 0.5098
vt 0.9512 0.5090
vt 0.9097 0.5017
vt 0.9146 0.5024
vt 0.9194 0.5029
vt 0.9243 0.5032
vt 0.9292 0.5032
vt 0.9346 0.5032
vt 0.9395 0.5029
vt 0.9443 0.5027
vt 0.9492 0.5020
vt 0.9121 0.4907
vt 0.9155 0.4961
vt 0.9111 0.4956
vt 0.9165 0.4912
vt 0.9204 0.4966
vt 0.9209 0.4917
vt 0.9248 0.4971
vt 0.9248 0.4922
vt 0.9292 0.4922
vt 0.9292 0.4971
vt 0.9341 0.4971
vt 0.9336 0.4922
vt 0.9385 0.4971
vt 0.9380 0.4922
vt 0.9424 0.4917
vt 0.9434 0.4966
vt 0.9478 0.4956
vt 0.9468 0.4907
vt 0.9517 0.5532
vt 0.9458 0.5527
vt 0.9404 0.5525
vt 0.9346 0.5522
vt 0.9292 0.5522
vt 0.9233 0.5522
vt 0.9180 0.5525
vt 0.9121 0.5527
vt 0.9067 0.5530
vt 0.9048 0.5208
vt 0.9111 0.5210
vt 0.9175 0.5212
vt 0.9233 0.5215
vt 0.9292 0.5215
vt 0.9355 0.5215
vt 0.9414 0.5215
vt 0.9473 0.5212
vt 0.9536 0.5208
vt 0.9106 0.4985
vt 0.9150 0.4990
vt 0.9199 0.4995
vt 0.9248 0.5000
vt 0.9292 0.5000
vt 0.9341 0.5000
vt 0.9390 0.4995
vt 0.9434 0.4990
vt 0.9482 0.4985
vt 0.9458 0.5579
vt 0.9512 0.5584
vt 0.9399 0.5576
vt 0.9346 0.5574
vt 0.9292 0.5574
vt 0.9238 0.5574
vt 0.9180 0.5576
vt 0.9126 0.5579
vt 0.9072 0.5584
vt 0.9512 0.5608
vt 0.9453 0.5603
vt 0.9399 0.5598
vt 0.9346 0.5596
vt 0.9292 0.5596
vt 0.9238 0.5596
vt 0.9180 0.5598
vt 0.9126 0.5603
vt 0.9072 0.5608
vt 0.9443 0.5969
vt 0.9404 0.5964
vt 0.9370 0.5962
vt 0.9331 0.5959
vt 0.9292 0.5959
vt 0.9253 0.5959
vt 0.9214 0.5962
vt 0.9175 0.5964
vt 0.9141 0.5969
vt 0.9409 0.6143
vt 0.9385 0.6138
vt 0.9355 0.6135
vt 0.9321 0.6135
vt 0.9292 0.6133
vt 0.9263 0.6133
vt 0.9233 0.6135
vt 0.9204 0.6138
vt 0.9175 0.6140
vn -0.2600 -0.6381 0.7247
vn 0.0000 -0.6584 0.7527
vn -0.2600 -0.6381 0.7248
vn 0.4974 -0.5685 0.6553
vn 0.8651 -0.3303 0.3775
vn 1.0000 -0.0000 0.0000
vn 0.8650 0.3304 -0.3776
vn 0.8651 0.3303 -0.3775
vn 0.4974 0.5685 -0.6553
vn -0.0000 0.6584 -0.7527
vn -0.2600 0.6381 -0.7247
vn -0.2600 -0.6380 0.7248
vn 0.0000 0.6584 -0.7526
vn 0.0000 -0.6585 0.7526
vn -0.0001 -0.6584 0.7527
vn 0.5033 -0.5663 0.6527
vn 0.5033 -0.5662 0.6527
vn 0.8651 -0.3303 0.3774
vn 0.5033 0.5662 -0.6527
vn -0.2600 0.6381 -0.7248
vn -0.0001 0.6584 -0.7526
vn 0.8650 -0.3304 0.3776
vn -0.0000 0.8247 0.5655
vn -0.0314 0.8243 0.5653
vn -0.0000 0.8247 0.5656
vn 0.0551 0.8109 0.5826
vn 0.1020 0.7844 0.6118
vn 0.1180 0.7478 0.6533
vn 0.1181 0.7478 0.6533
vn 0.1022 0.7073 0.6995
vn 0.0549 0.6821 0.7292
vn -0.0000 0.6707 0.7417
vn -0.0000 0.6708 0.7417
vn -0.0316 0.6703 0.7414
vn -0.0001 0.6583 -0.7528
vn 0.0000 -0.6584 0.7526
vn 0.0000 0.3700 0.9290
vn -0.1181 0.3701 0.9215
vn -0.1181 0.3702 0.9214
vn 0.0000 0.3699 0.9291
vn 0.2287 0.4099 0.8830
vn 0.3944 0.5206 0.7573
vn 0.3944 0.5205 0.7573
vn 0.4576 0.6706 0.5838
vn 0.3937 0.8190 0.4174
vn 0.3938 0.8190 0.4173
vn 0.2283 0.9290 0.2912
vn 0.2283 0.9290 0.2913
vn -0.0000 0.9697 0.2444
vn -0.0000 0.9697 0.2445
vn -0.1183 0.9624 0.2445
vn -0.0000 0.9955 -0.0948
vn -0.1893 0.9781 -0.0867
vn 0.3631 0.9316 -0.0158
vn 0.6296 0.7555 0.1810
vn 0.6295 0.7556 0.1810
vn 0.7232 0.5188 0.4559
vn 0.6293 0.2832 0.7237
vn 0.3610 0.1099 0.9261
vn 0.3610 0.1098 0.9261
vn 0.0000 0.0394 0.9992
vn -0.1884 0.0393 0.9813
vn -0.1884 0.0392 0.9813
vn -0.0000 -0.0472 -0.9989
vn -0.1884 -0.0393 -0.9813
vn 0.3610 -0.1098 -0.9261
vn 0.6293 -0.2832 -0.7237
vn 0.7232 -0.5188 -0.4559
vn 0.6296 -0.7556 -0.1810
vn 0.3632 -0.9316 0.0158
vn 0.0000 -0.9962 0.0870
vn -0.1892 -0.9781 0.0867
vn -0.1893 -0.9781 0.0867
vn -0.1183 0.9624 0.2446
vn -0.0000 0.9696 0.2445
vn 0.3937 0.8191 0.4172
vn 0.3937 0.8191 0.4173
vn 0.4576 0.6706 0.5839
vn 0.3945 0.5206 0.7573
vn -0.0000 0.3701 0.9290
vn -0.1182 0.3701 0.9214
vn -0.0000 -0.4315 -0.9021
vn -0.1025 -0.4258 -0.8990
vn 0.1964 -0.4635 -0.8641
vn 0.1964 -0.4634 -0.8641
vn 0.3458 -0.5580 -0.7544
vn 0.3458 -0.5579 -0.7544
vn 0.3931 -0.6920 -0.6055
vn 0.3932 -0.6920 -0.6055
vn 0.3466 -0.8192 -0.4569
vn 0.1975 -0.9166 -0.3477
vn -0.0000 -0.9517 -0.3069
vn 0.0000 -0.9518 -0.3069
vn -0.1025 -0.9460 -0.3075
vn -0.0157 -0.7951 -0.6062
vn -0.0000 -0.7952 -0.6063
vn 0.0316 -0.7880 -0.6149
vn 0.0315 -0.7881 -0.6148
vn 0.0553 -0.7735 -0.6314
vn 0.0552 -0.7734 -0.6315
vn 0.0633 -0.7516 -0.6566
vn 0.0633 -0.7516 -0.6565
vn 0.0552 -0.7331 -0.6779
vn 0.0314 -0.7146 -0.6988
vn 0.0313 -0.7145 -0.6989
vn -0.0000 -0.7072 -0.7071
vn 0.0000 -0.7071 -0.7071
vn -0.0157 -0.7070 -0.7070
vn -0.0000 -0.9697 0.2444
vn -0.2133 -0.9478 0.2369
vn 0.4099 -0.8984 0.1577
vn 0.4098 -0.8984 0.1577
vn 0.7093 -0.7014 -0.0709
vn 0.7093 -0.7013 -0.0708
vn 0.8185 -0.4328 -0.3777
vn 0.8186 -0.4328 -0.3777
vn 0.7100 -0.1578 -0.6863
vn 0.4087 0.0393 -0.9118
vn -0.0000 0.1103 -0.9939
vn -0.2131 0.1105 -0.9708
vn 0.0000 0.0472 0.9989
vn 0.7232 0.5189 0.4559
vn 0.3630 0.9316 -0.0158
vn -0.0000 0.9962 -0.0870
vn -0.1894 0.9780 -0.0869
vn -0.1893 0.9781 -0.0868
vn -0.1892 0.9781 -0.0867
vn -0.2293 -0.9091 0.3478
vn 0.0000 -0.9327 0.3606
vn -0.2293 -0.9091 0.3479
vn 0.0000 -0.9328 0.3605
vn 0.4404 -0.8571 0.2674
vn 0.4403 -0.8571 0.2673
vn 0.7635 -0.6454 0.0236
vn 0.8829 -0.3548 -0.3075
vn 0.7660 -0.0632 -0.6397
vn 0.4422 0.1499 -0.8843
vn 0.4422 0.1500 -0.8843
vn 0.0000 0.2277 -0.9737
vn -0.2287 0.2287 -0.9463
vn -0.2597 -0.6298 0.7321
vn -0.2598 -0.6297 0.7321
vn 0.0000 -0.6540 0.7565
vn 0.8673 -0.3232 0.3785
vn 1.0000 0.0001 -0.0001
vn 0.8673 0.3233 -0.3785
vn -0.0000 0.6540 -0.7565
vn -0.0000 0.6541 -0.7564
vn -0.2598 0.6297 -0.7321
vn -0.2599 0.6296 -0.7321
usemtl M_BD1_Legs
s 1
f 1/1/1 2/2/1 3/3/2
f 3/3/2 2/2/3 4/4/2
f 3/3/2 4/4/2 5/5/4
f 5/5/4 4/4/2 6/6/4
f 5/5/4 6/6/4 7/7/5
f 7/7/5 6/6/4 8/8/5
f 7/7/5 8/8/5 9/9/6
f 9/9/6 8/8/5 10/10/6
f 9/9/6 10/10/6 11/11/7
f 11/11/7 10/10/6 12/12/8
f 13/13/9 11/11/7 12/12/8
f 11/11/7 13/13/9 14/14/9
f 14/14/9 13/13/9 15/15/10
f 15/15/10 13/13/9 16/16/10
f 17/17/11 15/15/10 16/16/10
f 15/15/10 17/17/11 18/18/11
f 19/19/1 20/20/3 21/21/2
f 21/21/2 20/20/12 22/22/2
f 21/21/2 22/22/2 23/23/4
f 23/23/4 22/22/2 24/24/4
f 24/24/4 25/25/5 23/23/4
f 25/25/5 24/24/4 26/26/5
f 27/27/6 25/25/5 26/26/5
f 25/25/5 27/27/6 28/28/6
f 29/29/8 28/28/6 27/27/6
f 28/28/6 29/29/8 30/30/8
f 29/29/8 31/31/9 30/30/8
f 31/31/9 29/29/8 32/32/9
f 31/31/9 32/32/9 33/33/10
f 33/33/10 32/32/9 34/34/10
f 33/33/10 34/34/10 35/35/11
f 35/35/11 34/34/13 36/36/11
f 37/37/1 38/38/1 39/39/14
f 39/39/2 38/38/1 40/40/15
f 40/40/15 41/41/16 39/39/2
f 41/41/16 40/40/15 42/42/17
f 43/43/5 41/41/16 42/42/17
f 41/41/16 43/43/5 44/44/18
f 44/44/18 43/43/5 45/45/6
f 45/45/6 43/43/5 46/46/6
f 47/47/8 45/45/6 46/46/6
f 45/45/6 47/47/8 48/48/8
f 49/49/19 48/48/8 47/47/8
f 48/48/8 49/49/19 50/50/19
f 51/51/10 50/50/19 49/49/19
f 50/50/19 51/51/10 52/52/10
f 52/52/10 51/51/10 53/53/11
f 53/53/11 51/51/13 54/54/11
f 55/55/20 56/56/10 57/57/11
f 55/55/20 58/58/21 56/56/10
f 58/58/21 59/59/9 56/56/10
f 58/58/21 60/60/19 59/59/9
f 61/61/8 59/59/9 60/60/19
f 59/59/9 61/61/8 62/62/8
f 61/61/8 63/63/6 62/62/8
f 61/61/8 64/64/6 63/63/6
f 64/64/6 65/65/5 63/63/6
f 64/64/6 66/66/22 65/65/5
f 67/67/17 65/65/5 66/66/22
f 65/65/5 67/67/17 68/68/17
f 67/67/17 69/69/2 68/68/17
f 67/67/17 70/70/2 69/69/2
f 70/70/2 71/71/1 69/69/2
f 70/70/2 72/72/1 71/71/1
f 73/73/23 55/55/24 74/74/24
f 55/55/24 73/73/23 58/58/25
f 75/75/26 58/58/25 73/73/23
f 58/58/25 75/75/26 60/60/26
f 76/76/27 60/60/26 75/75/26
f 60/60/26 76/76/27 61/61/27
f 77/77/28 61/61/27 76/76/27
f 61/61/27 77/77/28 64/64/29
f 78/78/30 64/64/29 77/77/28
f 64/64/29 78/78/30 66/66/30
f 67/67/31 66/66/30 78/78/30
f 67/67/31 78/78/30 79/79/31
f 70/70/32 67/67/31 79/79/31
f 79/79/31 80/80/33 70/70/32
f 81/81/34 70/70/32 80/80/33
f 70/70/32 81/81/34 72/72/34
f 82/82/11 73/73/10 74/74/11
f 82/82/11 83/83/10 73/73/10
f 83/83/10 75/75/9 73/73/10
f 83/83/10 84/84/9 75/75/9
f 84/84/9 76/76/8 75/75/9
f 85/85/7 76/76/8 84/84/9
f 86/86/6 76/76/8 85/85/7
f 76/76/8 86/86/6 77/77/6
f 86/86/6 78/78/5 77/77/6
f 86/86/6 87/87/5 78/78/5
f 87/87/5 79/79/4 78/78/5
f 88/88/4 79/79/4 87/87/5
f 89/89/2 79/79/4 88/88/4
f 79/79/4 89/89/2 80/80/14
f 89/89/2 81/81/1 80/80/14
f 89/89/2 90/90/1 81/81/1
f 91/91/11 92/92/35 93/93/20
f 91/91/11 94/94/35 92/92/35
f 94/94/35 95/95/9 92/92/35
f 94/94/35 96/96/9 95/95/9
f 96/96/9 97/97/8 95/95/9
f 96/96/9 98/98/7 97/97/8
f 99/99/6 97/97/8 98/98/7
f 97/97/8 99/99/6 100/100/6
f 99/99/6 101/101/5 100/100/6
f 99/99/6 102/102/5 101/101/5
f 102/102/5 103/103/4 101/101/5
f 102/102/5 104/104/4 103/103/4
f 105/105/2 103/103/4 104/104/4
f 103/103/4 105/105/2 106/106/36
f 105/105/2 107/107/1 106/106/36
f 105/105/36 108/108/1 107/107/1
f 22/22/37 20/20/38 109/109/39
f 109/109/39 110/110/40 22/22/37
f 110/110/40 24/24/41 22/22/37
f 24/24/41 110/110/40 111/111/41
f 111/111/41 26/26/42 24/24/41
f 111/111/41 112/112/43 26/26/42
f 113/113/44 26/26/42 112/112/43
f 26/26/42 113/113/44 27/27/44
f 29/29/45 27/27/44 113/113/44
f 113/113/44 114/114/46 29/29/45
f 115/115/47 29/29/45 114/114/46
f 29/29/45 115/115/47 32/32/48
f 116/116/49 32/32/48 115/115/47
f 32/32/48 116/116/49 34/34/50
f 116/116/49 36/36/51 34/34/50
f 116/116/49 117/117/51 36/36/51
f 15/15/52 18/18/53 118/118/53
f 118/118/53 119/119/52 15/15/52
f 120/120/54 15/15/52 119/119/52
f 15/15/52 120/120/54 14/14/54
f 11/11/55 14/14/54 120/120/54
f 120/120/54 121/121/56 11/11/55
f 9/9/57 11/11/55 121/121/56
f 121/121/56 122/122/57 9/9/57
f 123/123/58 9/9/57 122/122/57
f 9/9/57 123/123/58 7/7/58
f 124/124/59 7/7/58 123/123/58
f 7/7/58 124/124/59 5/5/60
f 3/3/61 5/5/60 124/124/59
f 124/124/59 125/125/61 3/3/61
f 126/126/62 3/3/61 125/125/61
f 3/3/61 126/126/62 1/1/63
f 56/56/64 118/118/65 57/57/65
f 118/118/65 56/56/64 119/119/64
f 56/56/64 120/120/66 119/119/64
f 56/56/64 59/59/66 120/120/66
f 62/62/67 120/120/66 59/59/66
f 120/120/66 62/62/67 121/121/67
f 63/63/68 121/121/67 62/62/67
f 121/121/67 63/63/68 122/122/68
f 63/63/68 123/123/69 122/122/68
f 63/63/68 65/65/69 123/123/69
f 65/65/69 124/124/70 123/123/69
f 124/124/70 65/65/69 68/68/70
f 69/69/71 124/124/70 68/68/70
f 124/124/70 69/69/71 125/125/71
f 69/69/71 126/126/72 125/125/71
f 69/69/71 71/71/73 126/126/72
f 127/127/74 83/83/50 82/82/74
f 83/83/50 127/127/74 128/128/75
f 129/129/48 83/83/50 128/128/75
f 83/83/50 129/129/48 84/84/48
f 130/130/76 84/84/48 129/129/48
f 84/84/48 130/130/76 85/85/77
f 131/131/44 85/85/77 130/130/76
f 85/85/77 131/131/44 86/86/78
f 132/132/79 86/86/78 131/131/44
f 86/86/78 132/132/79 87/87/42
f 88/88/41 87/87/42 132/132/79
f 88/88/41 132/132/79 133/133/41
f 89/89/80 88/88/41 133/133/41
f 133/133/41 134/134/80 89/89/80
f 135/135/81 89/89/80 134/134/80
f 89/89/80 135/135/81 90/90/81
f 92/92/82 127/127/83 93/93/83
f 127/127/83 92/92/82 128/128/82
f 92/92/82 129/129/84 128/128/82
f 129/129/84 92/92/82 95/95/85
f 95/95/85 130/130/86 129/129/84
f 95/95/85 97/97/87 130/130/86
f 97/97/87 131/131/88 130/130/86
f 97/97/87 100/100/89 131/131/88
f 132/132/90 131/131/88 100/100/89
f 132/132/90 100/100/89 101/101/90
f 103/103/91 132/132/90 101/101/90
f 132/132/90 103/103/91 133/133/91
f 106/106/92 133/133/91 103/103/91
f 133/133/91 106/106/92 134/134/93
f 106/106/92 135/135/94 134/134/93
f 106/106/92 107/107/94 135/135/94
f 19/19/95 4/4/96 2/2/95
f 4/4/96 19/19/95 21/21/96
f 23/23/97 4/4/96 21/21/96
f 4/4/96 23/23/97 6/6/98
f 25/25/99 6/6/98 23/23/97
f 6/6/98 25/25/99 8/8/100
f 28/28/101 8/8/100 25/25/99
f 8/8/100 28/28/101 10/10/102
f 30/30/103 10/10/102 28/28/101
f 10/10/102 30/30/103 12/12/103
f 13/13/104 12/12/103 30/30/103
f 13/13/104 30/30/103 31/31/105
f 16/16/106 13/13/104 31/31/105
f 31/31/105 33/33/107 16/16/106
f 35/35/108 16/16/106 33/33/107
f 16/16/106 35/35/108 17/17/108
f 136/136/36 109/109/3 137/137/1
f 109/109/3 136/136/36 110/110/36
f 110/110/36 136/136/36 111/111/17
f 111/111/17 136/136/36 138/138/17
f 139/139/5 111/111/17 138/138/17
f 111/111/17 139/139/5 112/112/5
f 140/140/6 112/112/5 139/139/5
f 112/112/5 140/140/6 113/113/6
f 141/141/8 113/113/6 140/140/6
f 113/113/6 141/141/8 114/114/8
f 114/114/8 141/141/8 115/115/19
f 115/115/19 141/141/8 142/142/19
f 115/115/19 142/142/19 116/116/13
f 116/116/13 142/142/19 143/143/13
f 144/144/11 116/116/13 143/143/13
f 116/116/13 144/144/11 117/117/11
f 136/136/109 137/137/110 145/145/110
f 136/136/109 145/145/110 146/146/109
f 147/147/111 136/136/109 146/146/109
f 136/136/109 147/147/111 138/138/112
f 138/138/112 147/147/111 139/139/113
f 139/139/113 147/147/111 148/148/114
f 140/140/115 139/139/113 148/148/114
f 140/140/115 148/148/114 149/149/116
f 150/150/117 140/140/115 149/149/116
f 140/140/115 150/150/117 141/141/117
f 151/151/118 141/141/117 150/150/117
f 141/141/117 151/151/118 142/142/118
f 143/143/119 142/142/118 151/151/118
f 143/143/119 151/151/118 152/152/119
f 153/153/120 143/143/119 152/152/119
f 143/143/119 153/153/120 144/144/120
f 39/39/121 145/145/63 37/37/63
f 145/145/63 39/39/121 146/146/121
f 147/147/60 146/146/121 39/39/121
f 147/147/60 39/39/121 41/41/60
f 44/44/58 147/147/60 41/41/60
f 147/147/60 44/44/58 148/148/58
f 45/45/57 148/148/58 44/44/58
f 148/148/58 45/45/57 149/149/122
f 150/150/55 149/149/122 45/45/57
f 150/150/55 45/45/57 48/48/55
f 50/50/123 150/150/55 48/48/55
f 150/150/55 50/50/123 151/151/123
f 52/52/124 151/151/123 50/50/123
f 151/151/123 52/52/124 152/152/124
f 153/153/125 152/152/124 52/52/124
f 153/153/126 52/52/124 53/53/127
f 154/154/128 40/40/129 38/38/130
f 40/40/129 154/154/128 155/155/131
f 156/156/132 40/40/129 155/155/131
f 40/40/129 156/156/132 42/42/133
f 42/42/133 156/156/132 43/43/134
f 43/43/134 156/156/132 157/157/134
f 43/43/134 157/157/134 46/46/135
f 46/46/135 157/157/134 158/158/135
f 159/159/136 46/46/135 158/158/135
f 46/46/135 159/159/136 47/47/136
f 160/160/137 47/47/136 159/159/136
f 47/47/136 160/160/137 49/49/138
f 49/49/138 160/160/137 51/51/139
f 51/51/139 160/160/137 161/161/139
f 162/162/140 51/51/139 161/161/139
f 51/51/139 162/162/140 54/54/140
f 154/154/141 163/163/142 155/155/143
f 155/155/143 163/163/142 164/164/143
f 165/165/4 155/155/143 164/164/143
f 155/155/143 165/165/4 156/156/17
f 156/156/17 165/165/4 157/157/144
f 157/157/144 165/165/4 166/166/5
f 167/167/145 157/157/144 166/166/5
f 157/157/144 167/167/145 158/158/6
f 168/168/146 158/158/6 167/167/145
f 158/158/6 168/168/146 159/159/8
f 169/169/19 159/159/8 168/168/146
f 159/159/8 169/169/19 160/160/9
f 160/160/9 169/169/19 161/161/147
f 161/161/147 169/169/19 170/170/148
f 171/171/149 161/161/147 170/170/148
f 161/161/147 171/171/149 162/162/150
