# Blender v2.78 (sub 0) OBJ File: ''
# www.blender.org
mtllib left antenna_1.mtl
o BuddyDroid_01_rig.016_BuddyDroid_01_rig.017
v 9.785976 41.214870 -11.568968
v 9.713611 41.294025 -11.372232
v 9.724191 41.356709 -11.442602
v 9.777392 41.147495 -11.502790
v 9.944283 41.056961 -11.583541
v 9.947577 41.127132 -11.647123
v 10.150601 41.056961 -11.583541
v 10.147408 41.127132 -11.647123
v 10.309008 41.214870 -11.568968
v 10.317592 41.147495 -11.502790
v 10.381373 41.294025 -11.372232
v 10.370793 41.356709 -11.442602
v 10.309008 41.498547 -11.316136
v 10.317592 41.440552 -11.241673
v 10.150601 41.531086 -11.161023
v 10.147408 41.586182 -11.237981
v 9.947577 41.586182 -11.237981
v 9.944283 41.531086 -11.161023
v 9.785976 41.498547 -11.316136
v 9.777392 41.440552 -11.241673
v 10.235643 39.366592 -10.079926
v 10.469311 41.040295 -11.548206
v 10.539980 39.531689 -9.932698
v 10.208593 40.898956 -11.674172
v 9.886391 40.898857 -11.674172
v 9.859341 39.366592 -10.079926
v 9.625673 41.040295 -11.548106
v 9.555004 39.531689 -9.932698
v 9.438720 39.798794 -9.694639
v 9.526157 41.269070 -11.344284
v 9.625673 41.497845 -11.140362
v 9.555004 40.065899 -9.456580
v 9.859341 40.230991 -9.309452
v 9.886391 41.639183 -11.014295
v 10.235643 40.230991 -9.309452
v 10.208593 41.639183 -11.014295
v 10.469311 41.497845 -11.140362
v 10.539980 40.065899 -9.456580
v 10.656264 39.798794 -9.694639
v 10.568827 41.269070 -11.344284
v 10.047492 41.356110 -11.441903
v 10.463022 39.860680 -9.310350
v 10.206199 39.999920 -9.186181
v 10.561041 39.635296 -9.511179
v 9.888786 39.999920 -9.186181
v 10.463022 39.409912 -9.712107
v 9.631962 39.860680 -9.310350
v 10.206199 39.270672 -9.836177
v 9.533943 39.635296 -9.511179
v 9.888786 39.270672 -9.836177
v 9.631962 39.409912 -9.712007
v 9.704627 39.368389 -9.586240
v 9.916534 39.253502 -9.688650
v 10.390357 39.368389 -9.586240
v 10.178450 39.253502 -9.688650
v 10.137226 39.287838 -9.536732
v 9.957659 39.287838 -9.536732
v 9.812428 39.366692 -9.466461
v 10.282557 39.366692 -9.466461
v 10.047492 39.476990 -9.333508
v 10.471307 39.554447 -9.420446
v 10.338054 39.494156 -9.352872
v 10.390357 39.740402 -9.254654
v 10.282557 39.621620 -9.239182
v 10.137226 39.700474 -9.169012
v 10.178450 39.855289 -9.152244
v 9.916534 39.855289 -9.152244
v 9.957659 39.700474 -9.169012
v 9.704627 39.740402 -9.254654
v 9.812428 39.621620 -9.239182
v 9.756930 39.494156 -9.352872
v 9.623677 39.554447 -9.420446
vt 0.2352 0.2466
vt 0.2362 0.2495
vt 0.2352 0.2490
vt 0.2362 0.2466
vt 0.2344 0.2441
vt 0.2339 0.2446
vt 0.2314 0.2432
vt 0.2314 0.2441
vt 0.2291 0.2446
vt 0.2286 0.2441
vt 0.2268 0.2466
vt 0.2277 0.2466
vt 0.2277 0.2490
vt 0.2268 0.2495
vt 0.2285 0.2520
vt 0.2291 0.2510
vt 0.2314 0.2520
vt 0.2314 0.2529
vt 0.2339 0.2510
vt 0.2344 0.2520
vt 0.7271 0.4067
vt 0.7310 0.3784
vt 0.7319 0.4067
vt 0.7266 0.3784
vt 0.7222 0.3784
vt 0.7222 0.4067
vt 0.7178 0.3784
vt 0.7178 0.4067
vt 0.7134 0.4067
vt 0.7134 0.3784
vt 0.7090 0.3784
vt 0.7090 0.4067
vt 0.7046 0.4067
vt 0.7046 0.3784
vt 0.6997 0.4067
vt 0.7002 0.3784
vt 0.6958 0.3784
vt 0.6948 0.4067
vt 0.6899 0.4067
vt 0.6919 0.3784
vt 0.6875 0.3779
vt 0.6851 0.4062
vt 0.2385 0.2500
vt 0.2385 0.2456
vt 0.2358 0.2539
vt 0.2314 0.2554
vt 0.2358 0.2417
vt 0.2314 0.2407
vt 0.2271 0.2539
vt 0.2272 0.2417
vt 0.2244 0.2500
vt 0.2244 0.2456
vt 0.2314 0.2480
vt 0.2312 0.2617
vt 0.2356 0.2573
vt 0.2341 0.2632
vt 0.2303 0.2681
vt 0.2372 0.2598
vt 0.2419 0.2559
vt 0.2335 0.2676
vt 0.2415 0.2593
vt 0.2356 0.2715
vt 0.2334 0.2739
vt 0.2391 0.2764
vt 0.2455 0.2612
vt 0.2478 0.2588
vt 0.2507 0.2642
vt 0.2396 0.2734
vt 0.2476 0.2651
vt 0.2439 0.2725
vt 0.2455 0.2754
vt 0.2469 0.2695
vt 0.2500 0.2710
vt 0.2455 0.2686
vt 0.2432 0.2710
vt 0.2368 0.2700
vt 0.2399 0.2715
vt 0.2401 0.2700
vt 0.2423 0.2695
vt 0.2438 0.2681
vt 0.2380 0.2690
vt 0.2406 0.2661
vt 0.2351 0.2671
vt 0.2369 0.2671
vt 0.2356 0.2637
vt 0.2373 0.2646
vt 0.2389 0.2632
vt 0.2379 0.2612
vt 0.2413 0.2607
vt 0.2411 0.2627
vt 0.2444 0.2622
vt 0.2430 0.2637
vt 0.2441 0.2656
vt 0.2460 0.2651
vn -0.9459 -0.1576 -0.2838
vn -0.9458 -0.1577 -0.2838
vn -0.9458 -0.1578 -0.2837
vn -0.5841 -0.5288 -0.6158
vn -0.5841 -0.5289 -0.6157
vn -0.0000 -0.6707 -0.7417
vn 0.5841 -0.5289 -0.6157
vn 0.5841 -0.5288 -0.6158
vn 0.9458 -0.1578 -0.2838
vn 0.9458 -0.1576 -0.2838
vn 0.9457 0.2995 0.1261
vn 0.5839 0.6706 0.4576
vn 0.5839 0.6706 0.4575
vn 0.0000 0.8121 0.5835
vn -0.5839 0.6706 0.4576
vn -0.5838 0.6706 0.4576
vn -0.9457 0.2995 0.1261
vn -0.9458 0.2994 0.1261
vn 0.3081 -0.8059 -0.5056
vn 0.8112 -0.4095 -0.4174
vn 0.7990 -0.5379 -0.2689
vn 0.3069 -0.6847 -0.6611
vn -0.3069 -0.6847 -0.6611
vn -0.3081 -0.8058 -0.5057
vn -0.8112 -0.4095 -0.4174
vn -0.7990 -0.5379 -0.2690
vn -0.9876 -0.1027 0.1185
vn -0.9992 0.0236 -0.0315
vn -0.8091 0.4634 0.3613
vn -0.7970 0.3314 0.5050
vn -0.3070 0.5983 0.7401
vn -0.3074 0.7330 0.6069
vn 0.3070 0.5983 0.7401
vn 0.3074 0.7330 0.6068
vn 0.8091 0.4634 0.3613
vn 0.7970 0.3314 0.5050
vn 0.9876 -0.1027 0.1185
vn 0.9992 0.0236 -0.0315
vn -0.1572 0.5658 -0.8094
vn -0.1965 0.6528 -0.7316
vn -0.1966 0.6528 -0.7315
vn -0.1575 0.7402 -0.6536
vn -0.1575 0.7403 -0.6536
vn -0.0629 0.5111 -0.8572
vn -0.0629 0.7937 -0.6051
vn -0.0628 0.5112 -0.8572
vn 0.0629 0.5112 -0.8572
vn 0.0629 0.7937 -0.6051
vn 0.1572 0.5658 -0.8094
vn 0.1575 0.7403 -0.6536
vn 0.1965 0.6528 -0.7316
vn 0.1966 0.6528 -0.7315
vn 0.0000 0.6668 -0.7452
vn 0.0001 0.6668 -0.7452
vn -0.0000 0.6624 -0.7491
vn -0.0000 0.6668 -0.7453
vn -0.0000 0.6624 -0.7492
vn 0.7170 0.0709 0.6934
vn 0.2742 0.3135 0.9092
vn 0.8808 -0.3146 0.3539
vn -0.2743 0.3135 0.9091
vn 0.7149 -0.6992 0.0078
vn -0.7170 0.0709 0.6934
vn 0.2762 -0.9390 -0.2051
vn -0.8808 -0.3146 0.3539
vn -0.2761 -0.9390 -0.2052
vn -0.7149 -0.6992 0.0078
vn -0.5744 -0.7789 0.2517
vn -0.2196 -0.9724 0.0784
vn 0.5744 -0.7789 0.2518
vn 0.2196 -0.9724 0.0783
vn 0.1186 -0.8850 0.4503
vn -0.1185 -0.8849 0.4504
vn -0.3075 -0.7806 0.5441
vn 0.3075 -0.7807 0.5441
vn -0.0000 -0.6668 0.7452
vn 0.7073 -0.4716 0.5266
vn 0.3779 -0.6141 0.6929
vn 0.5747 -0.1575 0.8031
vn 0.3062 -0.4476 0.8402
vn 0.1180 -0.3469 0.9305
vn 0.2201 0.0314 0.9750
vn -0.2201 0.0314 0.9750
vn -0.1183 -0.3469 0.9304
vn -0.5746 -0.1574 0.8031
vn -0.3062 -0.4476 0.8402
vn -0.3779 -0.6141 0.6928
vn -0.7073 -0.4716 0.5266
usemtl M_BD1_Head_Body
s 1
f 1/1/1 2/2/2 3/3/3
f 2/2/2 1/1/1 4/4/2
f 1/1/4 5/5/4 4/4/5
f 5/5/4 1/1/4 6/6/4
f 6/6/6 7/7/6 5/5/6
f 7/7/6 6/6/6 8/8/6
f 9/9/7 7/7/8 8/8/8
f 7/7/8 9/9/7 10/10/8
f 9/9/9 11/11/10 10/10/10
f 11/11/10 9/9/9 12/12/10
f 13/13/11 11/11/11 12/12/11
f 11/11/11 13/13/11 14/14/11
f 13/13/12 15/15/12 14/14/12
f 15/15/12 13/13/12 16/16/13
f 17/17/14 15/15/14 16/16/14
f 15/15/14 17/17/14 18/18/14
f 19/19/15 18/18/16 17/17/16
f 18/18/16 19/19/15 20/20/16
f 19/19/17 2/2/18 20/20/17
f 2/2/18 19/19/17 3/3/18
f 21/21/19 22/22/20 23/23/21
f 22/22/20 21/21/19 24/24/22
f 21/21/19 25/25/23 24/24/22
f 25/25/23 21/21/19 26/26/24
f 26/26/24 27/27/25 25/25/23
f 27/27/25 26/26/24 28/28/26
f 29/29/27 27/27/25 28/28/26
f 27/27/25 29/29/27 30/30/28
f 29/29/27 31/31/29 30/30/28
f 31/31/29 29/29/27 32/32/30
f 33/33/31 31/31/29 32/32/30
f 31/31/29 33/33/31 34/34/32
f 35/35/33 34/34/32 33/33/31
f 34/34/32 35/35/33 36/36/34
f 35/35/33 37/37/35 36/36/34
f 37/37/35 35/35/33 38/38/36
f 39/39/37 37/37/35 38/38/36
f 37/37/35 39/39/37 40/40/38
f 39/39/37 22/41/20 40/40/38
f 22/41/20 39/39/37 23/42/21
f 4/4/39 30/43/40 2/2/41
f 30/43/40 20/20/42 2/2/41
f 30/43/40 4/4/39 27/44/39
f 20/20/42 30/43/40 31/45/43
f 5/5/44 27/44/39 4/4/39
f 31/45/43 34/46/45 20/20/42
f 27/44/39 5/5/44 25/47/46
f 20/20/42 34/46/45 18/18/45
f 5/5/44 24/48/47 25/47/46
f 34/46/45 15/15/48 18/18/45
f 24/48/47 5/5/44 7/7/47
f 15/15/48 34/46/45 36/49/48
f 7/7/47 22/50/49 24/48/47
f 36/49/48 14/14/50 15/15/48
f 22/50/49 7/7/47 10/10/49
f 14/14/50 36/49/48 37/51/50
f 11/11/51 22/50/49 10/10/49
f 37/51/50 11/11/51 14/14/50
f 22/50/49 11/11/51 40/52/52
f 11/11/51 37/51/50 40/52/52
f 3/3/53 41/53/53 1/1/53
f 1/1/53 41/53/53 6/6/54
f 19/19/55 41/53/53 3/3/53
f 6/6/54 41/53/53 8/8/56
f 17/17/57 41/53/53 19/19/55
f 8/8/56 41/53/53 9/9/53
f 16/16/55 41/53/53 17/17/57
f 9/9/53 41/53/53 12/12/53
f 13/13/55 41/53/53 16/16/55
f 12/12/53 41/53/53 13/13/55
f 38/54/36 35/55/33 42/56/58
f 42/56/58 39/57/37 38/54/36
f 35/55/33 43/58/59 42/56/58
f 35/55/33 33/59/31 43/58/59
f 39/57/37 42/56/58 44/60/60
f 33/59/31 45/61/61 43/58/59
f 39/57/37 44/60/60 46/62/62
f 23/63/21 39/57/37 46/62/62
f 46/62/62 21/64/19 23/63/21
f 33/59/31 47/65/63 45/61/61
f 47/65/63 33/59/31 32/66/30
f 32/66/30 29/67/27 47/65/63
f 21/64/19 46/62/62 48/68/64
f 29/67/27 49/69/65 47/65/63
f 21/64/19 48/68/64 50/70/66
f 26/71/24 21/64/19 50/70/66
f 29/67/27 51/72/67 49/69/65
f 26/71/24 50/70/66 51/72/67
f 51/72/67 29/67/27 28/73/26
f 28/73/26 26/71/24 51/72/67
f 51/72/67 50/70/66 52/74/68
f 52/74/68 49/69/65 51/72/67
f 50/70/66 48/68/64 53/75/69
f 50/70/66 53/75/69 52/74/68
f 54/76/70 48/68/64 46/62/62
f 46/62/62 44/60/60 54/76/70
f 55/77/71 53/75/69 48/68/64
f 48/68/64 54/76/70 55/77/71
f 56/78/72 53/75/69 55/77/71
f 55/77/71 54/76/70 56/78/72
f 57/79/73 52/74/68 53/75/69
f 53/75/69 56/78/72 57/79/73
f 52/74/68 57/79/73 58/80/74
f 56/78/72 54/76/70 59/81/75
f 56/78/72 60/82/76 57/79/73
f 59/81/75 60/82/76 56/78/72
f 57/79/73 60/82/76 58/80/74
f 54/76/70 61/83/77 59/81/75
f 61/83/77 54/76/70 44/60/60
f 59/81/75 61/83/77 62/84/78
f 62/84/78 60/82/76 59/81/75
f 44/60/60 63/85/79 61/83/77
f 63/85/79 44/60/60 42/56/58
f 61/83/77 64/86/80 62/84/78
f 64/86/80 61/83/77 63/85/79
f 64/86/80 60/82/76 62/84/78
f 42/56/58 43/58/59 63/85/79
f 63/85/79 65/87/81 64/86/80
f 65/87/81 60/82/76 64/86/80
f 43/58/59 66/88/82 63/85/79
f 65/87/81 63/85/79 66/88/82
f 43/58/59 67/89/83 66/88/82
f 67/89/83 43/58/59 45/61/61
f 66/88/82 68/90/84 65/87/81
f 68/90/84 66/88/82 67/89/83
f 68/90/84 60/82/76 65/87/81
f 45/61/61 69/91/85 67/89/83
f 69/91/85 68/90/84 67/89/83
f 69/91/85 45/61/61 47/65/63
f 47/65/63 49/69/65 69/91/85
f 70/92/86 60/82/76 68/90/84
f 68/90/84 69/91/85 70/92/86
f 71/93/87 60/82/76 70/92/86
f 58/80/74 60/82/76 71/93/87
f 72/94/88 70/92/86 69/91/85
f 70/92/86 72/94/88 71/93/87
f 72/94/88 69/91/85 49/69/65
f 72/94/88 58/80/74 71/93/87
f 49/69/65 52/74/68 72/94/88
f 58/80/74 72/94/88 52/74/68
