# Blender v2.78 (sub 0) OBJ File: ''
# www.blender.org
mtllib left_ankle_ring.mtl
o BuddyDroid_01_rig.080_BuddyDroid_01_rig.081
v 4.683526 2.908713 -0.009382
v 4.828358 3.300787 -0.086040
v 4.828358 2.908713 -0.009382
v 4.683526 3.300787 -0.086040
v 4.828358 3.700047 -0.058092
v 4.683526 3.700047 -0.058092
v 4.683526 4.079046 0.072566
v 4.828358 4.079046 0.072566
v 4.683526 4.411929 0.297051
v 4.828358 4.411929 0.297051
v 4.828358 4.676140 0.600089
v 4.683526 4.676140 0.600089
v 4.683526 4.853711 0.960921
v 4.828358 4.853711 0.960921
v 4.683526 4.932365 1.355091
v 4.828358 4.932365 1.355091
v 4.828358 4.906912 1.755649
v 4.683526 4.906912 1.755649
v 4.828358 4.779049 2.135346
v 4.683526 4.779049 2.135346
v 4.683526 4.557659 2.468230
v 4.828358 4.557659 2.468230
v 4.828358 4.257814 2.731642
v 4.683526 4.257814 2.731642
v 4.828358 2.550477 0.166592
v 4.683526 2.550477 0.166592
v 4.683526 2.250532 0.430104
v 4.828358 2.250532 0.430104
v 4.683526 2.029441 0.762987
v 4.828358 2.029441 0.762987
v 4.683526 1.901977 1.142684
v 4.828358 1.901977 1.142684
v 4.828358 1.877024 1.543242
v 4.683526 1.877024 1.543242
v 4.683526 1.956177 1.937312
v 4.828358 1.956177 1.937312
v 4.683526 2.133947 2.298244
v 4.828358 2.133947 2.298244
v 4.828358 2.398258 2.601183
v 4.683526 2.398258 2.601183
v 4.683526 2.731042 2.825767
v 4.828358 2.731042 2.825767
v 4.683526 3.109641 2.956425
v 4.828358 3.109641 2.956425
v 4.683526 3.508302 2.984374
v 4.828358 3.508302 2.984374
v 4.828358 3.899877 2.907716
v 4.683526 3.899877 2.907716
v 4.680232 3.404594 1.449117
v 4.831652 3.404594 1.449117
vt 0.9927 0.2720
vt 0.9956 0.2642
vt 0.9956 0.2720
vt 0.9927 0.2642
vt 0.9956 0.2563
vt 0.9927 0.2563
vt 0.9927 0.2485
vt 0.9956 0.2485
vt 0.9927 0.2407
vt 0.9956 0.2407
vt 0.9956 0.2329
vt 0.9927 0.2329
vt 0.9927 0.2256
vt 0.9956 0.2256
vt 0.9927 0.2178
vt 0.9956 0.2178
vt 0.9956 0.2100
vt 0.9927 0.2100
vt 0.9956 0.2021
vt 0.9927 0.2021
vt 0.9927 0.1943
vt 0.9956 0.1943
vt 0.9956 0.1865
vt 0.9927 0.1865
vt 0.9873 0.2642
vt 0.9902 0.2720
vt 0.9873 0.2720
vt 0.9902 0.2642
vt 0.9902 0.2563
vt 0.9873 0.2563
vt 0.9902 0.2485
vt 0.9878 0.2485
vt 0.9902 0.2407
vt 0.9878 0.2407
vt 0.9878 0.2329
vt 0.9902 0.2329
vt 0.9902 0.2256
vt 0.9878 0.2256
vt 0.9902 0.2178
vt 0.9878 0.2178
vt 0.9878 0.2100
vt 0.9902 0.2100
vt 0.9902 0.2021
vt 0.9878 0.2021
vt 0.9902 0.1943
vt 0.9878 0.1943
vt 0.9902 0.1865
vt 0.9878 0.1865
vt 0.9878 0.1787
vt 0.9902 0.1787
vt 0.9902 0.1714
vt 0.9878 0.1714
vt 0.7803 0.6909
vt 0.7803 0.6978
vt 0.7549 0.6943
vt 0.7783 0.6846
vt 0.7783 0.7041
vt 0.7749 0.6787
vt 0.7749 0.7097
vt 0.7705 0.6741
vt 0.7705 0.7146
vt 0.7646 0.6707
vt 0.7646 0.7178
vt 0.7583 0.6689
vt 0.7583 0.7195
vt 0.7515 0.6689
vt 0.7515 0.7195
vt 0.7451 0.6707
vt 0.7451 0.7178
vt 0.7393 0.6741
vt 0.7393 0.7146
vt 0.7344 0.6787
vt 0.7344 0.7097
vt 0.7314 0.6846
vt 0.7314 0.7041
vt 0.7295 0.6909
vt 0.7295 0.6975
vt 0.6460 0.4683
vt 0.6489 0.4683
vt 0.6475 0.4795
vt 0.6431 0.4692
vt 0.6519 0.4692
vt 0.6406 0.4707
vt 0.6543 0.4707
vt 0.6387 0.4727
vt 0.6562 0.4727
vt 0.6372 0.4751
vt 0.6577 0.4751
vt 0.6362 0.4780
vt 0.6587 0.4780
vt 0.6362 0.4810
vt 0.6587 0.4810
vt 0.6372 0.4839
vt 0.6577 0.4839
vt 0.6387 0.4863
vt 0.6562 0.4863
vt 0.6406 0.4883
vt 0.6543 0.4883
vt 0.6431 0.4897
vt 0.6519 0.4897
vt 0.6460 0.4907
vt 0.6489 0.4907
vn -0.0000 -0.3233 -0.9463
vn 0.0000 -0.0628 -0.9980
vn 0.0000 0.1977 -0.9803
vn 0.0000 0.4472 -0.8944
vn 0.0000 0.6620 -0.7495
vn 0.0000 0.8344 -0.5511
vn 0.0000 0.8345 -0.5511
vn -0.0000 0.9463 -0.3233
vn 0.0000 0.9980 -0.0628
vn 0.0000 0.9821 0.1886
vn 0.0000 0.8975 0.4411
vn 0.0000 0.8975 0.4409
vn 0.0000 0.7526 0.6585
vn 0.0000 0.7528 0.6582
vn 0.0000 0.5564 0.8309
vn -0.0000 0.5563 0.8310
vn 0.0000 -0.5566 -0.8308
vn 0.0000 -0.7530 -0.6580
vn 0.0000 -0.8976 -0.4409
vn 0.0000 -0.9821 -0.1885
vn 0.0000 -0.9975 0.0706
vn -0.0000 -0.9463 0.3233
vn 0.0000 -0.8345 0.5511
vn -0.0000 -0.8345 0.5510
vn 0.0000 -0.6620 0.7495
vn 0.0000 -0.4472 0.8945
vn 0.0000 -0.4473 0.8944
vn -0.0000 -0.1977 0.9803
vn -0.0000 0.0629 0.9980
vn 0.0000 0.3233 0.9463
vn 0.0000 0.3234 0.9463
vn -1.0000 -0.0000 -0.0000
vn -1.0000 -0.0001 -0.0000
vn -1.0000 0.0000 -0.0001
vn 1.0000 -0.0000 -0.0000
vn 1.0000 -0.0001 -0.0000
vn 1.0000 0.0001 -0.0000
vn 1.0000 0.0000 -0.0001
usemtl M_BD1_Legs
s 1
f 1/1/1 2/2/2 3/3/1
f 2/2/2 1/1/1 4/4/2
f 4/4/2 5/5/3 2/2/2
f 5/5/3 4/4/2 6/6/3
f 7/7/4 5/5/3 6/6/3
f 5/5/3 7/7/4 8/8/4
f 9/9/5 8/8/4 7/7/4
f 8/8/4 9/9/5 10/10/5
f 11/11/6 10/10/5 9/9/5
f 9/9/5 12/12/7 11/11/6
f 13/13/8 11/11/6 12/12/7
f 11/11/6 13/13/8 14/14/8
f 15/15/9 14/14/8 13/13/8
f 14/14/8 15/15/9 16/16/9
f 17/17/10 16/16/9 15/15/9
f 15/15/9 18/18/10 17/17/10
f 19/19/11 17/17/10 18/18/10
f 18/18/10 20/20/12 19/19/11
f 21/21/13 19/19/11 20/20/12
f 19/19/11 21/21/13 22/22/14
f 23/23/15 22/22/14 21/21/13
f 21/21/13 24/24/16 23/23/15
f 25/25/17 1/26/1 3/27/1
f 1/26/1 25/25/17 26/28/17
f 25/25/17 27/29/18 26/28/17
f 27/29/18 25/25/17 28/30/18
f 28/30/18 29/31/19 27/29/18
f 29/31/19 28/30/18 30/32/19
f 30/32/19 31/33/20 29/31/19
f 31/33/20 30/32/19 32/34/20
f 33/35/21 31/33/20 32/34/20
f 31/33/20 33/35/21 34/36/21
f 35/37/22 34/36/21 33/35/21
f 33/35/21 36/38/22 35/37/22
f 37/39/23 35/37/22 36/38/22
f 36/38/22 38/40/24 37/39/23
f 39/41/25 37/39/23 38/40/24
f 37/39/23 39/41/25 40/42/25
f 41/43/26 40/42/25 39/41/25
f 39/41/25 42/44/27 41/43/26
f 43/45/28 41/43/26 42/44/27
f 42/44/27 44/46/28 43/45/28
f 45/47/29 43/45/28 44/46/28
f 44/46/28 46/48/29 45/47/29
f 47/49/30 45/47/29 46/48/29
f 45/47/29 47/49/30 48/50/31
f 24/51/16 48/50/31 47/49/30
f 47/49/30 23/52/15 24/51/16
f 1/53/32 26/54/32 49/55/32
f 4/56/32 1/53/32 49/55/32
f 26/54/32 27/57/32 49/55/32
f 6/58/32 4/56/32 49/55/32
f 27/57/32 29/59/32 49/55/32
f 7/60/32 6/58/32 49/55/32
f 29/59/32 31/61/33 49/55/32
f 9/62/32 7/60/32 49/55/32
f 31/61/33 34/63/32 49/55/32
f 12/64/32 9/62/32 49/55/32
f 34/63/32 35/65/32 49/55/32
f 13/66/32 12/64/32 49/55/32
f 35/65/32 37/67/32 49/55/32
f 15/68/32 13/66/32 49/55/32
f 37/67/32 40/69/32 49/55/32
f 18/70/32 15/68/32 49/55/32
f 40/69/32 41/71/32 49/55/32
f 20/72/32 18/70/32 49/55/32
f 41/71/32 43/73/34 49/55/32
f 21/74/32 20/72/32 49/55/32
f 43/73/34 45/75/32 49/55/32
f 24/76/32 21/74/32 49/55/32
f 45/75/32 48/77/32 49/55/32
f 48/77/32 24/76/32 49/55/32
f 25/78/35 3/79/35 50/80/35
f 28/81/35 25/78/35 50/80/35
f 3/79/35 2/82/35 50/80/35
f 30/83/35 28/81/35 50/80/35
f 2/82/35 5/84/35 50/80/35
f 32/85/36 30/83/35 50/80/35
f 5/84/35 8/86/35 50/80/35
f 33/87/35 32/85/36 50/80/35
f 8/86/35 10/88/35 50/80/35
f 36/89/35 33/87/35 50/80/35
f 10/88/35 11/90/35 50/80/35
f 38/91/35 36/89/35 50/80/35
f 11/90/35 14/92/35 50/80/35
f 39/93/35 38/91/35 50/80/35
f 14/92/35 16/94/35 50/80/35
f 42/95/35 39/93/35 50/80/35
f 16/94/35 17/96/37 50/80/35
f 44/97/38 42/95/35 50/80/35
f 17/96/37 19/98/35 50/80/35
f 46/99/35 44/97/38 50/80/35
f 19/98/35 22/100/35 50/80/35
f 47/101/35 46/99/35 50/80/35
f 22/100/35 23/102/35 50/80/35
f 23/102/35 47/101/35 50/80/35
