# Blender v2.78 (sub 0) OBJ File: ''
# www.blender.org
mtllib neck_top.mtl
o BuddyDroid_01_rig.027_BuddyDroid_01_rig.028
v 1.005538 31.521622 -2.715965
v -0.943453 31.521622 -2.715965
v -1.019113 31.432688 -2.790327
v 1.081098 31.432688 -2.790327
v 1.005538 28.808447 3.946197
v 1.005538 33.201210 -1.313163
v -0.943453 33.201210 -1.313163
v -0.943453 28.808447 3.946197
v -0.943453 27.128859 2.543294
v 1.005538 27.128859 2.543294
v -1.184506 32.896275 -1.567791
v -1.075608 32.784882 -1.660819
v -1.059039 31.992750 -2.322494
v -1.184506 31.854805 -2.437680
v -1.184506 31.481197 -2.749902
v 1.121124 31.992750 -2.322494
v 1.246492 31.854805 -2.437680
v 1.246492 31.481197 -2.749902
v 1.246492 32.896275 -1.567791
v 1.137693 32.784882 -1.660819
v 1.246492 33.296635 -1.233610
v 1.081098 33.345047 -1.193085
v -1.019113 33.345047 -1.193085
v -1.184506 33.296635 -1.233610
v 1.079601 34.276619 -2.154704
v -1.019113 33.486183 -1.208357
v 1.081098 33.486183 -1.208357
v 1.005538 32.388817 -1.991606
v 1.068222 32.388817 -1.991606
v 1.005538 27.996052 3.267653
v -0.943453 27.996052 3.267653
v -0.943453 32.388817 -1.991606
v -1.006236 32.388817 -1.991606
v 1.373955 32.386021 -3.574674
v 1.373955 32.694851 -3.823713
v 1.373955 33.166477 -2.922781
v 1.373955 32.195972 -3.226320
v 1.373955 33.075546 -3.935606
v 1.373955 32.153652 -2.831850
v 1.373955 33.470112 -3.893284
v 1.373955 32.265545 -2.451155
v 1.373955 33.818367 -3.703236
v 1.373955 32.514584 -2.142327
v 1.373955 34.067406 -3.394408
v 1.373955 32.862938 -1.952279
v 1.373955 34.179302 -3.013713
v 1.373955 33.257408 -1.909957
v 1.373955 34.136978 -2.619244
v 1.373955 33.638103 -2.021850
v 1.373955 33.946930 -2.270889
v -1.311870 32.386021 -3.574674
v -1.311870 33.166477 -2.922781
v -1.311870 32.694851 -3.823713
v -1.311870 32.195972 -3.226320
v -1.311870 33.075546 -3.935606
v -1.311870 32.153652 -2.831850
v -1.311870 33.470112 -3.893284
v -1.311870 32.265545 -2.451155
v -1.311870 33.818367 -3.703236
v -1.311870 32.514584 -2.142327
v -1.311870 34.067406 -3.394408
v -1.311870 32.862938 -1.952279
v -1.311870 34.179302 -3.013713
v -1.311870 33.257408 -1.909957
v -1.311870 34.136978 -2.619244
v -1.311870 33.638103 -2.021850
v -1.311870 33.946930 -2.270889
v 1.081098 31.422506 -2.931965
v -1.019113 31.422506 -2.931965
v 1.244994 32.258759 -3.680878
v 1.079601 32.212940 -3.878312
v 1.244994 32.617992 -3.970541
v 1.079601 32.541134 -4.117469
v 1.079601 33.045898 -4.265795
v 1.244994 33.060772 -4.100700
v 1.079601 33.569031 -4.209698
v 1.244994 33.519524 -4.051491
v 1.079601 34.030876 -3.957765
v 1.244994 33.924671 -3.830500
v 1.079601 34.361164 -3.548123
v 1.244994 34.214237 -3.471266
v 1.079601 34.509487 -3.043358
v 1.244994 34.344395 -3.028586
v 1.244994 34.295185 -2.569735
v 1.079601 34.453392 -2.520227
v 1.244994 34.074196 -2.164685
v 1.242199 32.073997 -2.824663
v 1.244994 32.072502 -2.694904
v 1.242199 32.119614 -3.250275
v 1.242199 32.324535 -3.625979
v 1.242199 32.657719 -3.894582
v 1.242199 33.068359 -4.015358
v 1.242199 33.493969 -3.969743
v 1.242199 33.869675 -3.764722
v 1.242199 34.138275 -3.431539
v 1.242199 34.259052 -3.020900
v 1.242199 34.213436 -2.595288
v 1.242199 34.008415 -2.219584
v 1.242199 33.675232 -1.950981
v 1.242199 33.264595 -1.830205
v 1.244994 33.106186 -1.822619
v 1.136495 32.141674 -2.354135
v 1.095571 32.408379 -2.015063
v 1.136495 32.789474 -1.813037
v -1.017615 34.276619 -2.154704
v -1.017615 34.453392 -2.520227
v -1.017615 34.509487 -3.043358
v -1.017615 34.361164 -3.548123
v -1.017615 34.030876 -3.957765
v -1.017615 33.569031 -4.209698
v -1.017615 33.045898 -4.265795
v -1.017615 32.541134 -4.117469
v -1.017615 32.212940 -3.878312
v -1.182909 32.258759 -3.680878
v -1.182909 32.617992 -3.970541
v -1.182909 33.060772 -4.100700
v -1.182909 33.519524 -4.051491
v -1.182909 33.924671 -3.830500
v -1.182909 34.214237 -3.471266
v -1.182909 34.344395 -3.028586
v -1.182909 34.295185 -2.569735
v -1.182909 34.074196 -2.164685
v -1.180114 32.073997 -2.824663
v -1.182909 32.072502 -2.694904
v -1.180114 32.119614 -3.250275
v -1.180114 32.324535 -3.625979
v -1.180114 32.657719 -3.894582
v -1.180114 33.068359 -4.015358
v -1.180114 33.493969 -3.969643
v -1.180114 33.869675 -3.764722
v -1.180114 34.138275 -3.431539
v -1.180114 34.259052 -3.020900
v -1.180114 34.213436 -2.595288
v -1.180114 34.008415 -2.219584
v -1.180114 33.675232 -1.950981
v -1.180114 33.264595 -1.830205
v -1.182909 33.106186 -1.822619
v -1.074410 32.141674 -2.354135
v -1.033586 32.408379 -2.015063
v -1.074410 32.789474 -1.813037
vt 0.7344 0.3188
vt 0.7344 0.3438
vt 0.7329 0.3447
vt 0.7329 0.3179
vt 0.0904 0.9973
vt 0.0024 0.9973
vt 0.0024 0.9722
vt 0.0904 0.9722
vt 0.1810 0.9993
vt 0.0930 0.9993
vt 0.0930 0.9743
vt 0.1810 0.9743
vt 0.6436 0.3501
vt 0.6470 0.3550
vt 0.6460 0.3574
vt 0.6455 0.3730
vt 0.6475 0.3750
vt 0.6455 0.3813
vt 0.6489 0.3813
vt 0.6470 0.3823
vt 0.6274 0.2749
vt 0.6274 0.2832
vt 0.6255 0.2769
vt 0.6240 0.2832
vt 0.6265 0.2847
vt 0.6270 0.2568
vt 0.6299 0.2515
vt 0.6284 0.2588
vt 0.6265 0.2500
vt 0.6284 0.2490
vt 0.6465 0.3179
vt 0.6465 0.3447
vt 0.6440 0.3188
vt 0.6440 0.3438
vt 0.6455 0.3472
vt 0.6641 0.3179
vt 0.6479 0.3447
vt 0.6479 0.3179
vt 0.0930 0.9598
vt 0.0915 0.9664
vt 0.0922 0.9598
vt 0.0912 0.9532
vt 0.0930 0.9462
vt 0.1954 0.9743
vt 0.1954 0.9993
vt 0.2091 0.9993
vt 0.2091 0.9743
vt 0.1810 0.9598
vt 0.1810 0.9462
vt 0.0024 0.9441
vt 0.0024 0.9586
vt 0.0009 0.9520
vt 0.0016 0.9586
vt 0.0007 0.9653
vt 0.0904 0.9441
vt 0.0904 0.9586
vt 0.6094 0.2783
vt 0.6045 0.2769
vt 0.6099 0.2651
vt 0.6143 0.2773
vt 0.6001 0.2739
vt 0.6187 0.2749
vt 0.5977 0.2695
vt 0.6216 0.2710
vt 0.5972 0.2646
vt 0.6230 0.2661
vt 0.5986 0.2598
vt 0.6221 0.2612
vt 0.6016 0.2559
vt 0.6196 0.2568
vt 0.6060 0.2534
vt 0.6157 0.2539
vt 0.6108 0.2524
vt 0.6641 0.3760
vt 0.6631 0.3633
vt 0.6689 0.3750
vt 0.6592 0.3755
vt 0.6729 0.3721
vt 0.6543 0.3730
vt 0.6753 0.3677
vt 0.6514 0.3691
vt 0.6763 0.3628
vt 0.6504 0.3643
vt 0.6748 0.3579
vt 0.6509 0.3594
vt 0.6719 0.3540
vt 0.6533 0.3550
vt 0.6675 0.3511
vt 0.6577 0.3521
vt 0.6626 0.3506
vt 0.6255 0.2861
vt 0.6284 0.2471
vt 0.6475 0.3843
vt 0.7314 0.3179
vt 0.7314 0.3447
vt 0.6470 0.3481
vt 0.6226 0.2861
vt 0.6089 0.2808
vt 0.6069 0.2837
vt 0.6030 0.2793
vt 0.6016 0.2817
vt 0.5962 0.2773
vt 0.5981 0.2754
vt 0.5923 0.2715
vt 0.5952 0.2705
vt 0.5913 0.2642
vt 0.5942 0.2646
vt 0.5933 0.2573
vt 0.5957 0.2588
vt 0.5977 0.2515
vt 0.5996 0.2539
vt 0.6045 0.2505
vt 0.6035 0.2480
vt 0.6089 0.2471
vt 0.6108 0.2500
vt 0.6250 0.2471
vt 0.6196 0.2769
vt 0.6216 0.2754
vt 0.6147 0.2793
vt 0.6089 0.2798
vt 0.6035 0.2783
vt 0.5991 0.2749
vt 0.5962 0.2700
vt 0.5952 0.2646
vt 0.5967 0.2588
vt 0.6001 0.2544
vt 0.6050 0.2515
vt 0.6108 0.2510
vt 0.6162 0.2520
vt 0.6211 0.2554
vt 0.6226 0.2573
vt 0.6265 0.2734
vt 0.6250 0.2720
vt 0.6274 0.2666
vt 0.6270 0.2666
vt 0.6255 0.2607
vt 0.6270 0.2593
vt 0.6641 0.3447
vt 0.6694 0.3179
vt 0.6694 0.3447
vt 0.6763 0.3179
vt 0.6763 0.3447
vt 0.6831 0.3179
vt 0.6831 0.3447
vt 0.6899 0.3179
vt 0.6899 0.3447
vt 0.6963 0.3447
vt 0.6963 0.3179
vt 0.7031 0.3447
vt 0.7031 0.3179
vt 0.7100 0.3447
vt 0.7100 0.3179
vt 0.7153 0.3447
vt 0.7153 0.3179
vt 0.6646 0.3789
vt 0.6509 0.3843
vt 0.6665 0.3813
vt 0.6704 0.3774
vt 0.6714 0.3799
vt 0.6772 0.3755
vt 0.6748 0.3735
vt 0.6807 0.3691
vt 0.6782 0.3687
vt 0.6816 0.3623
vt 0.6787 0.3623
vt 0.6802 0.3555
vt 0.6772 0.3564
vt 0.6758 0.3496
vt 0.6738 0.3516
vt 0.6685 0.3486
vt 0.6694 0.3457
vt 0.6626 0.3477
vt 0.6533 0.3745
vt 0.6519 0.3735
vt 0.6587 0.3774
vt 0.6641 0.3779
vt 0.6699 0.3765
vt 0.6743 0.3730
vt 0.6772 0.3682
vt 0.6777 0.3623
vt 0.6763 0.3569
vt 0.6729 0.3525
vt 0.6680 0.3496
vt 0.6626 0.3486
vt 0.6567 0.3501
vt 0.6519 0.3535
vt 0.6504 0.3555
vt 0.6470 0.3716
vt 0.6479 0.3701
vt 0.6460 0.3647
vt 0.6465 0.3647
vt 0.6475 0.3589
vn -0.0000 -0.6410 0.7675
vn -0.0000 -0.6411 0.7675
vn -0.0001 -0.6411 0.7675
vn 0.0001 -0.6411 0.7674
vn 0.0000 0.7675 0.6410
vn 0.0000 -0.7675 -0.6410
vn -0.0002 -0.6409 0.7676
vn -0.0005 -0.6410 0.7676
vn 0.0001 -0.6410 0.7676
vn -0.0003 -0.6411 0.7675
vn 0.0000 -0.6409 0.7676
vn 0.0003 -0.6411 0.7675
vn 0.0002 -0.6409 0.7676
vn 0.0002 -0.6410 0.7675
vn 0.0004 -0.6409 0.7676
vn 0.0003 -0.6409 0.7676
vn -0.0003 -0.6409 0.7676
vn -0.0004 -0.6409 0.7676
vn 0.0000 0.8402 0.5423
vn 0.0000 0.7675 0.6411
vn 0.0000 -0.6408 0.7677
vn 1.0000 -0.0000 0.0000
vn -1.0000 -0.0000 0.0000
vn 0.1422 -0.9873 0.0711
vn 0.0866 -0.9937 0.0710
vn 0.2678 -0.9609 0.0709
vn 0.1417 0.1024 0.9846
vn 0.2670 0.1021 0.9583
vn 0.0864 0.1100 0.9902
vn -0.1422 -0.9873 0.0711
vn -0.2678 -0.9609 0.0709
vn -0.0869 -0.9937 0.0709
vn 0.6996 -0.5502 -0.4559
vn 0.7079 -0.5034 -0.4955
vn 0.7168 -0.4647 -0.5199
vn 0.7167 -0.3150 -0.6222
vn 0.7096 -0.0631 -0.7018
vn 0.7066 0.2119 -0.6751
vn 0.7066 0.4552 -0.5417
vn 0.7066 0.4553 -0.5417
vn 0.7092 0.6225 -0.3310
vn 0.7092 0.6225 -0.3309
vn 0.7096 0.7018 -0.0631
vn 0.7096 0.7017 -0.0631
vn 0.7165 0.6692 0.1968
vn 0.7168 0.5908 0.3702
vn 0.7086 0.5747 0.4094
vn 0.6996 0.5502 0.4559
vn 1.0000 -0.0000 -0.0079
vn 0.9996 -0.0158 -0.0236
vn 1.0000 0.0079 -0.0000
vn 0.9998 0.0156 0.0080
vn 0.9994 0.0236 0.0236
vn 0.9994 0.0236 0.0235
vn 0.9994 0.0157 0.0314
vn 0.9995 0.0001 0.0315
vn 0.9995 0.0000 0.0315
vn 0.9995 -0.0080 0.0315
vn 0.9995 -0.0079 0.0315
vn 0.9994 -0.0236 0.0236
vn 0.9994 -0.0314 0.0157
vn 0.9995 -0.0315 0.0000
vn 0.9995 -0.0315 -0.0079
vn 0.9996 -0.0236 -0.0157
vn 0.9994 -0.0236 -0.0235
vn 0.9998 -0.0157 -0.0157
vn 1.0000 -0.0001 -0.0078
vn 0.9999 0.0079 -0.0079
vn 0.9394 0.0869 0.3315
vn 0.8181 0.4405 0.3697
vn 0.8982 0.2600 0.3545
vn 0.9520 -0.0944 0.2911
vn 0.9634 -0.1816 0.1974
vn 0.9634 -0.1815 0.1974
vn 0.9618 -0.2680 0.0552
vn 0.9287 -0.3541 -0.1102
vn 0.8846 -0.4107 -0.2211
vn 0.7993 -0.4623 -0.3840
vn 0.0000 0.8404 0.5420
vn -0.0000 0.9612 0.2757
vn 0.0000 0.9613 0.2754
vn 0.0000 0.9962 -0.0871
vn 0.0000 0.8864 -0.4629
vn 0.0000 0.8865 -0.4628
vn 0.0000 0.6410 -0.7675
vn 0.0000 0.2997 -0.9540
vn -0.0000 0.2995 -0.9541
vn 0.0000 -0.0871 -0.9962
vn 0.0000 -0.4408 -0.8976
vn 0.0000 -0.6834 -0.7301
vn 0.0000 -0.6830 -0.7304
vn 0.0000 -0.7675 -0.6411
vn -0.7079 -0.5034 -0.4955
vn -0.6996 -0.5503 -0.4559
vn -0.6996 -0.5502 -0.4559
vn -0.7168 -0.4647 -0.5199
vn -0.7167 -0.3150 -0.6222
vn -0.7096 -0.0631 -0.7018
vn -0.7066 0.2119 -0.6751
vn -0.7065 0.4554 -0.5417
vn -0.7066 0.4553 -0.5417
vn -0.7092 0.6225 -0.3309
vn -0.7096 0.7018 -0.0631
vn -0.7165 0.6693 0.1968
vn -0.7165 0.6692 0.1968
vn -0.7168 0.5908 0.3702
vn -0.7086 0.5747 0.4094
vn -0.6996 0.5502 0.4559
vn -1.0000 -0.0000 -0.0079
vn -0.9996 -0.0158 -0.0236
vn -1.0000 0.0079 -0.0000
vn -0.9998 0.0157 0.0079
vn -0.9994 0.0236 0.0236
vn -0.9994 0.0157 0.0314
vn -0.9995 0.0000 0.0315
vn -0.9995 0.0001 0.0315
vn -0.9995 -0.0079 0.0315
vn -0.9994 -0.0236 0.0236
vn -0.9994 -0.0235 0.0236
vn -0.9994 -0.0314 0.0157
vn -0.9995 -0.0315 0.0000
vn -0.9995 -0.0315 -0.0079
vn -0.9995 -0.0315 -0.0080
vn -0.9996 -0.0236 -0.0157
vn -0.9994 -0.0236 -0.0236
vn -0.9998 -0.0157 -0.0157
vn -1.0000 -0.0001 -0.0077
vn -0.9999 0.0079 -0.0079
vn -0.9394 0.0869 0.3316
vn -0.8982 0.2600 0.3545
vn -0.8181 0.4405 0.3697
vn -0.9520 -0.0944 0.2911
vn -0.9634 -0.1816 0.1974
vn -0.9618 -0.2680 0.0552
vn -0.9287 -0.3541 -0.1102
vn -0.8846 -0.4107 -0.2211
vn -0.7993 -0.4623 -0.3840
vn -0.1418 0.1024 0.9846
vn -0.0864 0.1099 0.9902
vn -0.2671 0.1021 0.9583
vn 0.5358 -0.5436 0.6461
vn 0.5607 -0.6950 0.4501
vn 0.5358 -0.3231 0.7801
vn 0.5747 -0.7086 0.4094
vn 0.5524 -0.2683 0.7892
vn 0.5823 -0.7868 0.2046
vn 0.5817 -0.0786 0.8096
vn 0.5453 -0.8377 0.0316
vn 0.5608 0.1027 0.8215
vn 0.5114 -0.8576 -0.0551
vn 0.5613 0.0949 0.8222
vn 0.5186 -0.8172 -0.2514
vn 0.5206 0.3945 0.7572
vn 0.5194 -0.6532 -0.5509
vn 0.5194 0.6532 0.5509
vn 0.5206 -0.3944 -0.7572
vn 0.5186 0.8172 0.2514
vn 0.5205 -0.3945 -0.7572
vn 0.5198 -0.0788 -0.8506
vn 0.5198 0.8506 -0.0787
vn 0.5198 0.8506 -0.0788
vn 0.5186 0.2514 -0.8172
vn 0.5205 0.7573 -0.3945
vn 0.5194 0.5509 -0.6532
vn -0.5358 -0.5436 0.6461
vn -0.5357 -0.5436 0.6461
vn -0.5607 -0.6950 0.4501
vn -0.5358 -0.3231 0.7801
vn -0.5747 -0.7086 0.4094
vn -0.5524 -0.2683 0.7892
vn -0.5823 -0.7868 0.2046
vn -0.5817 -0.0786 0.8096
vn -0.5453 -0.8377 0.0316
vn -0.5608 0.1027 0.8215
vn -0.5114 -0.8576 -0.0551
vn -0.5613 0.0949 0.8222
vn -0.5186 -0.8172 -0.2514
vn -0.5206 0.3945 0.7572
vn -0.5186 -0.8172 -0.2515
vn -0.5206 0.3944 0.7572
vn -0.5194 -0.6532 -0.5509
vn -0.5194 0.6532 0.5509
vn -0.5206 -0.3945 -0.7572
vn -0.5186 0.8172 0.2515
vn -0.5205 -0.3945 -0.7572
vn -0.5186 0.8172 0.2514
vn -0.5198 -0.0787 -0.8506
vn -0.5198 0.8506 -0.0788
vn -0.5198 0.8507 -0.0787
vn -0.5186 0.2514 -0.8172
vn -0.5205 0.7572 -0.3945
vn -0.5206 0.7572 -0.3945
vn -0.5194 0.5509 -0.6532
usemtl M_BD1_Head_Body
s 1
f 1/1/1 2/2/2 3/3/3
f 1/1/1 3/3/3 4/4/4
f 5/5/5 6/6/5 7/7/5
f 7/7/5 8/8/5 5/5/5
f 9/9/6 2/10/6 1/11/6
f 1/11/6 10/12/6 9/9/6
f 7/13/7 11/14/8 12/15/9
f 13/16/10 14/17/2 2/18/2
f 2/18/2 15/19/11 3/20/3
f 16/21/12 1/22/1 17/23/1
f 17/23/1 1/22/1 18/24/11
f 18/24/11 1/22/1 4/25/4
f 19/26/11 6/27/13 20/28/14
f 6/27/13 19/26/11 21/29/15
f 6/27/13 21/29/15 22/30/16
f 22/31/16 23/32/17 6/33/13
f 6/33/13 23/32/17 7/34/7
f 7/34/7 23/32/17 24/35/18
f 25/36/19 26/37/20 27/38/20
f 28/39/2 1/11/1 16/40/12
f 16/40/12 29/41/2 28/39/2
f 20/42/14 28/39/2 29/41/2
f 6/43/13 28/39/2 20/42/14
f 30/44/2 9/9/2 10/12/21
f 30/44/2 31/45/2 9/9/2
f 31/45/2 30/44/2 8/46/1
f 5/47/1 8/46/1 30/44/2
f 28/39/22 10/12/22 1/11/22
f 10/12/22 28/39/22 30/48/22
f 30/48/22 28/39/22 5/49/22
f 6/43/22 5/49/22 28/39/22
f 2/50/2 32/51/2 13/52/10
f 13/52/10 32/51/2 33/53/2
f 32/51/2 12/54/9 33/53/2
f 32/51/2 7/7/7 12/54/9
f 9/55/23 32/51/23 2/50/23
f 32/51/23 9/55/23 31/56/23
f 8/8/23 32/51/23 31/56/23
f 32/51/23 8/8/23 7/7/23
f 34/57/22 35/58/22 36/59/22
f 37/60/22 34/57/22 36/59/22
f 35/58/22 38/61/22 36/59/22
f 39/62/22 37/60/22 36/59/22
f 38/61/22 40/63/22 36/59/22
f 41/64/22 39/62/22 36/59/22
f 40/63/22 42/65/22 36/59/22
f 43/66/22 41/64/22 36/59/22
f 44/67/22 36/59/22 42/65/22
f 43/66/22 36/59/22 45/68/22
f 46/69/22 36/59/22 44/67/22
f 45/68/22 36/59/22 47/70/22
f 48/71/22 36/59/22 46/69/22
f 47/70/22 36/59/22 49/72/22
f 50/73/22 36/59/22 48/71/22
f 49/72/22 36/59/22 50/73/22
f 51/74/23 52/75/23 53/76/23
f 54/77/23 52/75/23 51/74/23
f 53/76/23 52/75/23 55/78/23
f 56/79/23 52/75/23 54/77/23
f 55/78/23 52/75/23 57/80/23
f 58/81/23 52/75/23 56/79/23
f 57/80/23 52/75/23 59/82/23
f 60/83/23 52/75/23 58/81/23
f 61/84/23 59/82/23 52/75/23
f 60/83/23 62/85/23 52/75/23
f 63/86/23 61/84/23 52/75/23
f 62/85/23 64/87/23 52/75/23
f 65/88/23 63/86/23 52/75/23
f 64/87/23 66/89/23 52/75/23
f 67/90/23 65/88/23 52/75/23
f 66/89/23 67/90/23 52/75/23
f 4/25/24 68/91/25 18/24/26
f 22/30/27 21/29/28 27/92/29
f 3/20/30 15/19/31 69/93/32
f 3/3/30 68/94/25 4/4/24
f 68/94/25 3/3/30 69/95/32
f 11/14/8 7/13/7 24/96/18
f 2/18/2 14/17/2 15/19/11
f 68/97/33 70/98/34 18/24/33
f 70/98/34 68/97/33 71/99/35
f 71/99/35 72/100/36 70/98/34
f 71/99/35 73/101/36 72/100/36
f 74/102/37 72/100/36 73/101/36
f 72/100/36 74/102/37 75/103/37
f 76/104/38 75/103/37 74/102/37
f 75/103/37 76/104/38 77/105/38
f 78/106/39 77/105/38 76/104/38
f 77/105/38 78/106/39 79/107/40
f 78/106/39 80/108/41 79/107/40
f 79/107/40 80/108/41 81/109/42
f 80/108/41 82/110/43 81/109/42
f 82/110/43 83/111/44 81/109/42
f 82/110/43 84/112/45 83/111/44
f 84/112/45 82/110/43 85/113/45
f 25/114/46 84/112/45 85/113/45
f 86/115/47 84/112/45 25/114/46
f 27/116/48 86/115/47 25/114/46
f 86/115/47 27/116/48 21/29/48
f 87/117/49 88/118/50 17/23/49
f 18/24/51 87/117/49 17/23/49
f 87/117/49 18/24/51 89/119/52
f 70/98/53 89/119/52 18/24/51
f 89/119/52 70/98/53 90/120/54
f 72/100/55 90/120/54 70/98/53
f 90/120/54 72/100/55 91/121/55
f 72/100/55 92/122/56 91/121/55
f 92/122/56 72/100/55 75/103/57
f 75/103/57 93/123/58 92/122/56
f 93/123/58 75/103/57 77/105/59
f 94/124/60 93/123/58 77/105/59
f 77/105/59 79/107/60 94/124/60
f 79/107/60 95/125/61 94/124/60
f 95/125/61 79/107/60 81/109/61
f 81/109/61 96/126/62 95/125/61
f 96/126/62 81/109/61 83/111/62
f 83/111/62 84/112/63 96/126/62
f 97/127/63 96/126/62 84/112/63
f 86/115/64 97/127/63 84/112/63
f 97/127/63 86/115/64 98/128/65
f 99/129/66 98/128/65 86/115/64
f 86/115/64 21/29/67 99/129/66
f 99/129/66 21/29/67 100/130/49
f 19/26/68 100/130/49 21/29/67
f 100/130/49 19/26/68 101/131/68
f 16/132/69 17/23/70 88/118/71
f 16/132/69 88/118/71 102/133/72
f 29/134/73 16/132/69 102/133/72
f 102/133/72 103/135/74 29/134/73
f 104/136/75 29/134/73 103/135/74
f 20/137/76 29/134/73 104/136/75
f 20/137/76 104/136/75 101/131/77
f 20/137/76 101/131/77 19/26/78
f 26/37/20 25/36/19 105/138/79
f 85/139/80 105/138/79 25/36/19
f 85/139/80 106/140/81 105/138/79
f 82/141/82 106/140/81 85/139/80
f 106/140/81 82/141/82 107/142/82
f 80/143/83 107/142/82 82/141/82
f 107/142/82 80/143/83 108/144/84
f 78/145/85 108/144/84 80/143/83
f 78/145/85 109/146/85 108/144/84
f 109/146/85 78/145/85 110/147/86
f 76/148/87 110/147/86 78/145/85
f 110/147/86 76/148/87 111/149/88
f 74/150/88 111/149/88 76/148/87
f 111/149/88 74/150/88 112/151/89
f 73/152/89 112/151/89 74/150/88
f 112/151/89 73/152/89 113/153/90
f 71/154/91 113/153/90 73/152/89
f 68/94/92 113/153/90 71/154/91
f 68/94/92 69/95/92 113/153/90
f 114/155/93 69/156/94 15/19/95
f 69/156/94 114/155/93 113/157/96
f 114/155/93 115/158/97 113/157/96
f 112/159/97 113/157/96 115/158/97
f 115/158/97 111/160/98 112/159/97
f 111/160/98 115/158/97 116/161/98
f 116/161/98 110/162/99 111/160/98
f 110/162/99 116/161/98 117/163/99
f 117/163/99 109/164/100 110/162/99
f 109/164/100 117/163/99 118/165/101
f 118/165/101 108/166/102 109/164/100
f 108/166/102 118/165/101 119/167/102
f 119/167/102 107/168/103 108/166/102
f 107/168/103 119/167/102 120/169/103
f 121/170/104 107/168/103 120/169/103
f 107/168/103 121/170/104 106/171/105
f 105/138/106 106/171/105 121/170/104
f 121/170/104 122/172/107 105/138/106
f 122/172/107 26/37/108 105/138/106
f 26/37/108 122/172/107 24/96/108
f 123/173/109 14/17/109 124/174/110
f 123/173/109 15/19/111 14/17/109
f 15/19/111 123/173/109 125/175/112
f 114/155/113 15/19/111 125/175/112
f 125/175/112 126/176/113 114/155/113
f 126/176/113 115/158/114 114/155/113
f 115/158/114 126/176/113 127/177/114
f 127/177/114 128/178/115 115/158/114
f 116/161/116 115/158/114 128/178/115
f 129/179/117 116/161/116 128/178/115
f 117/163/117 116/161/116 129/179/117
f 130/180/118 117/163/117 129/179/117
f 117/163/117 130/180/118 118/165/119
f 131/181/120 118/165/119 130/180/118
f 118/165/119 131/181/120 119/167/120
f 132/182/121 119/167/120 131/181/120
f 119/167/120 132/182/121 120/169/121
f 121/170/122 120/169/121 132/182/121
f 132/182/121 133/183/123 121/170/122
f 122/172/124 121/170/122 133/183/123
f 133/183/123 134/184/125 122/172/124
f 135/185/126 122/172/124 134/184/125
f 122/172/124 135/185/126 24/96/127
f 135/185/126 136/186/109 24/96/127
f 24/96/127 136/186/109 11/14/128
f 11/14/128 136/186/109 137/187/128
f 13/188/129 124/174/130 14/17/131
f 13/188/129 138/189/132 124/174/130
f 13/188/129 33/190/133 138/189/132
f 138/189/132 33/190/133 139/191/133
f 33/190/133 140/192/134 139/191/133
f 33/190/133 12/15/135 140/192/134
f 12/15/135 137/187/136 140/192/134
f 12/15/135 11/14/137 137/187/136
f 27/38/29 23/32/138 22/31/27
f 27/38/29 26/37/139 23/32/138
f 23/32/138 26/37/139 24/35/140
f 43/66/141 103/135/141 102/133/142
f 104/136/143 103/135/141 43/66/141
f 43/66/141 102/133/142 41/64/144
f 104/136/143 43/66/141 45/68/145
f 102/133/142 88/118/146 41/64/144
f 104/136/143 45/68/145 101/131/147
f 41/64/144 88/118/146 39/62/148
f 45/68/145 47/70/149 101/131/147
f 88/118/146 87/117/150 39/62/148
f 100/130/151 101/131/147 47/70/149
f 37/60/152 39/62/148 87/117/150
f 49/72/153 100/130/151 47/70/149
f 87/117/150 89/119/152 37/60/152
f 99/129/153 100/130/151 49/72/153
f 34/57/154 37/60/152 89/119/152
f 50/73/155 99/129/153 49/72/153
f 89/119/152 90/120/154 34/57/154
f 98/128/155 99/129/153 50/73/155
f 91/121/156 34/57/154 90/120/154
f 50/73/155 97/127/157 98/128/155
f 34/57/154 91/121/156 35/58/158
f 97/127/157 50/73/155 48/71/157
f 92/122/159 35/58/158 91/121/156
f 48/71/157 96/126/160 97/127/157
f 35/58/158 92/122/159 38/61/159
f 96/126/160 48/71/157 46/69/161
f 92/122/159 40/63/162 38/61/159
f 44/67/163 96/126/160 46/69/161
f 40/63/162 92/122/159 93/123/162
f 95/125/163 96/126/160 44/67/163
f 93/123/162 42/65/164 40/63/162
f 42/65/164 95/125/163 44/67/163
f 42/65/164 93/123/162 94/124/164
f 94/124/164 95/125/163 42/65/164
f 139/191/165 60/83/166 138/189/167
f 60/83/166 139/191/165 140/192/168
f 60/83/166 58/81/169 138/189/167
f 140/192/168 62/85/170 60/83/166
f 124/174/171 138/189/167 58/81/169
f 140/192/168 137/187/172 62/85/170
f 58/81/169 56/79/173 124/174/171
f 64/87/174 62/85/170 137/187/172
f 124/174/171 56/79/173 123/173/175
f 64/87/174 137/187/172 136/186/176
f 54/77/177 123/173/175 56/79/173
f 136/186/176 66/89/178 64/87/174
f 123/173/175 54/77/177 125/175/179
f 66/89/178 136/186/176 135/185/180
f 54/77/177 51/74/181 125/175/179
f 135/185/180 67/90/182 66/89/178
f 126/176/181 125/175/179 51/74/181
f 67/90/182 135/185/180 134/184/182
f 51/74/181 127/177/183 126/176/181
f 133/183/184 67/90/182 134/184/182
f 127/177/183 51/74/181 53/76/185
f 67/90/182 133/183/184 65/88/186
f 53/76/185 128/178/187 127/177/183
f 132/182/188 65/88/186 133/183/184
f 128/178/187 53/76/185 55/78/187
f 65/88/186 132/182/188 63/86/189
f 57/80/190 128/178/187 55/78/187
f 132/182/188 61/84/191 63/86/189
f 129/179/190 128/178/187 57/80/190
f 61/84/191 132/182/188 131/181/192
f 59/82/193 129/179/190 57/80/190
f 131/181/192 59/82/193 61/84/191
f 130/180/193 129/179/190 59/82/193
f 59/82/193 131/181/192 130/180/193
