# Blender v2.78 (sub 0) OBJ File: ''
# www.blender.org
mtllib periscope_cover.mtl
o BuddyDroid_01_rig.038_BuddyDroid_01_rig.039
v -4.591297 42.539417 -7.282606
v -1.310573 42.539417 -7.333611
v -4.418517 42.539417 -7.333611
v -1.163146 42.539417 -7.293685
v -4.706284 42.539417 -7.151748
v -1.058240 42.539417 -7.188779
v -4.734632 42.539417 -6.973877
v -1.018314 42.539417 -7.041452
v -4.380887 42.539017 -4.246229
v -1.018314 42.539017 -4.248624
v -4.322894 42.538918 -4.097504
v -1.058240 42.538918 -4.101297
v -4.206010 42.538918 -3.994795
v -1.163146 42.538918 -3.996392
v -4.051097 42.538918 -3.956466
v -1.310573 42.538918 -3.956466
v -1.267752 42.337692 -7.382821
v -4.643800 42.337692 -7.330418
v -4.466029 42.337692 -7.382821
v -1.116133 42.337692 -7.341796
v -4.762081 42.337692 -7.195767
v -1.008233 42.337692 -7.233896
v -4.791227 42.337593 -7.012706
v -0.967109 42.337593 -7.082177
v -4.427201 42.337193 -4.205904
v -0.967109 42.337193 -4.208399
v -4.367611 42.337193 -4.052788
v -1.008233 42.337193 -4.056680
v -4.247334 42.337193 -3.947183
v -1.116133 42.337193 -3.948780
v -4.087830 42.337193 -3.907756
v -1.267752 42.337193 -3.907756
v -1.267752 42.488613 -7.382820
v -4.466029 42.488613 -7.382820
v -4.643800 42.488613 -7.330417
v -4.762081 42.488613 -7.195766
v -4.791227 42.488613 -7.012705
v -4.427201 42.488213 -4.205904
v -4.367611 42.488113 -4.052787
v -4.247334 42.488113 -3.947183
v -4.087830 42.488113 -3.907756
v -1.267752 42.488113 -3.907756
v -1.116133 42.488113 -3.948780
v -1.008233 42.488113 -4.056680
v -0.967109 42.488213 -4.208399
v -0.967109 42.488613 -7.082177
v -1.008233 42.488613 -7.233896
v -1.116133 42.488613 -7.341796
vt 0.2839 0.0786
vt 0.2421 0.0776
vt 0.2817 0.0781
vt 0.2402 0.0781
vt 0.2854 0.0801
vt 0.2389 0.0796
vt 0.2859 0.0825
vt 0.2384 0.0815
vt 0.2812 0.1172
vt 0.2382 0.1172
vt 0.2805 0.1191
vt 0.2386 0.1191
vt 0.2791 0.1206
vt 0.2400 0.1206
vt 0.2773 0.1211
vt 0.2416 0.1211
vt 0.2416 0.0771
vt 0.2847 0.0781
vt 0.2825 0.0771
vt 0.2396 0.0776
vt 0.2861 0.0796
vt 0.2383 0.0791
vt 0.2866 0.0820
vt 0.2377 0.0811
vt 0.2820 0.1182
vt 0.2375 0.1177
vt 0.2810 0.1201
vt 0.2380 0.1196
vt 0.2795 0.1211
vt 0.2394 0.1211
vt 0.2778 0.1216
vt 0.2411 0.1216
vt 0.2095 -0.0645
vt 0.2437 -0.0645
vt 0.2100 -0.0645
vt 0.2441 -0.0645
vt 0.2095 -0.0664
vt 0.2460 -0.0645
vt 0.2441 -0.0664
vt 0.2461 -0.0645
vt 0.2482 -0.0645
vt 0.2461 -0.0664
vt 0.2480 -0.0645
vt 0.2480 -0.0664
vt 0.2500 -0.0645
vt 0.2505 -0.0645
vt 0.2500 -0.0664
vt 0.2805 -0.0645
vt 0.2803 -0.0645
vt 0.2805 -0.0664
vt 0.2822 -0.0645
vt 0.2825 -0.0645
vt 0.2825 -0.0664
vt 0.2842 -0.0645
vt 0.2842 -0.0645
vt 0.2842 -0.0664
vt 0.2859 -0.0645
vt 0.2861 -0.0645
vt 0.2859 -0.0664
vt 0.3159 -0.0645
vt 0.3164 -0.0645
vt 0.3164 -0.0664
vt 0.3179 -0.0645
vt 0.3181 -0.0664
vt 0.3181 -0.0645
vt 0.3198 -0.0645
vt 0.3198 -0.0664
vt 0.3198 -0.0645
vt 0.3215 -0.0664
vt 0.3215 -0.0645
vt 0.3218 -0.0645
vt 0.3525 -0.0664
vt 0.3523 -0.0645
vt 0.3525 -0.0645
vt 0.3542 -0.0664
vt 0.3540 -0.0645
vt 0.3542 -0.0645
vt 0.3560 -0.0664
vt 0.3560 -0.0645
vt 0.3577 -0.0664
vt 0.3560 -0.0645
vt 0.3577 -0.0645
vt 0.3579 -0.0645
vn 0.0000 1.0000 0.0001
vn 0.0000 1.0000 0.0000
vn -0.0000 1.0000 0.0003
vn 0.0000 1.0000 -0.0001
vn -0.0000 -1.0000 -0.0004
vn 0.0000 -1.0000 -0.0000
vn -0.0000 -1.0000 -0.0005
vn -0.0000 -1.0000 -0.0003
vn -0.0000 -1.0000 -0.0001
vn 0.0000 -1.0000 0.0001
vn 0.1334 0.3923 -0.9101
vn -0.0629 0.7251 -0.6857
vn 0.0625 0.7211 -0.6900
vn -0.1421 0.3948 -0.9077
vn 0.1337 0.0000 -0.9910
vn -0.2985 0.8013 -0.5185
vn -0.1416 0.0000 -0.9899
vn -0.4965 0.4255 -0.7566
vn -0.5509 0.8027 -0.2283
vn -0.5364 0.0000 -0.8440
vn -0.8163 0.4239 -0.3924
vn -0.9053 -0.0000 -0.4247
vn -0.9152 0.4024 -0.0237
vn -0.6748 0.7376 0.0235
vn -0.9999 -0.0000 -0.0158
vn -0.8887 0.3932 0.2359
vn -0.6671 0.7299 0.1491
vn -0.9697 -0.0000 0.2444
vn -0.5277 0.7719 0.3544
vn -0.7460 0.4083 0.5261
vn -0.8186 -0.0000 0.5743
vn -0.4317 0.4002 0.8084
vn -0.2771 0.7677 0.5778
vn -0.4631 0.0000 0.8863
vn -0.1183 0.3864 0.9147
vn -0.0628 0.7135 0.6978
vn -0.1183 0.0000 0.9930
vn 0.0631 0.7175 0.6937
vn 0.1334 0.3923 0.9101
vn 0.1337 0.0000 0.9910
vn 0.2919 0.7809 0.5522
vn 0.5029 0.0000 0.8644
vn 0.4638 0.4088 0.7860
vn 0.5433 0.7874 0.2914
vn 0.8644 -0.0000 0.5029
vn 0.7836 0.4149 0.4623
vn 0.9910 0.0000 0.1336
vn 0.9088 0.3951 0.1344
vn 0.6776 0.7327 0.0631
vn 0.9910 0.0000 -0.1336
vn 0.6775 0.7328 -0.0631
vn 0.9088 0.3951 -0.1343
vn 0.8644 0.0000 -0.5028
vn 0.5433 0.7874 -0.2914
vn 0.7805 0.4178 -0.4651
vn 0.5029 0.0000 -0.8644
vn 0.4651 0.4178 -0.7805
vn 0.2901 0.7840 -0.5488
usemtl M_BD1_Head_Body
s 1
f 1/1/1 2/2/2 3/3/2
f 2/2/2 1/1/1 4/4/2
f 5/5/2 4/4/2 1/1/1
f 4/4/2 5/5/2 6/6/3
f 6/6/3 5/5/2 7/7/1
f 7/7/1 8/8/1 6/6/3
f 8/8/1 7/7/1 9/9/2
f 8/8/1 9/9/2 10/10/1
f 10/10/1 9/9/2 11/11/1
f 10/10/1 11/11/1 12/12/2
f 12/12/2 11/11/1 13/13/2
f 12/12/2 13/13/2 14/14/1
f 15/15/2 14/14/1 13/13/2
f 14/14/1 15/15/2 16/16/4
f 17/17/5 18/18/6 19/19/6
f 18/18/6 17/17/5 20/20/6
f 20/20/6 21/21/6 18/18/6
f 21/21/6 20/20/6 22/22/7
f 22/22/7 23/23/8 21/21/6
f 23/23/8 22/22/7 24/24/5
f 24/24/5 25/25/9 23/23/8
f 25/25/9 24/24/5 26/26/9
f 26/26/9 27/27/6 25/25/9
f 27/27/6 26/26/9 28/28/6
f 28/28/6 29/29/6 27/27/6
f 29/29/6 28/28/6 30/30/9
f 29/29/6 30/30/9 31/31/10
f 31/31/10 30/30/9 32/32/9
f 33/33/11 3/34/12 2/35/13
f 3/34/12 33/33/11 34/36/14
f 34/36/14 33/33/11 17/37/15
f 34/36/14 1/38/16 3/34/12
f 34/36/14 17/37/15 19/39/17
f 1/38/16 34/36/14 35/40/18
f 35/40/18 34/36/14 19/39/17
f 35/40/18 5/41/19 1/38/16
f 35/40/18 19/39/17 18/42/20
f 36/43/21 35/40/18 18/42/20
f 5/41/19 35/40/18 36/43/21
f 36/43/21 18/42/20 21/44/22
f 36/43/21 37/45/23 5/41/19
f 37/45/23 36/43/21 21/44/22
f 7/46/24 5/41/19 37/45/23
f 37/45/23 21/44/22 23/47/25
f 37/45/23 38/48/26 7/46/24
f 38/48/26 37/45/23 23/47/25
f 7/46/24 38/48/26 9/49/27
f 38/48/26 23/47/25 25/50/28
f 38/48/26 11/51/29 9/49/27
f 39/52/30 38/48/26 25/50/28
f 11/51/29 38/48/26 39/52/30
f 39/52/30 25/50/28 27/53/31
f 40/54/32 11/51/29 39/52/30
f 40/54/32 39/52/30 27/53/31
f 11/51/29 40/54/32 13/55/33
f 40/54/32 27/53/31 29/56/34
f 13/55/33 40/54/32 41/57/35
f 41/57/35 40/54/32 29/56/34
f 15/58/36 13/55/33 41/57/35
f 41/57/35 29/56/34 31/59/37
f 41/57/35 16/60/38 15/58/36
f 42/61/39 41/57/35 31/59/37
f 16/60/38 41/57/35 42/61/39
f 42/61/39 31/59/37 32/62/40
f 42/61/39 14/63/41 16/60/38
f 30/64/42 42/61/39 32/62/40
f 14/63/41 42/61/39 43/65/43
f 42/61/39 30/64/42 43/65/43
f 43/65/43 12/66/44 14/63/41
f 28/67/45 43/65/43 30/64/42
f 43/65/43 28/67/45 44/68/46
f 12/66/44 43/65/43 44/68/46
f 26/69/47 44/68/46 28/67/45
f 45/70/48 12/66/44 44/68/46
f 44/68/46 26/69/47 45/70/48
f 12/66/44 45/70/48 10/71/49
f 24/72/50 45/70/48 26/69/47
f 45/70/48 8/73/51 10/71/49
f 45/70/48 24/72/50 46/74/52
f 8/73/51 45/70/48 46/74/52
f 22/75/53 46/74/52 24/72/50
f 46/74/52 6/76/54 8/73/51
f 46/74/52 22/75/53 47/77/55
f 6/76/54 46/74/52 47/77/55
f 20/78/56 47/77/55 22/75/53
f 47/77/55 48/79/57 6/76/54
f 47/77/55 20/78/56 48/79/57
f 17/80/15 48/79/57 20/78/56
f 6/76/54 48/79/57 4/81/58
f 48/79/57 17/80/15 33/82/11
f 48/79/57 33/82/11 4/81/58
f 4/81/58 33/82/11 2/83/13
