# Blender v2.78 (sub 0) OBJ File: ''
# www.blender.org
mtllib radar_4.mtl
o BuddyDroid_01_rig.034_BuddyDroid_01_rig.035
v -3.669903 39.347530 -6.465320
v -3.765726 39.347530 -6.561741
v -3.664813 39.347530 -6.504847
v -3.796369 39.347530 -6.705575
v -3.497423 39.347530 -6.487180
v -3.503112 39.347530 -6.450448
v -3.382735 39.347530 -6.521416
v -3.322946 39.347530 -6.655867
v -3.353489 39.347530 -6.799701
v -3.736480 39.347530 -6.839926
v -3.462787 39.347530 -6.898118
v -3.609116 39.347530 -6.913490
v -3.609116 40.053223 -6.913490
v -3.353489 40.053223 -6.799700
v -3.462787 40.053223 -6.898118
v -3.736480 40.053223 -6.839926
v -3.322946 40.053223 -6.655867
v -3.796369 40.053223 -6.705575
v -3.497423 40.053223 -6.487179
v -3.382735 40.053223 -6.521416
v -3.503112 40.053223 -6.450447
v -3.664813 40.053223 -6.504847
v -3.765726 40.053223 -6.561741
v -3.669903 40.053223 -6.465320
v -3.173922 42.058010 -4.809486
v -3.130602 42.058010 -4.442666
v -3.002140 42.058010 -4.550366
v -3.412580 42.058010 -4.894928
v -3.316658 42.058010 -5.102743
v -3.496525 42.058010 -5.111926
v -3.413778 42.058010 -5.380229
v -3.580469 42.058010 -5.329024
v -3.500517 42.058010 -5.765316
v -3.670303 42.058010 -5.745553
v -3.698151 42.058010 -6.135830
v -3.521379 42.058010 -6.139523
v -3.506107 42.058010 -6.398843
v -3.672698 42.058010 -6.432381
v -2.946942 40.200348 -4.473009
v -3.076802 39.376774 -4.364111
v -2.947042 39.376575 -4.472910
v -3.076802 40.200348 -4.364111
v -3.497423 41.988338 -6.487179
v -3.664813 41.988338 -6.504847
v -3.095866 41.785812 -4.386869
v -3.095866 40.233688 -4.386869
v -2.966007 41.785812 -4.495767
v -2.966007 40.233688 -4.495767
v -3.064025 41.979454 -4.348839
v -2.934066 41.847401 -4.457737
v -2.934066 41.979454 -4.457737
v -3.064025 41.847401 -4.348839
v -3.664713 38.798347 -6.508340
v -3.497323 38.798347 -6.490773
v -2.966207 39.350124 -4.495668
v -3.095866 39.350323 -4.386869
v -3.165637 39.070343 -4.792718
v -3.412580 38.892071 -4.894928
v -3.325341 38.795750 -5.100747
v -3.456499 38.800041 -5.008318
v -3.698151 38.792255 -6.137627
v -3.670303 38.792854 -5.745653
v -3.580469 38.796551 -5.329024
v -3.521379 38.792255 -6.141320
v -3.500517 38.792854 -5.765316
v -3.413778 38.796551 -5.380229
vt 0.8384 0.7461
vt 0.8379 0.7324
vt 0.8354 0.7439
vt 0.8291 0.7205
vt 0.8252 0.7576
vt 0.8286 0.7596
vt 0.8149 0.7638
vt 0.8008 0.7593
vt 0.7925 0.7473
vt 0.8149 0.7161
vt 0.7925 0.7327
vt 0.8008 0.7205
vt 0.7124 0.7205
vt 0.7207 0.7473
vt 0.7207 0.7327
vt 0.6982 0.7161
vt 0.7124 0.7593
vt 0.6841 0.7205
vt 0.6880 0.7576
vt 0.6982 0.7638
vt 0.6846 0.7596
vt 0.6777 0.7439
vt 0.6753 0.7324
vt 0.6748 0.7461
vt 0.6479 0.0176
vt 0.6836 0.0210
vt 0.6763 0.0068
vt 0.6353 0.0386
vt 0.6172 0.0254
vt 0.6128 0.0420
vt 0.5894 0.0288
vt 0.5898 0.0454
vt 0.5508 0.0293
vt 0.5498 0.0454
vt 0.5117 0.0400
vt 0.5151 0.0234
vt 0.4910 0.0166
vt 0.4844 0.0317
vt 0.7061 0.9769
vt 0.7891 0.9940
vt 0.7896 0.9769
vt 0.7061 0.9940
vt 0.4827 0.0142
vt 0.4775 0.0293
vt 0.4785 0.0527
vt 0.4910 0.2515
vt 0.4910 0.0527
vt 0.4785 0.2515
vt 0.4756 0.2515
vt 0.4719 0.0454
vt 0.5459 0.9950
vt 0.7026 0.9940
vt 0.5459 0.9779
vt 0.7026 0.9769
vt 0.5264 0.9960
vt 0.5396 0.9789
vt 0.5264 0.9789
vt 0.5396 0.9960
vt 0.6860 0.0020
vt 0.6938 0.0166
vt 0.4907 0.3809
vt 0.4910 0.3242
vt 0.4785 0.3242
vt 0.4783 0.3804
vt 0.6851 0.4224
vt 0.6924 0.4077
vt 0.6826 0.4209
vt 0.6899 0.4067
vt 0.6499 0.4087
vt 0.6353 0.3877
vt 0.6177 0.3999
vt 0.6235 0.3857
vt 0.4939 0.3242
vt 0.5181 0.3813
vt 0.4939 0.2515
vt 0.4963 0.0454
vt 0.5181 0.0454
vt 0.5498 0.3813
vt 0.5898 0.3809
vt 0.6118 0.0454
vt 0.6226 0.3804
vt 0.6348 0.3711
vt 0.6348 0.0454
vt 0.6953 0.2329
vt 0.6953 0.3237
vt 0.6987 0.2363
vt 0.6987 0.3213
vt 0.6953 0.0737
vt 0.6890 0.0454
vt 0.7007 0.0674
vt 0.7007 0.0537
vt 0.7925 0.7737
vt 0.7207 0.7876
vt 0.7925 0.7876
vt 0.7207 0.7737
vt 0.7925 0.7604
vt 0.7207 0.7604
vt 0.7925 0.7219
vt 0.7207 0.7219
vt 0.7925 0.7073
vt 0.7207 0.7073
vt 0.7925 0.6938
vt 0.7207 0.6938
vt 0.7925 0.6807
vt 0.7207 0.6807
vt 0.7925 0.6670
vt 0.7207 0.6670
vt 0.5151 0.4038
vt 0.4775 0.3979
vt 0.4827 0.4136
vt 0.5117 0.3872
vt 0.5513 0.3979
vt 0.5894 0.3979
vt 0.5181 0.9673
vt 0.5459 0.9738
vt 0.5181 0.9361
vt 0.7026 0.9738
vt 0.8203 0.9379
vt 0.5181 0.9041
vt 0.7920 0.9738
vt 0.8481 0.9037
vt 0.8481 0.8763
vt 0.5181 0.8763
vt 0.5181 0.8408
vt 0.8481 0.8408
vt 0.5181 0.8105
vt 0.8481 0.8104
vt 0.5181 0.7915
vt 0.8477 0.7849
vt 0.7925 0.7848
vn 0.0000 -1.0000 0.0000
vn 0.0000 -1.0000 0.0001
vn 0.0000 1.0000 0.0000
vn 0.0000 1.0000 -0.0001
vn 0.6456 0.0000 0.7637
vn 0.1024 0.7564 -0.6461
vn 0.1027 0.0000 -0.9947
vn 0.1028 0.0000 -0.9947
vn 0.9939 -0.0000 0.1104
vn 0.9969 -0.0000 0.0785
vn 0.3618 0.8258 0.4326
vn 0.3619 0.8258 0.4326
vn 0.5016 -0.6272 0.5958
vn 0.5017 -0.6271 0.5959
vn 0.5018 -0.6271 0.5958
vn 0.4783 0.6662 0.5722
vn 0.4782 0.6663 0.5722
vn 0.4782 0.6664 0.5721
vn 0.4781 0.6663 0.5723
vn 0.1026 0.0079 -0.9947
vn 0.4247 -0.7472 0.5112
vn 0.4246 -0.7472 0.5113
vn 0.4010 -0.7706 0.4954
vn 0.3777 -0.7870 0.4879
vn 0.3530 -0.7845 0.5099
vn 0.3461 -0.7866 0.5113
vn -0.9920 -0.0000 -0.1260
vn -0.9955 -0.0000 -0.0948
vn -0.9947 0.0000 -0.1026
vn -1.0000 0.0000 -0.0079
vn -0.9930 0.0000 -0.1182
vn -1.0000 0.0000 -0.0078
vn -0.9900 -0.0000 0.1410
vn -0.9900 -0.0000 0.1414
vn -0.9591 0.0000 0.2830
vn -0.9317 0.0000 0.3632
vn -0.9125 -0.0000 0.4090
vn -0.8944 -0.0000 0.4473
vn -0.8344 -0.0000 0.5511
vn -0.8284 -0.0000 0.5602
vn -0.7637 0.0000 0.6456
vn -0.8381 -0.0000 0.5455
vn -0.8344 0.0078 0.5510
vn -0.8018 0.0157 0.5974
vn 0.7453 -0.0000 0.6667
vn 0.5122 -0.0000 0.8589
vn 0.9947 -0.0000 0.1026
vn 0.9947 -0.0000 0.1028
vn 0.8678 -0.0000 -0.4970
vn 0.4091 0.0000 -0.9125
vn -0.2054 0.0000 -0.9787
vn -0.7417 0.0000 -0.6707
vn -0.9947 -0.0000 -0.1027
vn -0.8815 -0.0000 0.4722
vn -0.7071 -0.0000 0.7071
vn 0.0001 -1.0000 -0.0077
vn 0.0000 -0.9999 -0.0157
vn -0.0000 -1.0000 -0.0077
vn 0.0000 -1.0000 0.0078
vn -0.0000 -1.0000 0.0079
vn -0.0079 -0.9999 0.0079
vn 0.7953 -0.0079 -0.6062
vn 0.8222 -0.0000 -0.5692
vn 0.7952 -0.0079 -0.6063
vn 0.8247 0.0000 -0.5655
vn 0.8643 0.0000 -0.5029
vn 0.8185 0.0000 -0.5745
vn 0.8764 0.0000 -0.4816
vn 0.9223 0.0000 -0.3864
vn 0.8121 -0.0000 -0.5835
vn 0.7637 0.0000 -0.6456
vn 0.9317 0.0000 -0.3632
vn 0.9633 0.0000 -0.2685
vn 0.9633 0.0000 -0.2684
vn 0.9900 -0.0000 -0.1414
vn 1.0000 0.0000 -0.0000
vn 1.0000 -0.0000 0.0079
vn 0.9962 0.0000 0.0870
vn 0.9975 0.0079 0.0707
vn 0.9888 0.0000 0.1491
usemtl M_BD1_Radar
s 1
f 1/1/1 2/2/1 3/3/1
f 4/4/1 3/3/1 2/2/1
f 4/4/1 5/5/1 3/3/1
f 6/6/1 5/5/1 7/7/1
f 7/7/1 5/5/1 8/8/1
f 5/5/1 4/4/1 8/8/1
f 8/8/1 4/4/1 9/9/1
f 10/10/1 9/9/1 4/4/1
f 9/9/1 10/10/1 11/11/2
f 11/11/2 10/10/1 12/12/1
f 13/13/3 14/14/3 15/15/3
f 16/16/3 14/14/3 13/13/3
f 16/16/3 17/17/3 14/14/3
f 17/17/3 16/16/3 18/18/3
f 17/17/3 18/18/3 19/19/3
f 17/17/3 19/19/3 20/20/4
f 19/19/3 21/21/3 20/20/4
f 19/19/3 18/18/3 22/22/3
f 23/23/3 22/22/3 18/18/3
f 24/24/3 22/22/3 23/23/3
f 25/25/3 26/26/3 27/27/3
f 26/26/3 25/25/3 28/28/3
f 29/29/3 28/28/3 25/25/3
f 30/30/3 28/28/3 29/29/3
f 30/30/3 29/29/3 31/31/3
f 32/32/3 30/30/3 31/31/3
f 33/33/3 32/32/3 31/31/3
f 32/32/3 33/33/3 34/34/3
f 35/35/3 34/34/3 33/33/3
f 33/33/3 36/36/3 35/35/3
f 37/37/3 35/35/3 36/36/3
f 35/35/3 37/37/3 38/38/3
f 39/39/5 40/40/5 41/41/5
f 40/40/5 39/39/5 42/42/5
f 43/43/6 38/38/6 37/37/6
f 38/38/6 43/43/6 44/44/6
f 43/45/7 22/46/7 44/47/7
f 22/46/7 43/45/7 19/48/8
f 43/45/9 21/49/10 19/48/9
f 21/49/10 43/45/9 37/50/10
f 45/51/5 46/52/5 47/53/5
f 47/53/5 46/52/5 48/54/5
f 49/55/5 50/56/5 51/57/5
f 50/56/5 49/55/5 52/58/5
f 51/59/11 26/26/12 49/60/11
f 26/26/12 51/59/11 27/27/11
f 50/56/13 52/58/14 47/53/13
f 47/53/13 52/58/14 45/51/15
f 39/39/16 46/52/17 42/42/18
f 46/52/17 39/39/16 48/54/19
f 53/61/20 3/62/20 5/63/20
f 5/63/20 54/64/20 53/61/20
f 41/65/21 40/66/22 55/67/23
f 55/67/23 40/66/22 56/68/23
f 56/68/23 57/69/24 55/67/23
f 57/69/24 56/68/23 58/70/25
f 58/70/25 59/71/26 57/69/24
f 59/71/26 58/70/25 60/72/26
f 3/62/27 53/61/28 1/73/29
f 1/73/29 53/61/28 61/74/30
f 61/74/30 24/75/28 1/73/29
f 24/75/28 44/47/31 22/46/31
f 24/75/28 38/76/28 44/47/31
f 24/75/28 35/77/32 38/76/28
f 61/74/30 35/77/32 24/75/28
f 62/78/33 35/77/32 61/74/30
f 35/77/32 62/78/33 34/34/34
f 63/79/35 34/34/34 62/78/33
f 34/34/34 63/79/35 32/32/35
f 63/79/35 30/80/36 32/32/35
f 30/80/36 63/79/35 60/81/36
f 58/82/37 30/80/36 60/81/36
f 30/80/36 58/82/37 28/83/38
f 28/83/38 58/82/37 46/84/39
f 46/84/39 58/82/37 56/85/40
f 46/84/39 56/85/40 42/86/41
f 42/86/41 56/85/40 40/87/41
f 28/83/38 46/84/39 45/88/42
f 28/83/38 45/88/42 26/89/43
f 52/90/44 26/89/43 45/88/42
f 26/89/43 52/90/44 49/91/44
f 7/92/45 21/93/46 6/94/46
f 21/93/46 7/92/45 20/95/45
f 8/96/47 20/95/45 7/92/45
f 20/95/45 8/96/47 17/97/48
f 9/9/49 17/97/48 8/96/47
f 17/97/48 9/9/49 14/14/49
f 11/11/50 14/14/49 9/9/49
f 14/14/49 11/11/50 15/15/50
f 12/98/51 15/15/50 11/11/50
f 15/15/50 12/98/51 13/99/51
f 10/100/52 13/99/51 12/98/51
f 13/99/51 10/100/52 16/101/52
f 4/102/53 16/101/52 10/100/52
f 16/101/52 4/102/53 18/103/29
f 2/104/54 18/103/29 4/102/53
f 18/103/29 2/104/54 23/105/54
f 1/106/55 23/105/54 2/104/54
f 23/105/54 1/106/55 24/107/55
f 64/108/56 53/109/57 54/110/57
f 53/109/57 64/108/56 61/111/58
f 65/112/59 61/111/58 64/108/56
f 61/111/58 65/112/59 62/78/60
f 65/112/59 63/79/61 62/78/60
f 63/79/61 65/112/59 66/113/61
f 59/71/61 63/79/61 66/113/61
f 63/79/61 59/71/61 60/72/61
f 50/56/62 27/114/63 51/57/64
f 47/115/65 27/114/63 50/56/62
f 47/115/65 25/116/66 27/114/63
f 48/117/67 25/116/66 47/115/65
f 57/118/68 25/116/66 48/117/67
f 57/118/68 29/119/69 25/116/66
f 57/118/68 48/117/67 55/120/70
f 39/39/71 55/120/70 48/117/67
f 55/120/70 39/39/71 41/41/71
f 59/121/72 29/119/69 57/118/68
f 66/122/73 29/119/69 59/121/72
f 29/119/69 66/122/73 31/123/74
f 66/122/73 33/124/75 31/123/74
f 33/124/75 66/122/73 65/125/75
f 33/124/75 65/125/75 36/126/76
f 36/126/76 65/125/75 64/127/77
f 21/93/10 37/128/10 36/126/76
f 36/126/76 64/127/77 21/93/10
f 21/93/10 64/127/77 6/94/78
f 64/127/77 54/129/79 6/94/78
f 6/94/78 54/129/79 5/130/80
