# Blender v2.78 (sub 0) OBJ File: ''
# www.blender.org
mtllib radar_1.mtl
o BuddyDroid_01_rig.031_BuddyDroid_01_rig.032
v -2.096817 40.053223 -6.472406
v -2.000994 40.053223 -6.568728
v -2.102007 40.053223 -6.511834
v -1.970451 40.053223 -6.712662
v -2.269297 40.053223 -6.494266
v -2.383985 40.053223 -6.528502
v -2.263708 40.053223 -6.457534
v -2.443874 40.053223 -6.662854
v -2.030240 40.053223 -6.847013
v -2.413231 40.053223 -6.806787
v -2.303933 40.053223 -6.905205
v -2.157704 40.053223 -6.920577
v -2.096817 39.347530 -6.472407
v -2.102007 39.347530 -6.511834
v -2.000994 39.347530 -6.568728
v -1.970451 39.347530 -6.712662
v -2.269297 39.347530 -6.494267
v -2.263708 39.347530 -6.457534
v -2.383985 39.347530 -6.528503
v -2.443874 39.347530 -6.662854
v -2.413231 39.347530 -6.806787
v -2.030240 39.347530 -6.847013
v -2.303933 39.347530 -6.905205
v -2.157704 39.347530 -6.920577
v -2.636118 42.058010 -4.449653
v -2.592798 42.058010 -4.816573
v -2.764580 42.058010 -4.557353
v -2.354140 42.058010 -4.902015
v -2.450162 42.058010 -5.109730
v -2.270196 42.058010 -5.119013
v -2.352942 42.058010 -5.387216
v -2.186351 42.058010 -5.336011
v -2.266303 42.058010 -5.772303
v -2.096417 42.058010 -5.752639
v -2.068569 42.058010 -6.142817
v -2.245342 42.058010 -6.146610
v -2.260613 42.058010 -6.405830
v -2.094022 42.058010 -6.439368
v -2.819878 40.200348 -4.479996
v -2.690018 39.376774 -4.371099
v -2.690018 40.200348 -4.371098
v -2.819678 39.376575 -4.479897
v -2.269297 41.988239 -6.494266
v -2.102007 41.988239 -6.511834
v -2.670854 41.785812 -4.393956
v -2.800713 40.233688 -4.502854
v -2.670854 40.233688 -4.393956
v -2.800713 41.785812 -4.502854
v -2.832654 41.979454 -4.464725
v -2.832654 41.847401 -4.464725
v -2.702795 41.979454 -4.355926
v -2.702795 41.847401 -4.355926
v -2.102107 38.798347 -6.515427
v -2.269397 38.798347 -6.497760
v -2.245441 38.792255 -6.148307
v -2.068669 38.792255 -6.144614
v -2.266303 38.792854 -5.772304
v -2.096417 38.792854 -5.752640
v -2.186351 38.796551 -5.336011
v -2.352942 38.796551 -5.387217
v -2.441379 38.795750 -5.107834
v -2.310221 38.800041 -5.015306
v -2.354140 38.892071 -4.902015
v -2.601083 39.070343 -4.799705
v -2.670854 39.350323 -4.393956
v -2.800613 39.350124 -4.502755
vt 0.6748 0.7461
vt 0.6753 0.7324
vt 0.6777 0.7439
vt 0.6841 0.7205
vt 0.6880 0.7576
vt 0.6982 0.7638
vt 0.6846 0.7596
vt 0.7124 0.7593
vt 0.6982 0.7161
vt 0.7207 0.7473
vt 0.7207 0.7327
vt 0.7124 0.7205
vt 0.8384 0.7461
vt 0.8354 0.7439
vt 0.8379 0.7324
vt 0.8291 0.7205
vt 0.8252 0.7576
vt 0.8286 0.7596
vt 0.8149 0.7638
vt 0.8008 0.7593
vt 0.7925 0.7473
vt 0.8149 0.7161
vt 0.7925 0.7327
vt 0.8008 0.7205
vt 0.6836 0.0210
vt 0.6479 0.0176
vt 0.6763 0.0068
vt 0.6353 0.0386
vt 0.6172 0.0254
vt 0.6128 0.0420
vt 0.5894 0.0288
vt 0.5898 0.0454
vt 0.5508 0.0293
vt 0.5498 0.0454
vt 0.5117 0.0400
vt 0.5151 0.0234
vt 0.4910 0.0166
vt 0.4844 0.0317
vt 0.7061 0.9769
vt 0.7891 0.9940
vt 0.7061 0.9940
vt 0.7896 0.9769
vt 0.4827 0.0142
vt 0.4775 0.0293
vt 0.4910 0.0527
vt 0.4785 0.2515
vt 0.4785 0.0527
vt 0.4910 0.2515
vt 0.4756 0.2515
vt 0.4719 0.0454
vt 0.5459 0.9950
vt 0.7026 0.9769
vt 0.7026 0.9940
vt 0.5459 0.9779
vt 0.5264 0.9789
vt 0.5396 0.9789
vt 0.5264 0.9960
vt 0.5396 0.9960
vt 0.6860 0.0020
vt 0.6938 0.0166
vt 0.4910 0.3242
vt 0.4907 0.3809
vt 0.4785 0.3242
vt 0.4783 0.3804
vt 0.7207 0.6670
vt 0.7925 0.6670
vt 0.7207 0.6807
vt 0.7925 0.6807
vt 0.7207 0.6938
vt 0.7925 0.6938
vt 0.7207 0.7073
vt 0.7925 0.7073
vt 0.7925 0.7219
vt 0.7207 0.7219
vt 0.7207 0.7604
vt 0.7925 0.7604
vt 0.7207 0.7737
vt 0.7925 0.7737
vt 0.7207 0.7876
vt 0.7925 0.7876
vt 0.4775 0.3979
vt 0.5151 0.4038
vt 0.4827 0.4136
vt 0.5117 0.3872
vt 0.5513 0.3979
vt 0.5498 0.3813
vt 0.5898 0.3809
vt 0.5894 0.3979
vt 0.6177 0.3999
vt 0.6235 0.3857
vt 0.6353 0.3877
vt 0.6499 0.4087
vt 0.6899 0.4067
vt 0.6826 0.4209
vt 0.6924 0.4077
vt 0.6851 0.4224
vt 0.5181 0.9673
vt 0.5459 0.9738
vt 0.5181 0.9361
vt 0.7026 0.9738
vt 0.8203 0.9379
vt 0.5181 0.9041
vt 0.7920 0.9738
vt 0.8481 0.9037
vt 0.8481 0.8763
vt 0.5181 0.8763
vt 0.5181 0.8408
vt 0.8481 0.8408
vt 0.5181 0.8105
vt 0.8481 0.8104
vt 0.5181 0.7915
vt 0.8477 0.7849
vt 0.7925 0.7848
vt 0.7007 0.0674
vt 0.6890 0.0454
vt 0.7007 0.0537
vt 0.6953 0.0737
vt 0.6348 0.0454
vt 0.6953 0.2329
vt 0.6348 0.3711
vt 0.6118 0.0454
vt 0.6953 0.3237
vt 0.6987 0.2363
vt 0.6987 0.3213
vt 0.6226 0.3804
vt 0.5181 0.0454
vt 0.5181 0.3813
vt 0.4939 0.2515
vt 0.4963 0.0454
vt 0.4939 0.3242
vn 0.0000 1.0000 0.0000
vn 0.0000 1.0000 0.0001
vn 0.0000 -1.0000 0.0001
vn 0.0000 -1.0000 0.0000
vn -0.6456 -0.0000 0.7637
vn -0.1024 0.7564 -0.6461
vn -0.1028 -0.0000 -0.9947
vn -0.1027 0.0000 -0.9947
vn -0.9939 -0.0000 0.1104
vn -0.9969 0.0000 0.0785
vn -0.3618 0.8258 0.4326
vn -0.3619 0.8258 0.4326
vn -0.3619 0.8258 0.4325
vn -0.5016 -0.6272 0.5958
vn -0.5017 -0.6271 0.5958
vn -0.5017 -0.6272 0.5958
vn -0.4781 0.6663 0.5722
vn -0.4782 0.6662 0.5723
vn -0.4782 0.6662 0.5722
vn -0.1027 0.0078 -0.9947
vn -0.1026 0.0079 -0.9947
vn -0.1028 0.0078 -0.9947
vn 0.7071 -0.0000 0.7071
vn 0.8815 -0.0000 0.4722
vn 0.9947 -0.0000 -0.1026
vn 0.9947 0.0000 -0.1027
vn 0.7417 0.0000 -0.6708
vn 0.7417 0.0000 -0.6707
vn 0.2052 0.0000 -0.9787
vn -0.4091 0.0000 -0.9125
vn -0.8644 0.0000 -0.5029
vn -0.8643 0.0000 -0.5029
vn -0.9947 0.0000 0.1026
vn -0.9947 -0.0000 0.1027
vn -0.7453 -0.0000 0.6667
vn -0.7452 -0.0000 0.6668
vn -0.5121 -0.0000 0.8589
vn -0.5122 -0.0000 0.8589
vn -0.0000 -0.9999 -0.0157
vn -0.0001 -1.0000 -0.0077
vn 0.0000 -1.0000 -0.0076
vn 0.0000 -1.0000 0.0078
vn 0.0000 -1.0000 0.0079
vn 0.0079 -0.9999 0.0079
vn -0.3461 -0.7866 0.5113
vn -0.3530 -0.7845 0.5098
vn -0.3776 -0.7870 0.4879
vn -0.4010 -0.7705 0.4954
vn -0.4010 -0.7706 0.4953
vn -0.4247 -0.7471 0.5113
vn -0.4248 -0.7472 0.5111
vn -0.8222 0.0000 -0.5692
vn -0.7952 -0.0079 -0.6063
vn -0.8247 -0.0000 -0.5655
vn -0.8185 -0.0000 -0.5745
vn -0.8764 -0.0000 -0.4816
vn -0.9224 -0.0000 -0.3862
vn -0.8121 0.0000 -0.5835
vn -0.7637 -0.0000 -0.6456
vn -0.9317 -0.0000 -0.3632
vn -0.9633 -0.0000 -0.2685
vn -0.9633 0.0000 -0.2684
vn -0.9900 0.0000 -0.1414
vn -0.9900 0.0000 -0.1413
vn -1.0000 0.0000 -0.0000
vn -1.0000 -0.0000 0.0079
vn -0.9962 0.0000 0.0871
vn -0.9975 0.0079 0.0707
vn -0.9888 0.0000 0.1490
vn 0.8018 0.0157 0.5974
vn 0.8345 0.0079 0.5510
vn 0.8380 0.0000 0.5456
vn 0.8946 -0.0000 0.4469
vn 0.8344 -0.0000 0.5512
vn 0.9125 -0.0000 0.4091
vn 0.9317 0.0000 0.3632
vn 0.8284 -0.0000 0.5602
vn 0.7637 -0.0000 0.6455
vn 0.7637 -0.0000 0.6456
vn 0.9591 -0.0000 0.2830
vn 0.9899 0.0000 0.1414
vn 0.9900 -0.0000 0.1410
vn 1.0000 -0.0000 -0.0080
vn 1.0000 -0.0001 -0.0079
vn 0.9955 0.0000 -0.0948
vn 0.9955 0.0000 -0.0947
vn 0.9930 -0.0000 -0.1182
vn 0.9920 -0.0000 -0.1259
usemtl M_BD1_Radar
s 1
f 1/1/1 2/2/1 3/3/1
f 2/2/1 4/4/1 3/3/1
f 4/4/1 5/5/1 3/3/1
f 5/5/1 6/6/2 7/7/1
f 8/8/1 6/6/2 5/5/1
f 4/4/1 8/8/1 5/5/1
f 8/8/1 4/4/1 9/9/1
f 8/8/1 9/9/1 10/10/1
f 9/9/1 11/11/1 10/10/1
f 11/11/1 9/9/1 12/12/2
f 13/13/3 14/14/4 15/15/4
f 16/16/4 15/15/4 14/14/4
f 17/17/4 16/16/4 14/14/4
f 18/18/4 19/19/4 17/17/4
f 19/19/4 20/20/4 17/17/4
f 16/16/4 17/17/4 20/20/4
f 21/21/4 16/16/4 20/20/4
f 21/21/4 22/22/4 16/16/4
f 23/23/4 22/22/4 21/21/4
f 22/22/4 23/23/4 24/24/4
f 25/25/1 26/26/1 27/27/1
f 26/26/1 25/25/1 28/28/1
f 28/28/1 29/29/1 26/26/1
f 29/29/1 28/28/1 30/30/1
f 30/30/1 31/31/1 29/29/1
f 31/31/1 30/30/1 32/32/1
f 32/32/1 33/33/1 31/31/1
f 33/33/1 32/32/1 34/34/1
f 34/34/1 35/35/1 33/33/1
f 33/33/1 35/35/1 36/36/1
f 35/35/1 37/37/1 36/36/1
f 37/37/1 35/35/1 38/38/1
f 39/39/5 40/40/5 41/41/5
f 40/40/5 39/39/5 42/42/5
f 38/38/6 43/43/6 37/37/6
f 43/43/6 38/38/6 44/44/6
f 44/45/7 5/46/7 43/47/8
f 5/46/7 44/45/7 3/48/8
f 43/47/9 7/49/10 37/50/10
f 7/49/10 43/47/9 5/46/9
f 45/51/5 46/52/5 47/53/5
f 46/52/5 45/51/5 48/54/5
f 49/55/5 50/56/5 51/57/5
f 51/57/5 50/56/5 52/58/5
f 49/59/11 25/25/12 27/27/11
f 25/25/12 49/59/11 51/60/13
f 50/56/14 45/51/14 52/58/15
f 45/51/14 50/56/14 48/54/16
f 39/39/17 47/53/18 46/52/19
f 47/53/18 39/39/17 41/41/18
f 14/61/20 53/62/21 17/63/22
f 17/63/22 53/62/21 54/64/20
f 1/65/23 13/66/23 2/67/24
f 2/67/24 13/66/23 15/68/24
f 2/67/24 15/68/24 4/69/25
f 4/69/25 15/68/24 16/70/26
f 4/69/25 16/70/26 9/71/27
f 9/71/27 16/70/26 22/72/28
f 24/73/29 9/71/27 22/72/28
f 9/71/27 24/73/29 12/74/29
f 12/74/29 24/73/29 11/11/30
f 11/11/30 24/73/29 23/23/30
f 11/11/30 23/23/30 10/10/31
f 10/10/31 23/23/30 21/21/32
f 10/10/31 21/21/32 8/75/33
f 8/75/33 21/21/32 20/76/34
f 8/75/33 20/76/34 6/77/35
f 6/77/35 20/76/34 19/78/36
f 6/77/35 19/78/36 7/79/37
f 7/79/37 19/78/36 18/80/38
f 53/81/39 55/82/40 54/83/39
f 55/82/40 53/81/39 56/84/41
f 56/84/41 57/85/42 55/82/40
f 57/85/42 56/84/41 58/86/43
f 59/87/44 57/85/42 58/86/43
f 57/85/42 59/87/44 60/88/44
f 59/87/44 61/89/44 60/88/44
f 61/89/44 59/87/44 62/90/44
f 62/90/45 63/91/46 61/89/45
f 63/91/46 64/92/47 61/89/45
f 65/93/48 64/92/47 63/91/46
f 64/92/47 65/93/48 66/94/49
f 40/95/50 66/94/49 65/93/48
f 66/94/49 40/95/50 42/96/51
f 27/97/52 50/56/53 49/55/53
f 27/97/52 48/98/54 50/56/53
f 26/99/32 48/98/54 27/97/52
f 26/99/32 46/100/55 48/98/54
f 26/99/32 64/101/56 46/100/55
f 29/102/57 64/101/56 26/99/32
f 46/100/55 64/101/56 66/103/58
f 66/103/58 39/39/59 46/100/55
f 39/39/59 66/103/58 42/42/59
f 29/102/57 61/104/60 64/101/56
f 29/102/57 60/105/61 61/104/60
f 60/105/61 29/102/57 31/106/62
f 33/107/63 60/105/61 31/106/62
f 60/105/61 33/107/63 57/108/64
f 36/109/65 57/108/64 33/107/63
f 57/108/64 36/109/65 55/110/66
f 7/79/10 36/109/65 37/111/10
f 55/110/66 36/109/65 7/79/10
f 55/110/66 7/79/10 18/80/67
f 55/110/66 18/80/67 54/112/68
f 18/80/67 17/113/69 54/112/68
f 52/114/70 25/115/71 51/116/70
f 25/115/71 52/114/70 45/117/72
f 45/117/72 28/118/73 25/115/71
f 47/119/74 28/118/73 45/117/72
f 63/120/75 28/118/73 47/119/74
f 63/120/75 30/121/76 28/118/73
f 63/120/75 47/119/74 65/122/77
f 65/122/77 47/119/74 41/123/78
f 65/122/77 41/123/78 40/124/79
f 30/121/76 63/120/75 62/125/76
f 59/87/80 30/121/76 62/125/76
f 30/121/76 59/87/80 32/32/80
f 32/32/80 59/87/80 34/34/81
f 34/34/81 59/87/80 58/86/82
f 34/34/81 58/86/82 35/126/83
f 35/126/83 58/86/82 56/127/84
f 35/126/83 56/127/84 1/128/85
f 1/128/85 38/129/86 35/126/83
f 38/129/86 1/128/85 44/45/87
f 44/45/87 1/128/85 3/48/87
f 1/128/85 56/127/84 13/130/25
f 13/130/25 56/127/84 53/62/85
f 14/61/88 13/130/25 53/62/85
