# Blender v2.78 (sub 0) OBJ File: ''
# www.blender.org
mtllib right_antenna_3.mtl
o BuddyDroid_01_rig.023_BuddyDroid_01_rig.024
v -9.917732 47.905483 -18.907576
v -9.864231 44.397282 -14.851388
v -9.895473 44.325512 -14.915270
v -9.891781 47.965073 -18.854374
v -9.985806 47.868553 -18.940414
v -9.977222 44.281197 -14.954796
v -10.069851 47.868553 -18.940414
v -10.078335 44.281197 -14.954796
v -10.160084 44.325512 -14.915270
v -10.137825 47.905483 -18.907576
v -10.191326 44.397282 -14.851388
v -10.163776 47.965073 -18.854374
v -10.160084 44.469048 -14.787406
v -10.137825 48.024761 -18.801172
v -10.078335 44.513367 -14.747879
v -10.069851 48.061695 -18.768333
v -9.985806 48.061695 -18.768333
v -9.977222 44.513367 -14.747879
v -9.895473 44.469048 -14.787406
v -9.917732 48.024761 -18.801172
v -10.027828 47.965073 -18.854374
vt 0.7100 0.2476
vt 0.7109 0.3169
vt 0.7100 0.3169
vt 0.7109 0.2476
vt 0.7090 0.2476
vt 0.7090 0.3169
vt 0.7075 0.2476
vt 0.7075 0.3169
vt 0.7061 0.3169
vt 0.7065 0.2476
vt 0.7173 0.3169
vt 0.7178 0.2476
vt 0.7188 0.3164
vt 0.7168 0.2476
vt 0.7163 0.3169
vt 0.7158 0.2476
vt 0.7148 0.3169
vt 0.7148 0.2476
vt 0.7134 0.2476
vt 0.7134 0.3169
vt 0.7124 0.3169
vt 0.7124 0.2476
vt 0.7114 0.2476
vt 0.6597 0.3125
vt 0.6597 0.3149
vt 0.6562 0.3140
vt 0.6582 0.3105
vt 0.6582 0.3169
vt 0.6562 0.3101
vt 0.6558 0.3174
vt 0.6538 0.3105
vt 0.6538 0.3169
vt 0.6523 0.3125
vt 0.6523 0.3149
vn 0.9503 -0.2278 -0.2121
vn 0.9504 -0.2278 -0.2120
vn 0.5900 -0.5978 -0.5428
vn 0.5899 -0.5978 -0.5428
vn -0.0000 -0.7417 -0.6707
vn -0.5899 -0.5978 -0.5428
vn -0.5900 -0.5978 -0.5427
vn -0.9504 -0.2277 -0.2119
vn -0.9503 -0.2278 -0.2120
vn -0.9504 -0.2277 -0.2120
vn -0.9503 -0.2278 -0.2121
vn -0.9502 0.2356 0.2042
vn -0.9502 0.2356 0.2041
vn -0.5896 0.6054 0.5346
vn -0.5897 0.6054 0.5346
vn -0.0000 0.7491 0.6624
vn 0.0000 0.7492 0.6624
vn 0.5897 0.6054 0.5346
vn 0.5896 0.6054 0.5346
vn 0.5896 0.6055 0.5346
vn 0.9502 0.2356 0.2042
vn 0.9502 0.2356 0.2041
vn -0.0000 0.6668 -0.7452
vn 0.0000 0.6669 -0.7452
vn 0.0000 0.6668 -0.7453
vn -0.0000 0.6624 -0.7491
vn 0.0000 0.6667 -0.7453
usemtl M_BD1_Head_Body
s 1
f 1/1/1 2/2/1 3/3/1
f 2/2/1 1/1/1 4/4/2
f 5/5/3 3/3/3 6/6/4
f 3/3/3 5/5/3 1/1/3
f 5/5/5 6/6/5 7/7/5
f 7/7/5 6/6/5 8/8/5
f 9/9/6 7/7/7 8/8/6
f 7/7/7 9/9/6 10/10/7
f 11/11/8 10/12/9 9/13/10
f 10/12/11 11/11/8 12/14/11
f 13/15/12 14/16/13 11/11/12
f 11/11/12 14/16/13 12/14/12
f 15/17/14 16/18/15 13/15/15
f 13/15/15 16/18/15 14/16/14
f 16/18/16 15/17/16 17/19/17
f 17/19/17 15/17/16 18/20/17
f 19/21/18 17/19/19 18/20/18
f 17/19/20 19/21/19 20/22/20
f 2/2/21 20/22/22 19/21/21
f 20/22/22 2/2/21 4/23/22
f 4/24/23 1/25/23 21/26/23
f 20/27/24 4/24/23 21/26/23
f 1/25/23 5/28/25 21/26/23
f 17/29/26 20/27/24 21/26/23
f 5/28/25 7/30/25 21/26/23
f 16/31/26 17/29/26 21/26/23
f 7/30/25 10/32/24 21/26/23
f 14/33/23 16/31/26 21/26/23
f 10/32/24 12/34/27 21/26/23
f 12/34/27 14/33/23 21/26/23
