# Blender v2.78 (sub 0) OBJ File: ''
# www.blender.org
mtllib right_lower_leg_detail_2.mtl
o BuddyDroid_01_rig.075_BuddyDroid_01_rig.076
v -4.265600 14.386857 -4.343354
v -4.265600 14.686302 -4.542485
v -4.265600 14.724332 -4.484692
v -4.265600 14.424886 -4.286060
v -4.265600 14.038701 -4.868481
v -4.265600 14.338646 -5.067014
v -4.265600 14.370886 -5.018204
v -4.265600 14.071740 -4.818573
v -3.951981 14.422491 -5.052441
v -4.033131 14.486772 -5.059328
v -3.951981 14.438960 -5.027586
v -4.033131 14.470303 -5.084182
v -4.037423 14.313293 -4.294744
v -3.951981 14.361304 -4.326385
v -3.951981 14.046088 -4.801605
v -3.951981 14.721437 -4.601575
v -3.951981 14.737906 -4.576722
v -4.033131 14.785519 -4.608363
v -4.033131 14.769149 -4.633217
v -4.625234 14.768949 -4.633117
v -4.625234 14.785419 -4.608263
v -4.625234 14.686302 -4.542485
v -4.625234 14.724332 -4.484692
v -4.625234 14.424886 -4.286060
v -4.625134 14.338646 -5.067014
v -4.625234 14.038701 -4.868481
v -4.625234 14.071740 -4.818573
v -4.625234 14.386857 -4.343354
v -4.625234 14.470303 -5.084182
v -4.625234 14.486772 -5.059328
v -4.625134 14.743596 -5.229912
v -4.219985 15.025873 -4.803801
v -4.219985 14.743596 -5.229912
v -4.625134 15.025773 -4.803701
v -4.625234 14.370886 -5.018204
v -4.625234 14.313293 -4.294744
v -3.956772 14.468605 -5.047350
v -3.956772 14.751082 -4.621239
v -4.625234 14.338646 -5.067014
v -4.625234 13.998675 -4.769464
v -4.037423 13.998675 -4.769464
v -4.431393 13.998576 -4.342056
v -4.384280 13.928705 -4.315306
v -4.326288 13.971127 -4.251424
v -4.354935 14.054472 -4.257613
v -4.354935 14.251307 -4.388371
v -4.431393 14.195412 -4.472814
v -4.433789 13.928406 -4.447860
v -4.386077 13.875703 -4.395358
v -4.433789 14.125341 -4.578618
v -4.331079 13.832184 -4.461036
v -4.361223 13.870913 -4.534600
v -4.361223 14.067847 -4.665358
v -4.241245 14.044890 -4.699993
v -4.241245 13.848055 -4.569235
v -4.240347 13.814816 -4.487287
v -4.148417 13.830287 -4.463931
v -4.119870 13.868417 -4.538393
v -4.119870 14.065252 -4.669250
v -4.037922 14.121248 -4.584806
v -4.043312 13.924314 -4.454049
v -4.090524 13.872609 -4.400049
v -4.037822 14.191319 -4.479002
v -4.040916 13.994483 -4.348245
v -4.088628 13.925611 -4.319997
v -4.113582 14.248813 -4.392263
v -4.143626 13.969131 -4.254319
v -4.113582 14.051877 -4.261505
v -4.233459 14.074835 -4.226870
v -4.233459 14.271670 -4.357627
v -4.234458 13.986498 -4.228067
v -4.625234 14.233042 -4.415919
v -4.625234 14.078927 -4.648289
v -4.234857 13.900657 -4.357727
vt 0.1333 0.9901
vt 0.1407 0.9901
vt 0.1407 0.9915
vt 0.1334 0.9915
vt 0.1153 0.9915
vt 0.1079 0.9915
vt 0.1079 0.9903
vt 0.1153 0.9902
vt 0.1054 0.9851
vt 0.1036 0.9867
vt 0.1048 0.9851
vt 0.1042 0.9867
vt 0.1301 0.9867
vt 0.1313 0.9849
vt 0.1320 0.9915
vt 0.1421 0.9717
vt 0.1421 0.9723
vt 0.1327 0.9717
vt 0.1421 0.9829
vt 0.1327 0.9836
vt 0.1421 0.9836
vt 0.1442 0.9851
vt 0.1447 0.9866
vt 0.1436 0.9849
vt 0.1453 0.9867
vt 0.1453 0.9988
vt 0.1447 0.9989
vt 0.1422 0.9989
vt 0.1422 0.9915
vt 0.1407 0.9989
vt 0.1334 0.9989
vt 0.1079 0.9988
vt 0.1153 0.9988
vt 0.1165 0.9988
vt 0.1165 0.9915
vt 0.1320 0.9989
vt 0.1066 0.9839
vt 0.1159 0.9838
vt 0.1043 0.9988
vt 0.1037 0.9988
vt 0.0974 0.9988
vt 0.0870 0.9906
vt 0.0974 0.9906
vt 0.0870 0.9988
vt 0.1067 0.9915
vt 0.1067 0.9988
vt 0.1301 0.9989
vt 0.1497 0.9723
vt 0.1497 0.9829
vt 0.1428 0.9723
vt 0.1428 0.9829
vt 0.1079 0.9988
vt 0.1183 0.9989
vt 0.1183 0.9867
vt 0.1171 0.9850
vt 0.1449 0.9852
vt 0.1516 0.9905
vt 0.1516 0.9988
vt 0.1041 0.9852
vt 0.0065 0.4531
vt 0.0083 0.4531
vt 0.0083 0.4551
vt 0.0065 0.4556
vt 0.0017 0.4556
vt 0.0017 0.4531
vt 0.0065 0.4507
vt 0.0083 0.4526
vt 0.0083 0.4507
vt 0.0017 0.4507
vt 0.0083 0.4482
vt 0.0083 0.4502
vt 0.0065 0.4478
vt 0.0017 0.4478
vt 0.0017 0.4453
vt 0.0064 0.4453
vt 0.0083 0.4473
vt 0.0082 0.4453
vt 0.0084 0.4434
vt 0.0066 0.4429
vt 0.0017 0.4429
vt 0.0017 0.4399
vt 0.0066 0.4404
vt 0.0083 0.4424
vt 0.0083 0.4404
vt 0.0018 0.4375
vt 0.0066 0.4375
vt 0.0083 0.4399
vt 0.0084 0.4380
vt 0.0018 0.4351
vt 0.0084 0.4355
vt 0.0084 0.4375
vt 0.0066 0.4351
vt 0.0065 0.4326
vt 0.0018 0.4326
vt 0.0084 0.4346
vt 0.0018 0.4297
vt 0.0083 0.4326
vt 0.0067 0.4297
vt 0.0085 0.4307
vt 0.1277 0.9883
vt 0.1255 0.9867
vt 0.1285 0.9908
vt 0.1301 0.9849
vt 0.1229 0.9867
vt 0.1278 0.9933
vt 0.1183 0.9849
vt 0.1271 0.9989
vt 0.1257 0.9949
vt 0.1208 0.9884
vt 0.1231 0.9949
vt 0.1201 0.9909
vt 0.1213 0.9989
vt 0.1209 0.9934
vt 0.4026 0.7811
vt 0.4053 0.7830
vt 0.4021 0.7830
vt 0.4026 0.7848
vt 0.4043 0.7800
vt 0.4043 0.7860
vt 0.4062 0.7800
vt 0.4062 0.7860
vt 0.4077 0.7811
vt 0.4077 0.7849
vt 0.4084 0.7831
vn 1.0000 0.0000 0.0000
vn 0.5774 0.6806 -0.4510
vn 0.5774 0.6804 -0.4513
vn -0.0001 0.5511 0.8344
vn -0.0001 0.5511 0.8345
vn -0.0001 0.5513 0.8343
vn 0.9990 0.0393 -0.0236
vn 0.5745 0.6847 -0.4485
vn 0.5744 0.6846 -0.4488
vn 0.5745 0.6847 -0.4484
vn -0.0000 0.8344 -0.5512
vn -0.0000 0.8345 -0.5510
vn -0.0000 0.8344 -0.5511
vn -0.0000 0.5510 0.8345
vn -0.0000 0.5509 0.8345
vn -0.0000 0.5511 0.8345
vn -0.0000 -0.5511 -0.8344
vn 0.0000 -0.5509 -0.8345
vn 0.0000 -0.8345 0.5510
vn 0.0000 -0.8344 0.5511
vn 0.0000 -0.8345 0.5511
vn -0.0000 0.5511 0.8344
vn 0.0000 -0.5510 -0.8345
vn -0.0003 -0.5565 -0.8309
vn -0.0000 -0.5602 -0.8284
vn 0.0000 0.8345 -0.5511
vn -0.0000 -0.5511 -0.8345
vn 0.0000 0.5513 0.8343
vn 0.7804 0.5203 -0.3468
vn 0.7804 0.5203 -0.3469
vn 0.9182 0.3296 -0.2197
vn 0.0000 0.8346 -0.5509
vn 0.0000 -0.5601 -0.8284
vn -0.9064 -0.0631 0.4177
vn -0.7801 -0.3230 0.5358
vn -0.4734 -0.0947 0.8758
vn -0.5502 0.2044 0.8096
vn -0.5725 0.4548 0.6822
vn -0.9442 0.1810 0.2753
vn -0.9195 -0.3851 -0.0786
vn -0.7875 -0.6064 0.1102
vn -0.9572 -0.1569 -0.2432
vn -0.4965 -0.8353 -0.2364
vn -0.5835 -0.6544 -0.4809
vn -0.6064 -0.4411 -0.6616
vn -0.0157 -0.5510 -0.8344
vn -0.0158 -0.7636 -0.6455
vn -0.0157 -0.9262 -0.3767
vn 0.4733 -0.8440 -0.2524
vn 0.5441 -0.6703 -0.5047
vn 0.5671 -0.4569 -0.6853
vn 0.9434 -0.1965 -0.2673
vn 0.9035 -0.4163 -0.1021
vn 0.7787 -0.6214 0.0865
vn 0.9547 0.1578 0.2525
vn 0.9155 -0.0789 0.3946
vn 0.7888 -0.3391 0.5127
vn 0.5982 0.4408 0.6692
vn 0.4977 -0.1027 0.8612
vn 0.5752 0.1891 0.7958
vn 0.0158 0.2996 0.9539
vn 0.0157 0.5510 0.8344
vn 0.0157 -0.0157 0.9998
vn 0.2920 -0.7970 0.5287
vn 0.4729 -0.7331 0.4888
vn 0.0000 -0.8344 0.5512
vn 0.5587 -0.6925 0.4564
vn 0.4641 -0.7394 0.4877
usemtl M_BD1_Legs
s 1
f 1/1/1 2/2/1 3/3/1
f 3/3/1 4/4/1 1/1/1
f 5/5/1 6/6/1 7/7/1
f 7/7/1 8/8/1 5/5/1
f 9/9/2 10/10/2 11/11/3
f 10/10/2 9/9/2 12/12/2
f 13/13/4 14/14/5 1/15/6
f 9/16/1 11/17/7 15/18/1
f 15/18/1 16/19/7 14/20/1
f 14/20/1 16/19/7 17/21/1
f 16/22/8 18/23/9 17/24/10
f 18/23/9 16/22/8 19/25/9
f 20/26/11 18/23/12 19/25/13
f 18/23/12 20/26/11 21/27/11
f 22/28/12 3/3/12 2/29/12
f 3/3/12 22/28/12 23/30/13
f 3/3/14 23/30/14 24/31/14
f 3/3/15 24/31/15 4/4/16
f 6/6/17 5/5/17 25/32/18
f 25/32/18 5/5/17 26/33/17
f 27/34/19 5/5/19 8/35/20
f 5/5/19 27/34/19 26/33/19
f 4/4/19 24/31/21 28/36/21
f 4/4/19 28/36/20 1/15/20
f 2/2/22 14/20/5 17/21/16
f 14/20/5 2/2/22 1/1/6
f 9/37/23 15/38/24 7/7/17
f 7/7/17 15/38/24 8/8/25
f 29/39/26 10/10/11 12/12/13
f 10/10/11 29/39/26 30/40/11
f 31/41/13 32/42/13 33/43/12
f 32/42/13 31/41/13 34/44/13
f 12/12/27 9/9/23 7/45/17
f 29/39/27 12/12/27 7/45/17
f 29/39/23 7/45/17 35/46/23
f 36/47/14 13/13/4 1/15/6
f 1/15/28 28/36/28 36/47/28
f 33/48/29 32/49/30 37/50/31
f 32/49/30 38/51/31 37/50/31
f 38/51/31 11/17/7 37/50/31
f 11/17/7 38/51/31 16/19/7
f 16/19/7 15/18/1 11/17/7
f 35/46/32 7/45/11 39/52/12
f 39/52/12 7/45/11 25/32/13
f 25/32/13 7/45/11 6/6/11
f 2/29/22 21/27/22 22/28/16
f 21/27/22 2/29/22 18/23/22
f 2/29/22 17/24/16 18/23/22
f 8/35/25 40/53/25 27/34/25
f 40/53/25 8/35/25 41/54/33
f 8/35/25 15/55/24 41/54/33
f 38/56/15 19/25/16 16/22/15
f 19/25/16 38/56/15 32/57/16
f 32/57/16 20/26/14 19/25/16
f 20/26/14 32/57/16 34/58/16
f 33/43/17 30/40/23 31/41/27
f 30/40/23 33/43/17 10/10/17
f 33/43/17 37/59/17 10/10/17
f 11/11/27 10/10/17 37/59/17
f 42/60/34 43/61/35 44/62/36
f 45/63/37 42/60/34 44/62/36
f 46/64/38 42/60/34 45/63/37
f 42/60/34 46/64/38 47/65/39
f 47/65/39 48/66/40 42/60/34
f 42/60/34 48/66/40 43/67/35
f 48/66/40 49/68/41 43/67/35
f 48/66/40 47/65/39 50/69/42
f 48/66/40 51/70/43 49/71/41
f 51/70/43 48/66/40 52/72/44
f 50/69/42 52/72/44 48/66/40
f 52/72/44 50/69/42 53/73/45
f 52/72/44 53/73/45 54/74/46
f 54/74/46 55/75/47 52/72/44
f 52/72/44 55/75/47 51/76/43
f 55/75/47 56/77/48 51/76/43
f 55/75/47 57/78/49 56/77/48
f 57/78/49 55/75/47 58/79/50
f 54/74/46 58/79/50 55/75/47
f 58/79/50 54/74/46 59/80/51
f 58/79/50 59/80/51 60/81/52
f 60/81/52 61/82/53 58/79/50
f 58/79/50 61/82/53 57/83/49
f 61/82/53 62/84/54 57/83/49
f 61/82/53 60/81/52 63/85/55
f 63/85/55 64/86/56 61/82/53
f 61/82/53 64/86/56 62/87/54
f 64/86/56 65/88/57 62/87/54
f 64/86/56 63/85/55 66/89/58
f 64/86/56 67/90/59 65/91/57
f 67/90/59 64/86/56 68/92/60
f 66/89/58 68/92/60 64/86/56
f 66/89/58 69/93/61 68/92/60
f 69/93/61 66/89/58 70/94/62
f 68/92/60 69/93/61 67/95/59
f 69/93/61 70/94/62 46/96/38
f 69/93/61 71/97/63 67/95/59
f 46/96/38 45/98/37 69/93/61
f 69/93/61 44/99/36 71/97/63
f 44/99/36 69/93/61 45/98/37
f 13/13/64 66/100/19 63/101/65
f 13/13/64 70/102/66 66/100/19
f 63/101/65 14/103/67 13/13/64
f 36/47/20 70/102/66 13/13/64
f 60/104/68 14/103/67 63/101/65
f 36/47/20 46/105/20 70/102/66
f 15/106/67 14/103/67 60/104/68
f 46/105/20 36/47/20 72/107/19
f 15/106/67 60/104/68 41/54/64
f 46/105/20 72/107/19 47/108/19
f 41/54/64 60/104/68 59/109/19
f 72/107/19 50/110/20 47/108/19
f 41/54/64 59/109/19 54/111/19
f 50/110/20 72/107/19 73/112/19
f 41/54/64 54/111/19 40/53/21
f 73/112/19 53/113/20 50/110/20
f 40/53/21 54/111/19 53/113/21
f 53/113/20 73/112/19 40/53/20
f 51/114/20 74/115/21 49/116/19
f 49/116/19 74/115/21 43/117/19
f 56/118/20 74/115/21 51/114/20
f 43/117/19 74/115/21 44/119/20
f 57/120/20 74/115/21 56/118/20
f 44/119/20 74/115/21 71/121/21
f 62/122/20 74/115/21 57/120/20
f 71/121/21 74/115/21 67/123/19
f 65/124/21 74/115/21 62/122/20
f 67/123/19 74/115/21 65/124/21
