# Blender v2.78 (sub 0) OBJ File: ''
# www.blender.org
mtllib right_hip.mtl
o BuddyDroid_01_rig.056_BuddyDroid_01_rig.057
v -2.386281 27.039923 -0.275286
v -3.462388 26.756847 -1.052846
v -3.462388 27.039923 -0.275286
v -2.386281 26.756847 -1.052846
v -3.462388 26.224932 -1.686872
v -2.386281 26.224932 -1.686872
v -2.386281 25.508259 -2.100606
v -3.462388 25.508259 -2.100606
v -3.745164 26.316662 -2.091822
v -3.745164 25.813095 -2.382583
v -2.386281 24.693268 -2.244339
v -3.462388 24.693268 -2.244339
v -2.386281 23.878277 -2.100606
v -3.462388 23.878277 -2.100606
v -2.386281 23.161606 -1.686872
v -3.745164 23.069876 -2.091822
v -3.745164 23.573343 -2.382584
v -3.462388 23.161606 -1.686872
v -2.386281 22.629591 -1.052846
v -3.462388 22.629591 -1.052846
v -2.386281 22.346615 -0.275287
v -3.462388 22.346615 -0.275287
v -3.462388 22.346615 0.552281
v -3.745164 21.949949 -0.152115
v -3.745164 21.949949 0.429209
v -2.386281 22.346615 0.552281
v -3.462388 22.629591 1.329941
v -2.386281 22.629591 1.329941
v -2.386281 23.161606 1.963867
v -3.462388 23.161606 1.963867
v -2.386281 23.878277 2.377700
v -3.462388 23.878277 2.377700
v -3.745164 23.069876 2.368917
v -3.745164 23.573343 2.659578
v -3.462388 24.693268 2.521434
v -2.386281 24.693268 2.521434
v -3.462388 25.508259 2.377701
v -2.386281 25.508259 2.377701
v -2.386281 26.224932 1.963867
v -3.462388 26.224932 1.963867
v -3.745164 25.813095 2.659679
v -3.745164 26.316563 2.368917
v -2.386281 26.756847 1.329941
v -3.462388 26.756847 1.329941
v -2.386281 27.039923 0.552282
v -3.462388 27.039923 0.552282
v -3.745164 27.436487 0.429210
v -3.745164 27.436487 -0.152114
v -7.448306 25.585516 -0.868687
v -6.703784 24.947996 -1.281423
v -6.703784 25.795628 -0.792129
v -7.448306 25.119379 -1.137889
v -7.449903 25.645006 -1.201770
v -7.449903 25.378099 -1.355885
v -6.706779 25.451963 -1.706136
v -6.706779 25.911413 -1.440927
v -4.529012 25.190947 -1.772014
v -6.703784 24.438440 -1.281423
v -4.636014 25.711882 -2.338166
v -4.636014 26.328838 -1.982025
v -4.529012 26.098965 -1.247785
v -4.529012 26.596643 -0.385781
v -6.703784 26.050356 -0.350846
v -6.706779 26.670107 -0.126761
v -4.636014 27.347452 -0.217593
v -4.636014 27.347452 0.494688
v -6.706779 26.670107 0.403757
v -7.449903 26.329937 -0.015567
v -7.448306 26.011726 -0.130654
v -6.703784 26.050356 0.627841
v -7.448306 26.011726 0.407649
v -7.449903 26.329937 0.292662
v -4.529012 26.596643 0.662777
v -6.703784 25.795628 1.069224
v -4.529012 26.098965 1.524780
v -4.636014 26.328739 2.259120
v -6.706779 25.911413 1.717923
v -4.636014 25.711882 2.615261
v -7.449903 25.645006 1.478865
v -7.448306 25.585516 1.145782
v -6.703784 24.947996 1.558518
v -7.448306 25.119379 1.414984
v -6.706779 25.451963 1.983231
v -7.449903 25.378099 1.632980
v -4.529012 25.190947 2.049109
v -6.703784 24.438440 1.558518
v -4.529012 24.195591 2.049109
v -6.706779 23.934473 1.983231
v -7.448306 24.267057 1.414983
v -4.636014 23.674555 2.615260
v -4.636014 23.057697 2.259120
v -4.529012 23.287472 1.524780
v -6.706779 23.475025 1.717922
v -6.703784 23.590910 1.069224
v -7.449903 23.741430 1.478865
v -7.448306 23.800920 1.145782
v -7.449903 24.008337 1.632980
v -7.448306 23.800920 -0.868687
v -6.703784 23.590910 -0.792129
v -7.448306 24.267057 -1.137889
v -7.449903 23.741430 -1.201771
v -7.449903 24.008337 -1.355885
v -6.706779 23.934473 -1.706136
v -6.706779 23.475025 -1.440928
v -4.529012 24.195591 -1.772014
v -4.636014 23.674555 -2.338166
v -4.636014 23.057697 -1.982026
v -4.529012 23.287472 -1.247785
v -4.529012 22.789793 -0.385782
v -6.703784 23.336082 -0.350846
v -6.706779 22.716330 -0.126762
v -4.636014 22.038984 -0.217593
v -4.636014 22.038984 0.494687
v -6.706779 22.716330 0.403756
v -7.449903 23.056599 -0.015567
v -7.448306 23.374710 -0.130654
v -7.449903 23.056599 0.292662
v -7.448306 23.374710 0.407649
v -6.703784 23.336082 0.627841
v -4.529012 22.789793 0.662776
v -7.267940 25.304337 0.245749
v -7.267940 25.167889 0.533217
v -7.267940 25.278784 -0.071464
v -7.267940 24.905874 0.713982
v -7.267940 25.098019 -0.333378
v -7.267940 24.588661 0.739534
v -7.267940 24.810551 -0.469826
v -7.267940 24.301195 0.603087
v -7.267940 24.493340 -0.444273
v -7.267940 24.120529 0.341072
v -7.267940 24.231424 -0.263608
v -7.267940 24.094976 0.023860
v -7.267940 24.699657 0.134854
vt 0.1694 0.0010
vt 0.1487 0.0166
vt 0.1487 0.0010
vt 0.1694 0.0166
vt 0.1487 0.0327
vt 0.1694 0.0327
vt 0.1694 0.0488
vt 0.1487 0.0488
vt 0.1393 0.0352
vt 0.1393 0.0464
vt 0.1694 0.0645
vt 0.1487 0.0645
vt 0.1694 0.0806
vt 0.1487 0.0806
vt 0.1694 0.0967
vt 0.1393 0.0942
vt 0.1393 0.0830
vt 0.1487 0.0967
vt 0.1694 0.1123
vt 0.1487 0.1123
vt 0.1694 0.1284
vt 0.1487 0.1284
vt 0.1487 0.1445
vt 0.1393 0.1309
vt 0.1393 0.1421
vt 0.1694 0.1445
vt 0.1487 0.1606
vt 0.1694 0.1602
vt 0.1696 0.1763
vt 0.1488 0.1763
vt 0.1696 0.1924
vt 0.1488 0.1924
vt 0.1394 0.1787
vt 0.1394 0.1899
vt 0.1489 0.2085
vt 0.1697 0.2080
vt 0.1490 0.2241
vt 0.1698 0.2241
vt 0.1699 0.2402
vt 0.1492 0.2402
vt 0.1396 0.2266
vt 0.1398 0.2378
vt 0.1700 0.2559
vt 0.1493 0.2563
vt 0.1700 0.2720
vt 0.1493 0.2720
vt 0.1702 0.2881
vt 0.1494 0.2881
vt 0.1400 0.2744
vt 0.1400 0.2856
vt 0.1282 0.8837
vt 0.1100 0.8813
vt 0.1234 0.8717
vt 0.1199 0.8897
vt 0.1282 0.8886
vt 0.1428 0.8883
vt 0.1246 0.8912
vt 0.1304 0.9028
vt 0.1197 0.9050
vt 0.1373 0.8978
vt 0.1394 0.9381
vt 0.1116 0.9089
vt 0.1504 0.9326
vt 0.1593 0.9261
vt 0.1589 0.9445
vt 0.1533 0.9521
vt 0.1680 0.9379
vt 0.1406 0.9594
vt 0.1680 0.9174
vt 0.1769 0.9350
vt 0.1879 0.9253
vt 0.1792 0.9058
vt 0.1971 0.9140
vt 0.1490 0.8819
vt 0.1997 0.9050
vt 0.1582 0.8760
vt 0.1875 0.8968
vt 0.1935 0.8876
vt 0.2058 0.8956
vt 0.1631 0.8688
vt 0.1487 0.8672
vt 0.1438 0.8674
vt 0.1407 0.8494
vt 0.1317 0.8632
vt 0.1495 0.8589
vt 0.1511 0.8635
vt 0.1648 0.8580
vt 0.1986 0.8765
vt 0.2131 0.8897
vt 0.2200 0.8768
vt 0.1683 0.8499
vt 0.2051 0.8617
vt 0.2247 0.8630
vt 0.2240 0.8538
vt 0.2097 0.8503
vt 0.2266 0.8428
vt 0.1749 0.8412
vt 0.2122 0.8396
vt 0.1630 0.8361
vt 0.1584 0.8380
vt 0.1456 0.8381
vt 0.1493 0.8221
vt 0.1609 0.8280
vt 0.1770 0.8328
vt 0.1639 0.8318
vt 0.1749 0.8221
vt 0.2130 0.8274
vt 0.2313 0.8346
vt 0.2330 0.8201
vt 0.1754 0.8132
vt 0.2137 0.8112
vt 0.2325 0.8055
vt 0.2285 0.7971
vt 0.1783 0.8027
vt 0.1619 0.8060
vt 0.2140 0.7988
vt 0.2125 0.7877
vt 0.2272 0.7863
vt 0.2094 0.7754
vt 0.2295 0.7777
vt 0.1772 0.7942
vt 0.1711 0.7852
vt 0.1648 0.7982
vt 0.1604 0.7959
vt 0.1654 0.8026
vt 0.1499 0.8109
vt 0.1476 0.7947
vt 0.0993 0.8865
vt 0.0897 0.9020
vt 0.0834 0.8908
vt 0.0995 0.8994
vt 0.0935 0.9051
vt 0.0841 0.9164
vt 0.0978 0.9039
vt 0.1032 0.9158
vt 0.0948 0.9180
vt 0.1248 0.9450
vt 0.1270 0.9646
vt 0.1176 0.9642
vt 0.1136 0.9500
vt 0.1030 0.9529
vt 0.1067 0.9672
vt 0.0908 0.9542
vt 0.0989 0.9722
vt 0.0845 0.9745
vt 0.0747 0.9555
vt 0.0698 0.9746
vt 0.0752 0.9171
vt 0.0612 0.9709
vt 0.0649 0.9205
vt 0.0625 0.9563
vt 0.0515 0.9552
vt 0.0500 0.9698
vt 0.0563 0.9197
vt 0.0640 0.9075
vt 0.0673 0.9039
vt 0.0596 0.9072
vt 0.0571 0.9030
vt 0.0715 0.8917
vt 0.0551 0.8902
vt 0.0468 0.9144
vt 0.0396 0.9520
vt 0.0384 0.9125
vt 0.0410 0.9716
vt 0.0238 0.9476
vt 0.0270 0.9688
vt 0.0138 0.9644
vt 0.2456 0.9978
vt 0.2341 0.9977
vt 0.2411 0.9878
vt 0.2441 0.9864
vt 0.2512 0.9946
vt 0.2378 0.9876
vt 0.2286 0.9945
vt 0.2461 0.9837
vt 0.2568 0.9847
vt 0.2350 0.9857
vt 0.2230 0.9846
vt 0.2463 0.9803
vt 0.2568 0.9783
vt 0.2335 0.9826
vt 0.2230 0.9782
vt 0.2449 0.9773
vt 0.2512 0.9684
vt 0.2339 0.9793
vt 0.2288 0.9683
vt 0.2421 0.9754
vt 0.2458 0.9651
vt 0.2357 0.9765
vt 0.2344 0.9651
vt 0.2388 0.9751
vt 0.2400 0.9815
vn 0.0000 0.9849 -0.1733
vn -0.1804 0.8550 -0.4863
vn 0.1102 0.9127 -0.3934
vn 0.0000 0.8677 -0.4971
vn 0.1024 0.8116 -0.5752
vn -0.0000 0.6456 -0.7637
vn 0.0000 0.3398 -0.9405
vn 0.1105 0.1184 -0.9868
vn 0.3386 0.8269 -0.4489
vn 0.3397 -0.0316 -0.9400
vn 0.0000 0.0000 -1.0000
vn -0.1809 0.0079 -0.9835
vn -0.0000 -0.3399 -0.9405
vn 0.1022 -0.0943 -0.9903
vn 0.0000 -0.6456 -0.7637
vn 0.3386 -0.8269 -0.4489
vn 0.3397 0.0316 -0.9400
vn 0.1106 -0.7979 -0.5925
vn 0.0000 -0.8678 -0.4970
vn -0.1809 -0.8495 -0.4955
vn 0.0000 -0.9849 -0.1731
vn 0.1025 -0.9064 -0.4098
vn 0.1025 -0.9064 0.4098
vn 0.3376 -0.8009 -0.4946
vn 0.3376 -0.8009 0.4946
vn 0.0000 -0.9848 0.1736
vn -0.1809 -0.8495 0.4956
vn 0.0000 -0.8644 0.5029
vn -0.0000 -0.6456 0.7637
vn 0.1106 -0.7979 0.5925
vn 0.0000 -0.3397 0.9405
vn 0.1104 -0.1184 0.9868
vn 0.3386 -0.8269 0.4489
vn 0.3397 0.0316 0.9400
vn -0.1809 -0.0079 0.9835
vn 0.0000 -0.0000 1.0000
vn 0.1022 0.0943 0.9903
vn 0.0000 0.3398 0.9405
vn 0.0000 0.6456 0.7637
vn 0.1106 0.7979 0.5925
vn 0.3397 -0.0316 0.9400
vn 0.3386 0.8269 0.4489
vn 0.0000 0.8677 0.4970
vn -0.1809 0.8495 0.4956
vn 0.0000 0.9848 0.1737
vn 0.1024 0.9064 0.4099
vn 0.3376 0.8009 0.4946
vn 0.3376 0.8009 -0.4946
vn -0.6254 0.2372 0.7434
vn -0.5525 -0.3947 -0.7341
vn -0.5599 0.8280 -0.0315
vn -0.6227 -0.7647 0.1655
vn -0.7542 0.6128 -0.2358
vn -0.7525 -0.1020 -0.6506
vn -0.3302 -0.1258 -0.9355
vn -0.3300 0.8721 -0.3614
vn -0.1964 -0.3614 -0.9115
vn -0.5597 0.3863 -0.7331
vn -0.1580 -0.1264 -0.9793
vn -0.1573 0.9125 -0.3776
vn -0.2040 0.9650 -0.1648
vn -0.1969 0.6144 -0.7640
vn -0.5511 0.4409 -0.7085
vn -0.3308 0.7483 -0.5750
vn -0.1582 0.7832 -0.6013
vn -0.1582 0.7832 0.6013
vn -0.3308 0.7483 0.5750
vn -0.7555 0.5116 -0.4093
vn -0.6234 -0.5287 -0.5761
vn -0.5596 0.4414 0.7015
vn -0.6234 -0.5287 0.5761
vn -0.7555 0.5116 0.4092
vn -0.2047 0.6220 0.7558
vn -0.5564 0.8306 0.0234
vn -0.1972 0.9700 0.1420
vn -0.1573 0.9125 0.3776
vn -0.3300 0.8721 0.3614
vn -0.1580 -0.1264 0.9793
vn -0.7542 0.6128 0.2357
vn -0.6250 0.2373 -0.7437
vn -0.5597 -0.3863 0.7331
vn -0.6227 -0.7647 -0.1655
vn -0.3302 -0.1258 0.9355
vn -0.7525 -0.1018 0.6506
vn -0.2051 -0.3471 0.9151
vn -0.5580 0.3930 0.7309
vn -0.1965 0.3614 0.9115
vn -0.3302 0.1258 0.9355
vn -0.6228 0.7647 -0.1656
vn -0.1580 0.1264 0.9793
vn -0.1573 -0.9125 0.3776
vn -0.1971 -0.9701 0.1419
vn -0.3300 -0.8721 0.3614
vn -0.5599 -0.8280 0.0315
vn -0.7542 -0.6128 0.2357
vn -0.6254 -0.2372 -0.7434
vn -0.7525 0.1019 0.6506
vn -0.6250 -0.2373 0.7437
vn -0.5600 -0.8282 -0.0236
vn -0.6228 0.7647 0.1656
vn -0.7543 -0.6128 -0.2357
vn -0.7525 0.1020 -0.6506
vn -0.3302 0.1258 -0.9355
vn -0.3300 -0.8721 -0.3614
vn -0.2051 0.3471 -0.9151
vn -0.1580 0.1264 -0.9793
vn -0.1573 -0.9125 -0.3776
vn -0.1972 -0.9700 -0.1420
vn -0.2047 -0.6220 -0.7558
vn -0.5596 -0.4414 -0.7015
vn -0.3308 -0.7483 -0.5750
vn -0.1582 -0.7832 -0.6013
vn -0.1582 -0.7833 0.6012
vn -0.3308 -0.7483 0.5750
vn -0.7555 -0.5116 -0.4093
vn -0.6234 0.5287 -0.5761
vn -0.7555 -0.5116 0.4093
vn -0.6234 0.5287 0.5761
vn -0.5565 -0.4389 0.7054
vn -0.2047 -0.6220 0.7558
vn -0.9386 0.3392 0.0631
vn -0.9401 0.2449 0.2370
vn -0.9388 0.3313 -0.0947
vn -0.9397 0.1106 0.3237
vn -0.9381 0.2286 -0.2601
vn -0.9410 -0.0784 0.3293
vn -0.9394 0.0868 -0.3316
vn -0.9417 -0.2216 0.2532
vn -0.9397 -0.1106 -0.3237
vn -0.9421 -0.3219 0.0942
vn -0.9401 -0.2449 -0.2370
vn -0.9411 -0.3322 -0.0632
vn -1.0000 0.0000 0.0000
usemtl M_BD1_Legs
s 1
f 1/1/1 2/2/2 3/3/3
f 2/2/2 1/1/1 4/4/4
f 4/4/4 5/5/5 2/2/2
f 5/5/5 4/4/4 6/6/6
f 5/5/5 6/6/6 7/7/7
f 5/5/5 7/7/7 8/8/8
f 5/5/5 8/8/8 9/9/9
f 8/8/8 10/10/10 9/9/9
f 8/8/8 7/7/7 11/11/11
f 8/8/8 11/11/11 12/12/12
f 12/12/12 11/11/11 13/13/13
f 12/12/12 13/13/13 14/14/14
f 14/14/14 13/13/13 15/15/15
f 14/14/14 16/16/16 17/17/17
f 16/16/16 14/14/14 18/18/18
f 14/14/14 15/15/15 18/18/18
f 19/19/19 18/18/18 15/15/15
f 20/20/20 18/18/18 19/19/19
f 21/21/21 20/20/20 19/19/19
f 20/20/20 21/21/21 22/22/22
f 21/21/21 23/23/23 22/22/22
f 22/22/22 23/23/23 24/24/24
f 23/23/23 25/25/25 24/24/24
f 23/23/23 21/21/21 26/26/26
f 26/26/26 27/27/27 23/23/23
f 27/27/27 26/26/26 28/28/28
f 29/29/29 27/27/27 28/28/28
f 27/27/27 29/29/29 30/30/30
f 31/31/31 30/30/30 29/29/29
f 32/32/32 30/30/30 31/31/31
f 32/32/32 33/33/33 30/30/30
f 33/33/33 32/32/32 34/34/34
f 31/31/31 35/35/35 32/32/32
f 35/35/35 31/31/31 36/36/36
f 36/36/36 37/37/37 35/35/35
f 37/37/37 36/36/36 38/38/38
f 39/39/39 37/37/37 38/38/38
f 40/40/40 37/37/37 39/39/39
f 37/37/37 40/40/40 41/41/41
f 40/40/40 42/42/42 41/41/41
f 43/43/43 40/40/40 39/39/39
f 44/44/44 40/40/40 43/43/43
f 45/45/45 44/44/44 43/43/43
f 46/46/46 44/44/44 45/45/45
f 1/47/1 46/46/46 45/45/45
f 3/48/3 46/46/46 1/47/1
f 3/48/3 47/49/47 46/46/46
f 47/49/47 3/48/3 48/50/48
f 49/51/49 50/52/50 51/53/51
f 50/52/50 49/51/49 52/54/52
f 53/55/53 52/54/52 49/51/49
f 51/56/51 53/55/53 49/51/49
f 52/54/52 53/55/53 54/57/54
f 55/58/55 52/54/52 54/57/54
f 53/55/53 55/58/55 54/57/54
f 52/54/52 55/58/55 50/59/50
f 53/55/53 51/56/51 56/60/56
f 53/55/53 56/60/56 55/58/55
f 55/58/55 57/61/57 50/59/50
f 57/61/57 58/62/58 50/59/50
f 56/60/56 59/63/59 55/58/55
f 55/58/55 59/63/59 57/61/57
f 56/60/56 60/64/60 59/63/59
f 57/61/57 59/63/59 10/65/10
f 60/64/60 10/65/10 59/63/59
f 8/66/8 57/61/57 10/65/10
f 60/64/60 9/67/9 10/65/10
f 12/68/12 57/61/57 8/66/8
f 61/69/61 9/67/9 60/64/60
f 56/60/56 61/69/61 60/64/60
f 61/69/61 56/60/56 51/56/51
f 9/67/9 61/69/61 5/70/5
f 61/69/61 2/71/2 5/70/5
f 51/56/51 62/72/62 61/69/61
f 2/71/2 61/69/61 62/72/62
f 2/71/2 62/72/62 3/73/3
f 62/72/62 51/56/51 63/74/63
f 62/72/62 48/75/48 3/73/3
f 64/76/64 62/72/62 63/74/63
f 48/75/48 62/72/62 65/77/65
f 64/76/64 65/77/65 62/72/62
f 65/77/65 66/78/66 48/75/48
f 48/75/48 66/78/66 47/79/47
f 67/80/67 65/77/65 64/76/64
f 65/77/65 67/80/67 66/78/66
f 68/81/68 64/76/64 63/74/63
f 68/81/68 63/74/63 69/82/69
f 70/83/70 69/82/69 63/84/63
f 69/82/69 70/83/70 71/85/71
f 71/85/71 68/81/68 69/82/69
f 72/86/72 64/76/64 68/81/68
f 68/81/68 71/85/71 72/86/72
f 64/76/64 72/86/72 67/80/67
f 70/87/70 72/86/72 71/85/71
f 72/86/72 70/87/70 67/80/67
f 73/88/73 67/80/67 70/87/70
f 67/80/67 73/88/73 66/78/66
f 73/88/73 47/79/47 66/78/66
f 47/79/47 73/88/73 46/89/46
f 73/88/73 44/90/44 46/89/46
f 73/88/73 70/87/70 74/91/74
f 44/90/44 73/88/73 75/92/75
f 73/88/73 74/91/74 75/92/75
f 44/90/44 75/92/75 40/93/40
f 40/93/40 75/92/75 42/94/42
f 75/92/75 76/95/76 42/94/42
f 76/95/76 41/96/41 42/94/42
f 75/92/75 74/91/74 77/97/77
f 75/92/75 77/97/77 76/95/76
f 41/96/41 76/95/76 78/98/78
f 77/97/77 78/98/78 76/95/76
f 74/91/74 79/99/79 77/97/77
f 79/99/79 74/91/74 80/100/80
f 80/100/80 74/101/74 81/102/81
f 80/100/80 81/102/81 82/103/82
f 80/100/80 82/103/82 79/99/79
f 78/98/78 77/97/77 83/104/83
f 79/99/79 83/104/83 77/97/77
f 82/103/82 84/105/84 79/99/79
f 83/104/83 79/99/79 84/105/84
f 82/103/82 83/104/83 84/105/84
f 83/104/83 82/103/82 81/106/81
f 83/104/83 85/107/85 78/98/78
f 85/107/85 83/104/83 81/106/81
f 85/107/85 41/96/41 78/98/78
f 41/96/41 85/107/85 37/108/37
f 85/107/85 35/109/35 37/108/37
f 86/110/86 85/107/85 81/106/81
f 35/109/35 85/107/85 87/111/87
f 85/107/85 86/110/86 87/111/87
f 35/109/35 87/111/87 32/112/32
f 32/112/32 87/111/87 34/113/34
f 87/111/87 86/110/86 88/114/88
f 89/115/89 88/114/88 86/110/86
f 87/111/87 90/116/90 34/113/34
f 87/111/87 88/114/88 90/116/90
f 90/116/90 91/117/91 34/113/34
f 34/113/34 91/117/91 33/118/33
f 33/118/33 92/119/92 30/120/30
f 92/119/92 33/118/33 91/117/91
f 90/116/90 93/121/93 91/117/91
f 93/121/93 92/119/92 91/117/91
f 90/116/90 88/114/88 93/121/93
f 92/119/92 93/121/93 94/122/94
f 95/123/95 94/122/94 93/121/93
f 88/114/88 95/123/95 93/121/93
f 94/122/94 95/123/95 96/124/96
f 88/114/88 97/125/97 95/123/95
f 97/125/97 96/124/96 95/123/95
f 88/114/88 89/115/89 97/125/97
f 96/124/96 97/125/97 89/115/89
f 86/126/86 96/124/96 89/115/89
f 96/124/96 86/126/86 94/127/94
f 58/128/58 98/129/98 99/130/99
f 98/129/98 58/128/58 100/131/100
f 100/131/100 101/132/101 98/129/98
f 101/132/101 99/133/99 98/129/98
f 101/132/101 100/131/100 102/134/102
f 100/131/100 103/135/103 102/134/102
f 103/135/103 101/132/101 102/134/102
f 100/131/100 58/62/58 103/135/103
f 99/133/99 101/132/101 104/136/104
f 101/132/101 103/135/103 104/136/104
f 105/137/105 103/135/103 58/62/58
f 58/62/58 57/61/57 105/137/105
f 12/68/12 105/137/105 57/61/57
f 105/137/105 12/68/12 14/138/14
f 17/139/17 105/137/105 14/138/14
f 103/135/103 105/137/105 106/140/106
f 105/137/105 17/139/17 106/140/106
f 106/140/106 104/136/104 103/135/103
f 17/139/17 107/141/107 106/140/106
f 104/136/104 106/140/106 107/141/107
f 107/141/107 17/139/17 16/142/16
f 108/143/108 104/136/104 107/141/107
f 108/143/108 107/141/107 16/142/16
f 108/143/108 99/133/99 104/136/104
f 18/144/18 108/143/108 16/142/16
f 20/145/20 108/143/108 18/144/18
f 109/146/109 99/133/99 108/143/108
f 20/145/20 109/146/109 108/143/108
f 109/146/109 20/145/20 22/147/22
f 109/146/109 110/148/110 99/133/99
f 24/149/24 109/146/109 22/147/22
f 109/146/109 111/150/111 110/148/110
f 109/146/109 24/149/24 112/151/112
f 111/150/111 109/146/109 112/151/112
f 24/149/24 113/152/113 112/151/112
f 113/152/113 24/149/24 25/153/25
f 112/151/112 114/154/114 111/150/111
f 114/154/114 112/151/112 113/152/113
f 115/155/115 110/148/110 111/150/111
f 110/148/110 115/155/115 116/156/116
f 117/157/117 111/150/111 114/154/114
f 111/150/111 117/157/117 115/155/115
f 115/155/115 118/158/118 116/156/116
f 118/158/118 115/155/115 117/157/117
f 118/158/118 110/159/110 116/156/116
f 110/159/110 118/158/118 119/160/119
f 119/161/119 118/158/118 117/157/117
f 119/161/119 117/157/117 114/154/114
f 120/162/120 119/161/119 114/154/114
f 120/162/120 114/154/114 113/152/113
f 120/162/120 113/152/113 25/153/25
f 120/162/120 94/163/94 119/161/119
f 23/164/23 120/162/120 25/153/25
f 94/163/94 120/162/120 92/165/92
f 27/166/27 120/162/120 23/164/23
f 92/165/92 120/162/120 27/166/27
f 30/167/30 92/165/92 27/166/27
f 70/168/70 63/169/63 121/170/121
f 122/171/122 70/168/70 121/170/121
f 122/171/122 74/172/74 70/168/70
f 63/169/63 123/173/123 121/170/121
f 51/174/51 123/173/123 63/169/63
f 124/175/124 74/172/74 122/171/122
f 74/172/74 124/175/124 81/176/81
f 123/173/123 51/174/51 125/177/125
f 50/178/50 125/177/125 51/174/51
f 126/179/126 81/176/81 124/175/124
f 81/176/81 126/179/126 86/180/86
f 125/177/125 50/178/50 127/181/127
f 127/181/127 50/178/50 58/182/58
f 86/180/86 126/179/126 128/183/128
f 94/184/94 86/180/86 128/183/128
f 127/181/127 58/182/58 129/185/129
f 58/182/58 99/186/99 129/185/129
f 130/187/130 94/184/94 128/183/128
f 130/187/130 119/188/119 94/184/94
f 99/186/99 131/189/131 129/185/129
f 110/190/110 131/189/131 99/186/99
f 119/188/119 132/191/132 110/190/110
f 131/189/131 110/190/110 132/191/132
f 132/191/132 119/188/119 130/187/130
f 131/189/131 133/192/133 129/185/129
f 132/191/132 133/192/133 131/189/131
f 130/187/130 133/192/133 132/191/132
f 129/185/129 133/192/133 127/181/127
f 128/183/128 133/192/133 130/187/130
f 127/181/127 133/192/133 125/177/125
f 126/179/126 133/192/133 128/183/128
f 125/177/125 133/192/133 123/173/123
f 124/175/124 133/192/133 126/179/126
f 123/173/123 133/192/133 121/170/121
f 122/171/122 133/192/133 124/175/124
f 121/170/121 133/192/133 122/171/122
