# Blender v2.78 (sub 0) OBJ File: ''
# www.blender.org
mtllib right_eye_tube.mtl
o BuddyDroid_01_rig.039_BuddyDroid_01_rig.040
v -2.122469 38.005413 8.684921
v -2.122469 37.404526 8.684921
v -1.695959 37.843914 8.684921
v -1.767527 38.249462 8.684922
v -2.239353 38.577755 8.684922
v -1.838595 38.635246 8.684922
v -1.906769 38.989193 8.684922
v -2.461741 39.103680 8.684922
v -2.122469 38.005413 8.008873
v -1.695959 37.843914 8.008873
v -2.122469 37.404526 8.008873
v -1.767527 38.249462 8.008874
v -2.239453 38.577755 8.008874
v -1.838595 38.635246 8.008874
v -1.906769 38.989193 8.008874
v -2.461741 39.103680 8.008874
v -2.413331 38.523754 8.824763
v -2.551574 39.054970 8.824763
v -2.621844 39.016941 8.824763
v -2.337072 38.547512 8.824763
v -2.224181 37.995132 8.824762
v -2.303734 37.986950 8.824762
v -2.224181 37.414806 8.824762
v -2.303734 37.422993 8.824762
v -2.413331 36.886086 8.824762
v -2.337072 36.862331 8.824762
v -2.551574 36.354870 8.824762
v -2.621844 36.393002 8.824762
v -2.856909 35.903008 8.824762
v -2.918495 35.953815 8.824762
v -3.292203 35.580105 8.824762
v -3.241397 35.518520 8.824762
v -3.731390 35.283455 8.824762
v -3.693260 35.213184 8.824762
v -4.224476 35.074940 8.824762
v -4.200720 34.998585 8.824762
v -4.753197 34.885792 8.824762
v -4.761382 34.965343 8.824762
v -5.333522 34.885792 8.824762
v -5.325337 34.965343 8.824762
v -5.862144 35.074940 8.824762
v -5.885900 34.998585 8.824762
v -6.393360 35.213184 8.824762
v -6.355330 35.283455 8.824762
v -6.845323 35.518421 8.824762
v -6.794417 35.580105 8.824762
v -7.229810 35.903008 8.824762
v -7.168125 35.953815 8.824762
v -7.464775 36.393002 8.824762
v -7.535145 36.354870 8.824762
v -7.673289 36.886086 8.824762
v -7.749648 36.862331 8.824762
v -7.862539 37.414806 8.824762
v -7.782986 37.422993 8.824762
v -7.862539 37.995132 8.824762
v -7.782986 37.986950 8.824762
v -7.673289 38.523754 8.824763
v -7.749648 38.547512 8.824763
v -7.535145 39.054970 8.824763
v -7.464775 39.016941 8.824763
v -7.229810 39.506832 8.824763
v -7.168125 39.456028 8.824763
v -6.794417 39.829735 8.824763
v -6.845323 39.891422 8.824763
v -6.355330 40.126385 8.824763
v -6.393360 40.196655 8.824763
v -5.862144 40.334900 8.824763
v -5.885900 40.411259 8.824763
v -5.333522 40.524052 8.824763
v -5.325337 40.444595 8.824763
v -4.761382 40.444595 8.824763
v -4.753197 40.524052 8.824763
v -4.224576 40.334900 8.824763
v -4.200720 40.411259 8.824763
v -3.693260 40.196655 8.824763
v -3.731390 40.126385 8.824763
v -3.241397 39.891422 8.824763
v -3.292203 39.829735 8.824763
v -2.856909 39.506832 8.824763
v -2.918595 39.456028 8.824763
v -2.461741 39.103680 2.636923
v -2.239453 38.577854 2.636923
v -2.122469 38.005413 2.636923
v -2.122469 37.404526 2.636923
v -2.239453 36.832088 2.636922
v -2.239353 36.832088 8.684921
v -2.461741 36.306160 8.684921
v -2.461741 36.306160 2.636922
v -2.778055 35.838028 8.684921
v -2.778055 35.838028 2.636922
v -3.176417 35.439667 2.636922
v -3.176417 35.439667 8.684921
v -3.644550 35.123352 2.636922
v -3.644550 35.123352 8.684921
v -4.170476 34.900963 8.684921
v -4.170476 34.900963 2.636922
v -4.742916 34.784081 8.684921
v -4.742916 34.784081 2.636922
v -5.343803 34.784081 2.636922
v -5.343803 34.784081 8.684921
v -5.916243 34.900963 2.636922
v -5.916243 34.900963 8.684921
v -6.442169 35.123352 2.636922
v -6.442070 35.123352 8.684921
v -6.910302 35.439667 2.636922
v -6.910302 35.439667 8.684921
v -7.308664 35.838028 8.684921
v -7.308664 35.838028 2.636922
v -7.624879 36.306160 2.636922
v -7.624879 36.306160 8.684921
v -7.847267 36.832088 2.636922
v -7.847267 36.832088 8.684921
v -7.964250 37.404526 2.636923
v -7.964150 37.404526 8.684921
v -7.964150 38.005413 8.684921
v -7.964250 38.005413 2.636923
v -7.847267 38.577755 8.684922
v -7.847267 38.577854 2.636923
v -7.624879 39.103680 2.636923
v -7.624879 39.103680 8.684922
v -7.308664 39.571915 8.684922
v -7.308664 39.571915 2.636923
v -6.910302 39.970276 8.684922
v -6.910302 39.970276 2.636923
v -6.442169 40.286491 2.636923
v -6.442070 40.286491 8.684922
v -5.916243 40.508877 8.684922
v -5.916243 40.508877 2.636923
v -5.343803 40.625763 2.636923
v -5.343803 40.625763 8.684922
v -4.742916 40.625763 8.684922
v -4.742916 40.625763 2.636923
v -4.170476 40.508877 8.684922
v -4.170476 40.508877 2.636923
v -3.644550 40.286491 8.684922
v -3.644550 40.286491 2.636923
v -3.176417 39.970276 8.684922
v -3.176417 39.970276 2.636923
v -2.778055 39.571915 2.636923
v -2.778055 39.571915 8.684922
v -3.292203 35.580105 7.325938
v -3.731390 35.283455 7.325938
v -4.224576 35.074940 7.325938
v -4.761382 34.965343 7.325938
v -5.325337 34.965343 7.325938
v -5.862144 35.074940 7.325938
v -6.355330 35.283455 7.325938
v -6.794417 35.580105 7.325938
v -7.168125 35.953815 7.325938
v -7.464775 36.393002 7.325938
v -7.673289 36.886086 7.325939
v -7.782986 37.422993 7.325939
v -7.782986 37.986950 7.325939
v -7.673289 38.523754 7.325939
v -7.464775 39.016941 7.325939
v -7.168125 39.456028 7.325939
v -6.794417 39.829735 7.325939
v -6.355330 40.126385 7.325939
v -5.862144 40.334900 7.325939
v -5.325337 40.444595 7.325939
v -4.761382 40.444595 7.325939
v -4.224576 40.334900 7.325939
v -3.731390 40.126385 7.325939
v -3.292203 39.829735 7.325939
v -2.918595 39.456028 7.325939
v -2.621844 39.016941 7.325939
v -2.413331 38.523754 7.325939
v -2.303734 37.986950 7.325939
v -2.303734 37.422993 7.325939
v -2.413331 36.886086 7.325939
v -2.621844 36.393002 7.325938
v -2.918595 35.953815 7.325938
vt 0.2128 0.2031
vt 0.2141 0.2109
vt 0.2076 0.2065
vt 0.2076 0.2012
vt 0.2129 0.1958
vt 0.2076 0.1958
vt 0.2076 0.1914
vt 0.2146 0.1885
vt 0.1936 0.2031
vt 0.1987 0.2065
vt 0.1921 0.2109
vt 0.1987 0.2012
vt 0.1934 0.1958
vt 0.1987 0.1958
vt 0.1986 0.1914
vt 0.1918 0.1885
vt 0.6597 0.2144
vt 0.6670 0.2158
vt 0.6665 0.2168
vt 0.6602 0.2134
vt 0.6533 0.2109
vt 0.6528 0.2119
vt 0.6455 0.2095
vt 0.6455 0.2104
vt 0.6382 0.2104
vt 0.6382 0.2090
vt 0.6309 0.2090
vt 0.6309 0.2100
vt 0.6235 0.2090
vt 0.6235 0.2100
vt 0.6167 0.2100
vt 0.6167 0.2090
vt 0.6094 0.2100
vt 0.6094 0.2090
vt 0.6021 0.2100
vt 0.6021 0.2090
vt 0.5942 0.2090
vt 0.5942 0.2100
vt 0.5864 0.2090
vt 0.5864 0.2100
vt 0.5791 0.2100
vt 0.5791 0.2090
vt 0.5718 0.2090
vt 0.5718 0.2100
vt 0.5645 0.2090
vt 0.5645 0.2100
vt 0.5571 0.2090
vt 0.5571 0.2100
vt 0.5503 0.2100
vt 0.5503 0.2090
vt 0.5430 0.2100
vt 0.5430 0.2090
vt 0.5352 0.2090
vt 0.5352 0.2100
vt 0.5273 0.2090
vt 0.5273 0.2100
vt 0.5200 0.2100
vt 0.5200 0.2090
vt 0.5127 0.2090
vt 0.5127 0.2100
vt 0.5054 0.2090
vt 0.5054 0.2100
vt 0.4985 0.2104
vt 0.4985 0.2095
vt 0.4912 0.2104
vt 0.4912 0.2095
vt 0.4839 0.2104
vt 0.4839 0.2095
vt 0.4763 0.2100
vt 0.4766 0.2109
vt 0.4688 0.2109
vt 0.4688 0.2100
vt 0.4614 0.2114
vt 0.4612 0.2104
vt 0.4539 0.2104
vt 0.4541 0.2114
vt 0.4468 0.2109
vt 0.4468 0.2119
vt 0.4395 0.2109
vt 0.4397 0.2119
vt 0.4326 0.2124
vt 0.4324 0.2114
vt 0.2076 0.2124
vt 0.1987 0.2124
vt 0.2076 0.1836
vt 0.1986 0.1836
vt 0.6699 0.1304
vt 0.6689 0.1982
vt 0.6616 0.1982
vt 0.6626 0.1304
vt 0.6538 0.1982
vt 0.6548 0.1304
vt 0.6460 0.1982
vt 0.6470 0.1304
vt 0.6392 0.1304
vt 0.6460 0.2070
vt 0.6382 0.2070
vt 0.6309 0.2070
vt 0.6313 0.1304
vt 0.6235 0.2065
vt 0.6240 0.1304
vt 0.6167 0.1304
vt 0.6167 0.2065
vt 0.6094 0.1304
vt 0.6094 0.2065
vt 0.6021 0.2065
vt 0.6021 0.1304
vt 0.5942 0.2065
vt 0.5942 0.1304
vt 0.5864 0.1304
vt 0.5864 0.2065
vt 0.5791 0.1304
vt 0.5791 0.2065
vt 0.5718 0.1304
vt 0.5718 0.2065
vt 0.5645 0.1304
vt 0.5645 0.2065
vt 0.5571 0.2065
vt 0.5571 0.1304
vt 0.5498 0.1304
vt 0.5498 0.2065
vt 0.5425 0.1304
vt 0.5430 0.2065
vt 0.5347 0.1304
vt 0.5352 0.2065
vt 0.5273 0.2065
vt 0.5269 0.1304
vt 0.5200 0.2065
vt 0.5190 0.1304
vt 0.5117 0.1304
vt 0.5127 0.2065
vt 0.5054 0.2070
vt 0.5039 0.1304
vt 0.4983 0.2070
vt 0.4968 0.1304
vt 0.4893 0.1304
vt 0.4912 0.2070
vt 0.4839 0.2070
vt 0.4817 0.1304
vt 0.4741 0.1304
vt 0.4763 0.2075
vt 0.4688 0.2075
vt 0.4661 0.1304
vt 0.4612 0.2080
vt 0.4585 0.1304
vt 0.4539 0.2080
vt 0.4509 0.1304
vt 0.4465 0.2085
vt 0.4434 0.1304
vt 0.4360 0.1304
vt 0.4395 0.2090
vt 0.4316 0.2002
vt 0.4287 0.1304
vt 0.4321 0.2090
vt 0.6611 0.2109
vt 0.6680 0.2139
vt 0.6538 0.2085
vt 0.7305 0.1309
vt 0.7344 0.1436
vt 0.7305 0.1436
vt 0.7344 0.1309
vt 0.7383 0.1436
vt 0.7383 0.1309
vt 0.7427 0.1436
vt 0.7427 0.1309
vt 0.7476 0.1436
vt 0.7476 0.1309
vt 0.7515 0.1436
vt 0.7515 0.1309
vt 0.7559 0.1436
vt 0.7559 0.1309
vt 0.7593 0.1436
vt 0.7593 0.1309
vt 0.7622 0.1436
vt 0.7622 0.1309
vt 0.7661 0.1309
vt 0.7661 0.1436
vt 0.7700 0.1436
vt 0.7700 0.1309
vt 0.7744 0.1309
vt 0.7744 0.1436
vt 0.7788 0.1309
vt 0.7788 0.1436
vt 0.7832 0.1436
vt 0.7832 0.1309
vt 0.7876 0.1436
vt 0.7876 0.1309
vt 0.7910 0.1436
vt 0.7910 0.1309
vt 0.7939 0.1436
vt 0.7939 0.1309
vt 0.7979 0.1309
vt 0.7979 0.1436
vt 0.8018 0.1436
vt 0.8018 0.1309
vt 0.8062 0.1309
vt 0.8062 0.1436
vt 0.8105 0.1436
vt 0.8105 0.1309
vt 0.8149 0.1436
vt 0.8149 0.1309
vt 0.8193 0.1436
vt 0.8193 0.1309
vt 0.8228 0.1436
vt 0.8228 0.1309
vt 0.8257 0.1436
vt 0.8257 0.1309
vt 0.8291 0.1436
vt 0.8291 0.1309
vt 0.8335 0.1436
vt 0.8335 0.1309
vt 0.8379 0.1436
vt 0.8379 0.1309
vt 0.8423 0.1436
vt 0.8423 0.1309
vt 0.8467 0.1436
vt 0.8467 0.1309
vt 0.8506 0.1436
vt 0.8506 0.1309
vt 0.8545 0.1309
vt 0.8545 0.1436
vt 0.8574 0.1436
vt 0.8574 0.1309
vn -0.0000 -0.0000 1.0000
vn 0.0000 0.0000 -1.0000
vn 0.9835 0.1810 0.0000
vn 0.9849 0.1733 -0.0000
vn 0.9849 0.1732 0.0000
vn 0.9821 0.1885 0.0000
vn 0.9835 0.1811 0.0000
vn 0.7188 -0.6952 -0.0000
vn 0.8847 -0.4661 0.0000
vn 0.7189 -0.6951 0.0000
vn 0.9591 -0.2831 -0.0000
vn 0.2052 0.9787 0.0000
vn 0.8782 0.4783 0.0000
vn 0.8644 0.5029 0.0000
vn 0.9541 0.2996 0.0000
vn 0.9947 0.1026 0.0000
vn 0.9947 -0.1026 -0.0000
vn 0.9541 -0.2996 0.0000
vn 0.8783 -0.4781 -0.0000
vn 0.8783 -0.4782 -0.0000
vn 0.7709 -0.6369 0.0000
vn 0.7708 -0.6370 -0.0000
vn 0.6371 -0.7708 0.0000
vn 0.6370 -0.7709 0.0000
vn 0.4783 -0.8782 0.0000
vn 0.2995 -0.9541 0.0000
vn 0.1025 -0.9947 0.0000
vn 0.1026 -0.9947 0.0000
vn -0.1026 -0.9947 0.0000
vn -0.2995 -0.9541 0.0000
vn -0.4784 -0.8782 -0.0000
vn -0.4783 -0.8782 0.0000
vn -0.6371 -0.7707 -0.0000
vn -0.6370 -0.7709 0.0000
vn -0.7709 -0.6370 -0.0000
vn -0.7708 -0.6371 0.0000
vn -0.8782 -0.4783 -0.0000
vn -0.9541 -0.2996 0.0000
vn -0.9947 -0.1026 0.0000
vn -0.9947 0.1026 0.0000
vn -0.9541 0.2996 0.0000
vn -0.8782 0.4783 -0.0000
vn -0.7708 0.6371 0.0000
vn -0.7710 0.6368 0.0000
vn -0.6369 0.7709 0.0000
vn -0.4783 0.8782 0.0000
vn -0.2995 0.9541 -0.0000
vn -0.2996 0.9541 0.0000
vn -0.1026 0.9947 0.0000
vn 0.1026 0.9947 0.0000
vn 0.2996 0.9541 0.0000
vn 0.2995 0.9541 -0.0000
vn 0.4783 0.8782 0.0000
vn 0.6370 0.7709 0.0000
vn 0.6370 0.7708 0.0000
vn 0.7709 0.6370 0.0000
vn 0.7710 0.6369 -0.0000
vn 0.8285 0.5601 0.0000
vn 0.7717 0.2362 0.5905
vn 0.7088 0.3858 0.5906
vn 0.8031 0.0787 0.5906
vn 0.8032 0.0788 0.5905
vn 0.8032 -0.0787 0.5906
vn 0.8032 -0.0788 0.5905
vn 0.7716 -0.2362 0.5906
vn 0.7717 -0.2362 0.5905
vn 0.7087 -0.3859 0.5906
vn 0.7088 -0.3858 0.5905
vn 0.6228 -0.5124 0.5912
vn 0.5124 -0.6228 0.5913
vn 0.3858 -0.7088 0.5905
vn 0.3859 -0.7087 0.5906
vn 0.2362 -0.7716 0.5906
vn 0.0787 -0.8032 0.5905
vn -0.0787 -0.8032 0.5905
vn -0.2363 -0.7716 0.5905
vn -0.2362 -0.7717 0.5905
vn -0.3858 -0.7088 0.5906
vn -0.5124 -0.6228 0.5912
vn -0.6228 -0.5125 0.5911
vn -0.6228 -0.5124 0.5912
vn -0.7088 -0.3858 0.5906
vn -0.7717 -0.2362 0.5905
vn -0.8031 -0.0787 0.5906
vn -0.8032 0.0787 0.5905
vn -0.7716 0.2362 0.5906
vn -0.7088 0.3858 0.5906
vn -0.7088 0.3859 0.5906
vn -0.6228 0.5124 0.5913
vn -0.6228 0.5124 0.5912
vn -0.5124 0.6228 0.5912
vn -0.3858 0.7088 0.5906
vn -0.3859 0.7087 0.5906
vn -0.2362 0.7717 0.5905
vn -0.2363 0.7717 0.5905
vn -0.0788 0.8032 0.5905
vn 0.0787 0.8031 0.5906
vn 0.2363 0.7717 0.5905
vn 0.2362 0.7717 0.5905
vn 0.3858 0.7087 0.5906
vn 0.3858 0.7088 0.5906
vn 0.5124 0.6228 0.5912
vn 0.5125 0.6228 0.5911
vn 0.6228 0.5124 0.5913
vn 0.6228 0.5124 0.5912
vn -0.6370 0.7708 0.0000
vn -0.6371 0.7708 -0.0000
vn -0.4782 0.8783 0.0000
vn 0.4782 0.8783 0.0000
vn 0.4782 0.8782 -0.0000
vn 0.6371 0.7708 -0.0000
vn 0.7709 0.6369 -0.0000
vn 0.7708 0.6371 0.0000
vn 0.8783 0.4782 0.0000
vn 0.9947 0.1025 0.0000
vn 0.9541 -0.2995 -0.0000
vn 0.8782 -0.4782 0.0000
vn 0.6369 -0.7709 -0.0000
vn 0.4782 -0.8783 0.0000
vn 0.2996 -0.9541 0.0000
vn -0.2996 -0.9541 0.0000
vn -0.4782 -0.8783 0.0000
vn -0.6369 -0.7709 0.0000
vn -0.7708 -0.6370 0.0000
vn -0.8783 -0.4781 0.0000
vn -0.8783 -0.4782 0.0000
vn -0.9541 -0.2995 0.0000
vn -0.8783 0.4782 -0.0000
vn -0.7709 0.6370 -0.0000
vn 0.9821 0.1886 0.0000
vn 0.9821 0.1884 -0.0000
usemtl M_BD1_Head_Body
s 1
f 1/1/1 2/2/1 3/3/1
f 1/1/1 3/3/1 4/4/1
f 5/5/1 1/1/1 4/4/1
f 5/5/1 4/4/1 6/6/1
f 7/7/1 5/5/1 6/6/1
f 5/5/1 7/7/1 8/8/1
f 9/9/2 10/10/2 11/11/2
f 10/10/2 9/9/2 12/12/2
f 13/13/2 12/12/2 9/9/2
f 12/12/2 13/13/2 14/14/2
f 15/15/2 14/14/2 13/13/2
f 16/16/2 15/15/2 13/13/2
f 17/17/1 18/18/1 19/19/1
f 18/18/1 17/17/1 20/20/1
f 21/21/1 20/20/1 17/17/1
f 17/17/1 22/22/1 21/21/1
f 23/23/1 21/21/1 22/22/1
f 22/22/1 24/24/1 23/23/1
f 25/25/1 23/23/1 24/24/1
f 23/23/1 25/25/1 26/26/1
f 27/27/1 26/26/1 25/25/1
f 27/27/1 25/25/1 28/28/1
f 29/29/1 27/27/1 28/28/1
f 29/29/1 28/28/1 30/30/1
f 31/31/1 29/29/1 30/30/1
f 29/29/1 31/31/1 32/32/1
f 33/33/1 32/32/1 31/31/1
f 32/32/1 33/33/1 34/34/1
f 35/35/1 34/34/1 33/33/1
f 34/34/1 35/35/1 36/36/1
f 35/35/1 37/37/1 36/36/1
f 37/37/1 35/35/1 38/38/1
f 38/38/1 39/39/1 37/37/1
f 38/38/1 40/40/1 39/39/1
f 41/41/1 39/39/1 40/40/1
f 39/39/1 41/41/1 42/42/1
f 43/43/1 42/42/1 41/41/1
f 41/41/1 44/44/1 43/43/1
f 45/45/1 43/43/1 44/44/1
f 44/44/1 46/46/1 45/45/1
f 47/47/1 45/45/1 46/46/1
f 47/47/1 46/46/1 48/48/1
f 49/49/1 47/47/1 48/48/1
f 47/47/1 49/49/1 50/50/1
f 51/51/1 50/50/1 49/49/1
f 50/50/1 51/51/1 52/52/1
f 53/53/1 52/52/1 51/51/1
f 53/53/1 51/51/1 54/54/1
f 54/54/1 55/55/1 53/53/1
f 55/55/1 54/54/1 56/56/1
f 57/57/1 55/55/1 56/56/1
f 55/55/1 57/57/1 58/58/1
f 57/57/1 59/59/1 58/58/1
f 59/59/1 57/57/1 60/60/1
f 60/60/1 61/61/1 59/59/1
f 60/60/1 62/62/1 61/61/1
f 63/63/1 61/61/1 62/62/1
f 61/61/1 63/63/1 64/64/1
f 65/65/1 64/64/1 63/63/1
f 64/64/1 65/65/1 66/66/1
f 67/67/1 66/66/1 65/65/1
f 66/66/1 67/67/1 68/68/1
f 69/69/1 68/68/1 67/67/1
f 69/69/1 67/67/1 70/70/1
f 71/71/1 69/69/1 70/70/1
f 69/69/1 71/71/1 72/72/1
f 73/73/1 72/72/1 71/71/1
f 72/72/1 73/73/1 74/74/1
f 73/73/1 75/75/1 74/74/1
f 75/75/1 73/73/1 76/76/1
f 76/76/1 77/77/1 75/75/1
f 77/77/1 76/76/1 78/78/1
f 78/78/1 79/79/1 77/77/1
f 79/79/1 78/78/1 80/80/1
f 19/81/1 79/79/1 80/80/1
f 79/79/1 19/81/1 18/82/1
f 12/12/3 3/3/4 10/10/5
f 12/12/3 6/6/6 4/4/7
f 3/3/8 2/83/9 10/10/10
f 10/10/10 2/83/9 11/84/11
f 15/15/12 8/85/12 7/7/12
f 8/85/12 15/15/12 16/86/12
f 81/87/13 16/88/14 13/89/15
f 81/87/13 13/89/15 82/90/15
f 82/90/15 13/89/15 9/91/16
f 82/90/15 9/91/16 83/92/16
f 83/92/16 9/91/16 11/93/11
f 83/92/16 11/93/11 84/94/17
f 11/93/11 85/95/18 84/94/17
f 2/96/9 86/97/18 11/93/11
f 85/95/18 11/93/11 86/97/18
f 87/98/19 85/95/18 86/97/18
f 85/95/18 87/98/19 88/99/20
f 89/100/21 88/99/20 87/98/19
f 88/99/20 89/100/21 90/101/22
f 90/101/22 89/100/21 91/102/23
f 92/103/24 91/102/23 89/100/21
f 92/103/24 93/104/25 91/102/23
f 94/105/25 93/104/25 92/103/24
f 95/106/26 93/104/25 94/105/25
f 93/104/25 95/106/26 96/107/26
f 97/108/27 96/107/26 95/106/26
f 96/107/26 97/108/27 98/109/28
f 97/108/27 99/110/29 98/109/28
f 100/111/29 99/110/29 97/108/27
f 100/111/29 101/112/30 99/110/29
f 101/112/30 100/111/29 102/113/30
f 102/113/30 103/114/31 101/112/30
f 104/115/32 103/114/31 102/113/30
f 104/115/32 105/116/33 103/114/31
f 106/117/34 105/116/33 104/115/32
f 107/118/35 105/116/33 106/117/34
f 105/116/33 107/118/35 108/119/36
f 107/118/35 109/120/37 108/119/36
f 109/120/37 107/118/35 110/121/37
f 110/121/37 111/122/38 109/120/37
f 111/122/38 110/121/37 112/123/38
f 112/123/38 113/124/39 111/122/38
f 113/124/39 112/123/38 114/125/39
f 115/126/40 113/124/39 114/125/39
f 113/124/39 115/126/40 116/127/40
f 117/128/41 116/127/40 115/126/40
f 116/127/40 117/128/41 118/129/41
f 117/128/41 119/130/42 118/129/41
f 119/130/42 117/128/41 120/131/42
f 121/132/43 119/130/42 120/131/42
f 119/130/42 121/132/43 122/133/44
f 123/134/45 122/133/44 121/132/43
f 122/133/44 123/134/45 124/135/45
f 124/135/45 123/134/45 125/136/46
f 125/136/46 123/134/45 126/137/46
f 127/138/47 125/136/46 126/137/46
f 125/136/46 127/138/47 128/139/48
f 128/139/48 127/138/47 129/140/49
f 129/140/49 127/138/47 130/141/49
f 131/142/50 129/140/49 130/141/49
f 129/140/49 131/142/50 132/143/50
f 133/144/51 132/143/50 131/142/50
f 132/143/50 133/144/51 134/145/52
f 135/146/53 134/145/52 133/144/51
f 134/145/52 135/146/53 136/147/53
f 137/148/54 136/147/53 135/146/53
f 136/147/53 137/148/54 138/149/55
f 138/149/55 137/148/54 139/150/56
f 139/150/56 137/148/54 140/151/57
f 139/150/56 140/151/57 16/152/14
f 139/150/56 16/152/14 81/153/13
f 140/151/57 8/154/58 16/152/14
f 5/155/59 8/156/60 18/18/60
f 18/18/60 20/20/59 5/155/59
f 1/157/61 5/155/59 20/20/59
f 20/20/59 21/21/62 1/157/61
f 2/96/63 1/157/61 21/21/62
f 21/21/62 23/23/64 2/96/63
f 26/26/65 2/96/63 23/23/64
f 2/96/63 26/26/65 86/97/66
f 27/27/67 86/97/66 26/26/65
f 86/97/66 27/27/67 87/98/68
f 29/29/69 87/98/68 27/27/67
f 87/98/68 29/29/69 89/100/69
f 32/32/70 89/100/69 29/29/69
f 89/100/69 32/32/70 92/103/70
f 32/32/70 94/105/71 92/103/70
f 32/32/70 34/34/72 94/105/71
f 34/34/72 95/106/73 94/105/71
f 34/34/72 36/36/73 95/106/73
f 36/36/73 97/108/74 95/106/73
f 36/36/73 37/37/74 97/108/74
f 37/37/74 100/111/75 97/108/74
f 37/37/74 39/39/75 100/111/75
f 42/42/76 100/111/75 39/39/75
f 100/111/75 42/42/76 102/113/77
f 43/43/78 102/113/77 42/42/76
f 102/113/77 43/43/78 104/115/78
f 45/45/79 104/115/78 43/43/78
f 104/115/78 45/45/79 106/117/79
f 47/47/80 106/117/79 45/45/79
f 106/117/79 47/47/80 107/118/81
f 110/121/82 107/118/81 47/47/80
f 110/121/82 47/47/80 50/50/82
f 112/123/83 110/121/82 50/50/82
f 112/123/83 50/50/82 52/52/83
f 52/52/83 114/125/84 112/123/83
f 114/125/84 52/52/83 53/53/84
f 53/53/84 115/126/85 114/125/84
f 115/126/85 53/53/84 55/55/85
f 58/58/86 115/126/85 55/55/85
f 115/126/85 58/58/86 117/128/86
f 59/59/87 117/128/86 58/58/86
f 117/128/86 59/59/87 120/131/88
f 61/61/89 120/131/88 59/59/87
f 120/131/88 61/61/89 121/132/90
f 64/64/91 121/132/90 61/61/89
f 121/132/90 64/64/91 123/134/91
f 126/137/92 123/134/91 64/64/91
f 64/64/91 66/66/93 126/137/92
f 127/138/94 126/137/92 66/66/93
f 127/138/94 66/66/93 68/68/95
f 130/141/96 127/138/94 68/68/95
f 130/141/96 68/68/95 69/69/96
f 72/72/97 130/141/96 69/69/96
f 130/141/96 72/72/97 131/142/97
f 74/74/98 131/142/97 72/72/97
f 131/142/97 74/74/98 133/144/99
f 75/75/100 133/144/99 74/74/98
f 133/144/99 75/75/100 135/146/101
f 77/77/102 135/146/101 75/75/100
f 135/146/101 77/77/102 137/148/103
f 79/79/104 137/148/103 77/77/102
f 137/148/103 79/79/104 140/151/105
f 8/154/60 140/151/105 79/79/104
f 79/79/104 18/82/60 8/154/60
f 141/158/106 33/159/46 31/160/107
f 142/161/108 33/159/46 141/158/106
f 142/161/108 35/162/47 33/159/46
f 35/162/47 142/161/108 143/163/47
f 143/163/47 38/164/49 35/162/47
f 144/165/49 38/164/49 143/163/47
f 144/165/49 40/166/50 38/164/49
f 145/167/50 40/166/50 144/165/49
f 145/167/50 41/168/52 40/166/50
f 146/169/52 41/168/52 145/167/50
f 146/169/52 44/170/109 41/168/52
f 147/171/110 44/170/109 146/169/52
f 147/171/110 46/172/54 44/170/109
f 148/173/111 46/172/54 147/171/110
f 148/173/111 48/174/112 46/172/54
f 149/175/113 48/174/112 148/173/111
f 150/176/114 48/174/112 149/175/113
f 48/174/112 150/176/114 49/177/13
f 150/176/114 51/178/15 49/177/13
f 51/178/15 150/176/114 151/179/15
f 152/180/115 51/178/15 151/179/15
f 51/178/15 152/180/115 54/181/16
f 153/182/17 54/181/16 152/180/115
f 54/181/16 153/182/17 56/183/17
f 153/182/17 57/184/116 56/183/17
f 57/184/116 153/182/17 154/185/116
f 154/185/116 60/186/117 57/184/116
f 60/186/117 154/185/116 155/187/19
f 155/187/19 62/188/21 60/186/117
f 62/188/21 155/187/19 156/189/21
f 156/189/21 63/190/118 62/188/21
f 63/190/118 156/189/21 157/191/24
f 158/192/119 63/190/118 157/191/24
f 63/190/118 158/192/119 65/193/25
f 65/193/25 158/192/119 67/194/120
f 67/194/120 158/192/119 159/195/120
f 160/196/28 67/194/120 159/195/120
f 67/194/120 160/196/28 70/197/28
f 70/197/28 160/196/28 71/198/29
f 71/198/29 160/196/28 161/199/29
f 71/198/29 161/199/29 73/200/121
f 73/200/121 161/199/29 162/201/30
f 73/200/121 162/201/30 76/202/122
f 76/202/122 162/201/30 163/203/122
f 76/202/122 163/203/122 78/204/123
f 78/204/123 163/203/122 164/205/123
f 78/204/123 164/205/123 80/206/35
f 80/206/35 164/205/123 165/207/124
f 80/206/35 165/207/124 19/208/125
f 166/209/126 19/208/125 165/207/124
f 19/208/125 166/209/126 17/210/127
f 167/211/127 17/210/127 166/209/126
f 17/210/127 167/211/127 22/212/39
f 168/213/39 22/212/39 167/211/127
f 22/212/39 168/213/39 24/214/40
f 169/215/40 24/214/40 168/213/39
f 24/214/40 169/215/40 25/216/41
f 170/217/41 25/216/41 169/215/40
f 25/216/41 170/217/41 28/218/42
f 171/219/128 28/218/42 170/217/41
f 172/220/129 28/218/42 171/219/128
f 28/218/42 172/220/129 30/221/129
f 30/221/129 172/220/129 31/222/107
f 141/223/106 31/222/107 172/220/129
f 3/3/4 12/12/3 4/4/7
f 6/6/6 12/12/3 14/14/130
f 15/15/131 6/6/6 14/14/130
f 6/6/6 15/15/131 7/7/6
