# Blender v2.78 (sub 0) OBJ File: ''
# www.blender.org
mtllib right_lower_leg_detail_1.mtl
o BuddyDroid_01_rig.076_BuddyDroid_01_rig.077
v -4.265600 14.794601 -3.727794
v -4.265600 15.094047 -3.926925
v -4.265600 15.131977 -3.869132
v -4.265600 14.832631 -3.670500
v -4.265600 14.446547 -4.252821
v -4.265600 14.746490 -4.451454
v -4.265600 14.778831 -4.402644
v -4.265600 14.479585 -4.203014
v -3.951981 14.830336 -4.436881
v -4.033131 14.894616 -4.443768
v -3.951981 14.846805 -4.412026
v -4.033131 14.878147 -4.468522
v -4.037423 14.721138 -3.679184
v -3.951981 14.769049 -3.710825
v -3.951981 14.453933 -4.185946
v -3.951981 15.129182 -3.986016
v -3.951981 15.145552 -3.961162
v -4.625234 14.746490 -4.451454
v -4.625134 14.746490 -4.451454
v -4.033131 15.193263 -3.992803
v -4.033131 15.176794 -4.017657
v -4.625234 15.176694 -4.017557
v -4.625234 15.193064 -3.992703
v -4.625234 15.094047 -3.926925
v -4.625234 15.131977 -3.869132
v -4.625234 14.832631 -3.670500
v -4.625234 14.446547 -4.252821
v -4.625234 14.479585 -4.203014
v -4.625234 14.794601 -3.727794
v -4.625234 14.878147 -4.468522
v -4.625234 14.894616 -4.443768
v -4.625134 15.151340 -4.614252
v -4.219985 15.433518 -4.188141
v -4.219985 15.151340 -4.614352
v -4.625134 15.433418 -4.188041
v -4.625234 14.778831 -4.402644
v -4.625234 14.721138 -3.679184
v -3.956772 14.876450 -4.431690
v -3.956772 15.158827 -4.005679
v -4.625234 14.406520 -4.153904
v -4.037423 14.406520 -4.153904
v -4.431393 14.406421 -3.726496
v -4.384280 14.336650 -3.699646
v -4.326288 14.378872 -3.635764
v -4.354935 14.462317 -3.642053
v -4.354935 14.659152 -3.772810
v -4.431393 14.603256 -3.857254
v -4.433789 14.336350 -3.832300
v -4.386077 14.283548 -3.779798
v -4.433789 14.533186 -3.963058
v -4.331079 14.240028 -3.845476
v -4.361223 14.278856 -3.919039
v -4.361223 14.475692 -4.049798
v -4.241245 14.452834 -4.084433
v -4.241245 14.255999 -3.953676
v -4.240347 14.222760 -3.871627
v -4.148417 14.238132 -3.848371
v -4.119870 14.473197 -4.053590
v -4.119870 14.276361 -3.922832
v -4.037922 14.529093 -3.969247
v -4.043312 14.332258 -3.838489
v -4.090524 14.280454 -3.784489
v -4.037822 14.599163 -3.863443
v -4.040916 14.402328 -3.732685
v -4.088628 14.333455 -3.704337
v -4.113582 14.656557 -3.776703
v -4.143626 14.376975 -3.638659
v -4.113582 14.459722 -3.645846
v -4.233459 14.679515 -3.742067
v -4.233459 14.482679 -3.611310
v -4.234458 14.394342 -3.612507
v -4.625234 14.640786 -3.800359
v -4.625234 14.486872 -4.032729
v -4.234857 14.308502 -3.742067
vt 0.0065 0.0869
vt 0.0065 0.0796
vt 0.0079 0.0796
vt 0.0079 0.0869
vt 0.0079 0.0405
vt 0.0079 0.0479
vt 0.0067 0.0479
vt 0.0067 0.0405
vt 0.0014 0.0503
vt 0.0031 0.0522
vt 0.0015 0.0508
vt 0.0031 0.0513
vt 0.0032 0.0903
vt 0.0015 0.0889
vt 0.0079 0.0884
vt 0.0367 0.0151
vt 0.0367 0.0142
vt 0.0461 0.0151
vt 0.0367 0.0039
vt 0.0461 0.0029
vt 0.0367 0.0029
vt 0.0153 0.0479
vt 0.0079 0.0488
vt 0.0153 0.0479
vt 0.0015 0.0762
vt 0.0031 0.0757
vt 0.0015 0.0771
vt 0.0031 0.0752
vt 0.0153 0.0752
vt 0.0153 0.0757
vt 0.0079 0.0781
vt 0.0153 0.0781
vt 0.0152 0.0796
vt 0.0152 0.0869
vt 0.0153 0.0405
vt 0.0153 0.0391
vt 0.0079 0.0391
vt 0.0152 0.0884
vt 0.0001 0.0874
vt 0.0001 0.0786
vt 0.0381 0.0215
vt 0.0454 0.0215
vt 0.0153 0.0513
vt 0.0153 0.0522
vt 0.0152 0.0586
vt 0.0070 0.0688
vt 0.0070 0.0586
vt 0.0152 0.0688
vt 0.0153 0.0488
vt 0.0152 0.0903
vt 0.0290 0.0142
vt 0.0290 0.0039
vt 0.0359 0.0142
vt 0.0359 0.0039
vt 0.0153 0.0376
vt 0.0032 0.0376
vt 0.0014 0.0386
vt 0.0016 0.0757
vt 0.0016 0.0518
vt 0.0070 0.5059
vt 0.0087 0.5061
vt 0.0087 0.5078
vt 0.0070 0.5081
vt 0.0020 0.5081
vt 0.0020 0.5059
vt 0.0070 0.5032
vt 0.0086 0.5056
vt 0.0086 0.5034
vt 0.0019 0.5032
vt 0.0087 0.5012
vt 0.0087 0.5029
vt 0.0070 0.5010
vt 0.0019 0.5010
vt 0.0019 0.4985
vt 0.0070 0.4985
vt 0.0086 0.5002
vt 0.0086 0.4985
vt 0.0086 0.4966
vt 0.0019 0.4961
vt 0.0070 0.4961
vt 0.0019 0.4937
vt 0.0070 0.4937
vt 0.0087 0.4956
vt 0.0087 0.4937
vt 0.0019 0.4912
vt 0.0070 0.4912
vt 0.0086 0.4932
vt 0.0085 0.4912
vt 0.0019 0.4888
vt 0.0087 0.4888
vt 0.0087 0.4907
vt 0.0070 0.4888
vt 0.0019 0.4863
vt 0.0069 0.4834
vt 0.0019 0.4834
vt 0.0069 0.4863
vt 0.0085 0.4883
vt 0.0085 0.4844
vt 0.0085 0.4863
vt 0.0031 0.0254
vt 0.0047 0.0278
vt 0.0031 0.0303
vt 0.0072 0.0273
vt 0.0014 0.0254
vt 0.0153 0.0254
vt 0.0031 0.0327
vt 0.0097 0.0278
vt 0.0014 0.0376
vt 0.0153 0.0288
vt 0.0113 0.0303
vt 0.0048 0.0352
vt 0.0114 0.0327
vt 0.0074 0.0356
vt 0.0153 0.0347
vt 0.0099 0.0347
vt 0.0098 0.5017
vt 0.0118 0.5044
vt 0.0118 0.5012
vt 0.0098 0.5073
vt 0.0137 0.5017
vt 0.0118 0.5078
vt 0.0149 0.5034
vt 0.0137 0.5071
vt 0.0149 0.5056
vn 1.0000 0.0000 0.0000
vn 0.5774 0.6808 -0.4507
vn 0.5773 0.6806 -0.4511
vn 0.5774 0.6806 -0.4510
vn -0.0001 0.5510 0.8345
vn -0.0001 0.5511 0.8344
vn 0.9990 0.0393 -0.0236
vn 0.9989 0.0393 -0.0236
vn -0.0001 0.9638 -0.2668
vn -0.0001 0.9658 -0.2595
vn -0.0000 0.9638 -0.2668
vn -0.0000 0.8344 -0.5511
vn 0.5745 0.6847 -0.4485
vn 0.5745 0.6847 -0.4484
vn 0.0000 0.8345 -0.5510
vn -0.0000 0.8344 -0.5512
vn 0.0000 0.8345 -0.5511
vn 0.0000 0.5511 0.8345
vn -0.0000 0.5510 0.8345
vn -0.0000 -0.5511 -0.8345
vn 0.0000 -0.8345 0.5510
vn -0.0000 -0.8344 0.5511
vn -0.0000 -0.8345 0.5511
vn -0.0000 0.5511 0.8344
vn -0.0000 -0.5565 -0.8309
vn -0.0000 -0.5602 -0.8284
vn -0.0000 -0.5511 -0.8344
vn 0.0000 -0.5510 -0.8345
vn -0.0000 0.5509 0.8345
vn 0.7804 0.5203 -0.3467
vn 0.7804 0.5203 -0.3469
vn 0.9182 0.3296 -0.2197
vn 0.0000 -0.5603 -0.8283
vn -0.9064 -0.0630 0.4177
vn -0.7801 -0.3230 0.5358
vn -0.4733 -0.0948 0.8758
vn -0.5502 0.2044 0.8096
vn -0.5725 0.4548 0.6823
vn -0.9442 0.1810 0.2753
vn -0.9195 -0.3853 -0.0786
vn -0.7875 -0.6064 0.1102
vn -0.9565 -0.1581 -0.2450
vn -0.4963 -0.8353 -0.2364
vn -0.5834 -0.6544 -0.4810
vn -0.6064 -0.4411 -0.6616
vn -0.0157 -0.5510 -0.8344
vn -0.0157 -0.7636 -0.6455
vn -0.0157 -0.9262 -0.3768
vn 0.4732 -0.8440 -0.2524
vn 0.5672 -0.4569 -0.6853
vn 0.5441 -0.6703 -0.5047
vn 0.9434 -0.1965 -0.2673
vn 0.9035 -0.4164 -0.1021
vn 0.7787 -0.6214 0.0865
vn 0.9546 0.1578 0.2525
vn 0.9155 -0.0789 0.3946
vn 0.7887 -0.3392 0.5127
vn 0.5983 0.4408 0.6692
vn 0.4973 -0.1104 0.8605
vn 0.5753 0.1891 0.7958
vn 0.0158 0.5510 0.8343
vn 0.0158 0.2996 0.9539
vn 0.0158 -0.0157 0.9998
vn 0.2920 -0.7970 0.5287
vn 0.4730 -0.7331 0.4887
vn -0.0000 -0.8344 0.5512
vn 0.5587 -0.6925 0.4564
vn 0.4641 -0.7394 0.4877
vn 0.0000 -0.8343 0.5512
vn -0.0000 -0.8345 0.5509
usemtl M_BD1_Legs
s 1
f 1/1/1 2/2/1 3/3/1
f 3/3/1 4/4/1 1/1/1
f 5/5/1 6/6/1 7/7/1
f 7/7/1 8/8/1 5/5/1
f 9/9/2 10/10/3 11/11/4
f 10/10/3 9/9/2 12/12/4
f 13/13/5 14/14/6 1/15/6
f 9/16/1 11/17/7 15/18/1
f 15/18/1 16/19/8 14/20/1
f 14/20/1 16/19/8 17/21/1
f 18/22/9 7/23/10 19/24/11
f 19/24/12 7/23/12 6/6/12
f 16/25/13 20/26/14 17/27/13
f 20/26/14 16/25/13 21/28/13
f 22/29/12 20/26/15 21/28/15
f 20/26/15 22/29/12 23/30/16
f 2/31/15 24/32/17 25/33/17
f 2/31/15 25/33/15 3/3/15
f 3/3/18 25/33/18 26/34/18
f 3/3/19 26/34/19 4/4/18
f 6/6/20 5/5/20 19/24/20
f 19/24/20 5/5/20 27/35/20
f 28/36/21 5/5/22 8/37/22
f 5/5/22 28/36/21 27/35/22
f 4/4/22 26/34/22 29/38/22
f 4/4/23 29/38/21 1/15/23
f 2/2/24 14/39/6 17/40/18
f 14/39/6 2/2/24 1/1/6
f 9/16/20 15/18/25 7/41/20
f 7/41/20 15/18/25 8/42/26
f 30/43/15 10/10/17 12/12/17
f 10/10/17 30/43/15 31/44/17
f 32/45/16 33/46/17 34/47/12
f 33/46/17 32/45/16 35/48/17
f 12/12/27 9/9/20 7/23/20
f 30/43/27 12/12/27 7/23/20
f 30/43/27 7/23/28 36/49/27
f 37/50/19 13/13/5 1/15/6
f 1/15/24 29/38/24 37/50/29
f 34/51/30 33/52/31 38/53/32
f 33/52/31 39/54/32 38/53/32
f 39/54/32 11/17/7 38/53/32
f 11/17/7 39/54/32 16/19/8
f 16/19/8 15/18/1 11/17/7
f 36/49/17 7/23/17 18/22/17
f 2/31/24 23/30/24 24/32/24
f 23/30/24 2/31/24 20/26/18
f 2/31/24 17/27/18 20/26/18
f 8/37/26 40/55/26 28/36/26
f 40/55/26 8/37/26 41/56/33
f 8/37/26 15/57/25 41/56/33
f 39/58/24 21/28/18 16/25/19
f 21/28/18 39/58/24 33/46/24
f 33/46/24 22/29/18 21/28/18
f 22/29/24 33/46/24 35/48/24
f 34/47/27 31/44/28 32/45/27
f 31/44/28 34/47/27 10/10/28
f 34/47/27 38/59/28 10/10/28
f 11/11/28 10/10/28 38/59/28
f 42/60/34 43/61/35 44/62/36
f 45/63/37 42/60/34 44/62/36
f 46/64/38 42/60/34 45/63/37
f 42/60/34 46/64/38 47/65/39
f 47/65/39 48/66/40 42/60/34
f 42/60/34 48/66/40 43/67/35
f 48/66/40 49/68/41 43/67/35
f 48/66/40 47/65/39 50/69/42
f 48/66/40 51/70/43 49/71/41
f 51/70/43 48/66/40 52/72/44
f 50/69/42 52/72/44 48/66/40
f 52/72/44 50/69/42 53/73/45
f 52/72/44 53/73/45 54/74/46
f 54/74/46 55/75/47 52/72/44
f 52/72/44 55/75/47 51/76/43
f 55/75/47 56/77/48 51/76/43
f 55/75/47 57/78/49 56/77/48
f 55/75/47 54/74/46 58/79/50
f 57/78/49 55/75/47 59/80/51
f 58/79/50 59/80/51 55/75/47
f 59/80/51 58/79/50 60/81/52
f 60/81/52 61/82/53 59/80/51
f 59/80/51 61/82/53 57/83/49
f 61/82/53 62/84/54 57/83/49
f 61/82/53 60/81/52 63/85/55
f 63/85/55 64/86/56 61/82/53
f 61/82/53 64/86/56 62/87/54
f 64/86/56 65/88/57 62/87/54
f 64/86/56 63/85/55 66/89/58
f 64/86/56 67/90/59 65/91/57
f 67/90/59 64/86/56 68/92/60
f 66/89/58 68/92/60 64/86/56
f 68/92/60 66/89/58 69/93/61
f 45/94/37 69/93/61 46/95/38
f 69/93/61 70/96/62 68/92/60
f 69/93/61 45/94/37 70/96/62
f 68/92/60 70/96/62 67/97/59
f 44/98/36 70/96/62 45/94/37
f 70/96/62 71/99/63 67/97/59
f 70/96/62 44/98/36 71/99/63
f 13/100/64 66/101/22 63/102/65
f 13/100/64 69/103/66 66/101/22
f 63/102/65 14/104/67 13/100/64
f 37/105/66 69/103/66 13/100/64
f 60/106/68 14/104/67 63/102/65
f 37/105/66 46/107/66 69/103/66
f 15/108/67 14/104/67 60/106/68
f 46/107/66 37/105/66 72/109/22
f 15/108/67 60/106/68 41/56/64
f 46/107/66 72/109/22 47/110/22
f 41/56/64 60/106/68 58/111/21
f 72/109/22 50/112/66 47/110/22
f 41/56/64 58/111/21 54/113/22
f 50/112/66 72/109/22 73/114/66
f 41/56/64 54/113/22 40/55/22
f 73/114/66 53/115/22 50/112/66
f 40/55/22 54/113/22 53/115/22
f 53/115/22 73/114/66 40/55/22
f 51/116/22 74/117/22 49/68/23
f 49/68/23 74/117/22 43/67/22
f 56/118/66 74/117/22 51/116/22
f 43/67/22 74/117/22 44/119/21
f 57/120/21 74/117/22 56/118/66
f 44/119/21 74/117/22 71/121/69
f 62/122/70 74/117/22 57/120/21
f 71/121/69 74/117/22 67/123/22
f 65/124/66 74/117/22 62/122/70
f 67/123/22 74/117/22 65/124/66
