# Blender v2.78 (sub 0) OBJ File: ''
# www.blender.org
mtllib right_antenna_2.mtl
o BuddyDroid_01_rig.022_BuddyDroid_01_rig.023
v -9.791167 44.484718 -14.949407
v -9.729780 41.323471 -11.402575
v -9.836383 44.380909 -15.041935
v -9.786675 41.192711 -11.519060
v -9.935699 41.111862 -11.591126
v -9.954664 44.316730 -15.099129
v -10.100893 44.316730 -15.099129
v -10.119858 41.111862 -11.591126
v -10.219174 44.380909 -15.041935
v -10.268882 41.192711 -11.519060
v -10.325777 41.323471 -11.402575
v -10.264390 44.484718 -14.949407
v -10.219174 44.588528 -14.856877
v -10.268882 41.454128 -11.285992
v -10.119858 41.534977 -11.214025
v -10.100893 44.652607 -14.799684
v -9.954664 44.652607 -14.799684
v -9.935699 41.534977 -11.214025
v -9.836383 44.588528 -14.856877
v -9.786675 41.454128 -11.285992
v -10.027828 44.484718 -14.949407
vt 0.7432 0.2480
vt 0.7432 0.3091
vt 0.7407 0.2480
vt 0.7407 0.3091
vt 0.7388 0.3091
vt 0.7388 0.2480
vt 0.7368 0.2480
vt 0.7363 0.3091
vt 0.7349 0.2480
vt 0.7344 0.3091
vt 0.7554 0.2476
vt 0.7544 0.3091
vt 0.7534 0.2476
vt 0.7568 0.3086
vt 0.7515 0.2480
vt 0.7520 0.3091
vt 0.7495 0.3091
vt 0.7495 0.2480
vt 0.7476 0.2480
vt 0.7476 0.3091
vt 0.7451 0.2480
vt 0.7451 0.3091
vt 0.6743 0.2783
vt 0.6709 0.2773
vt 0.6743 0.2725
vt 0.6777 0.2773
vt 0.6689 0.2744
vt 0.6802 0.2749
vt 0.6689 0.2705
vt 0.6802 0.2710
vt 0.6714 0.2676
vt 0.6782 0.2681
vt 0.6748 0.2666
vn 0.9520 -0.2203 -0.2124
vn 0.5874 -0.5953 -0.5482
vn 0.5875 -0.5953 -0.5482
vn 0.5875 -0.5953 -0.5481
vn 0.0000 -0.7378 -0.6750
vn 0.0000 -0.7380 -0.6748
vn -0.0000 -0.7378 -0.6751
vn -0.5874 -0.5953 -0.5482
vn -0.5874 -0.5953 -0.5483
vn -0.5875 -0.5954 -0.5481
vn -0.9520 -0.2203 -0.2124
vn -0.9520 -0.2203 -0.2125
vn -0.9517 0.2360 0.1966
vn -0.5893 0.6129 0.5264
vn -0.0000 0.7565 0.6540
vn 0.5893 0.6129 0.5264
vn 0.5893 0.6129 0.5265
vn 0.9517 0.2360 0.1966
vn -0.0000 0.6668 -0.7453
vn 0.0000 0.6668 -0.7452
vn -0.0000 0.6667 -0.7453
vn 0.0000 0.6669 -0.7452
usemtl M_BD1_Head_Body
s 1
f 1/1/1 2/2/1 3/3/1
f 2/2/1 4/4/1 3/3/1
f 3/3/2 5/5/3 6/6/4
f 5/5/4 3/3/2 4/4/4
f 6/6/5 5/5/6 7/7/7
f 7/7/7 5/5/6 8/8/6
f 7/7/8 8/8/9 9/9/9
f 8/8/9 10/10/10 9/9/9
f 9/11/11 11/12/12 12/13/11
f 11/12/12 9/11/11 10/14/12
f 12/13/13 11/12/13 13/15/13
f 11/12/13 14/16/13 13/15/13
f 13/15/14 15/17/14 16/18/14
f 15/17/14 13/15/14 14/16/14
f 16/18/15 15/17/15 17/19/15
f 17/19/15 15/17/15 18/20/15
f 17/19/16 18/20/16 19/21/16
f 18/20/16 20/22/17 19/21/16
f 19/21/18 2/2/18 1/1/18
f 2/2/18 19/21/18 20/22/18
f 1/23/19 3/24/19 21/25/19
f 19/26/20 1/23/19 21/25/19
f 3/24/19 6/27/20 21/25/19
f 17/28/21 19/26/20 21/25/19
f 6/27/20 7/29/20 21/25/19
f 16/30/19 17/28/21 21/25/19
f 7/29/20 9/31/20 21/25/19
f 13/32/19 16/30/19 21/25/19
f 9/31/20 12/33/22 21/25/19
f 12/33/22 13/32/19 21/25/19
