# Blender v2.78 (sub 0) OBJ File: ''
# www.blender.org
mtllib scomp_link_hinge.mtl
o BuddyDroid_01_rig.074_BuddyDroid_01_rig.075
v -4.717863 15.193563 -7.188684
v -4.717863 15.316935 -7.242385
v -4.717863 15.408066 -6.865183
v -4.717863 15.096143 -7.095856
v -4.717863 15.451285 -7.250669
v -4.717863 15.036254 -6.975279
v -4.717863 15.580346 -7.212440
v -4.717863 15.021281 -6.841427
v -4.717863 15.688645 -7.132288
v -4.717863 15.052923 -6.710470
v -4.717863 15.763108 -7.019997
v -4.717863 15.127385 -6.598078
v -4.717863 15.794749 -6.888939
v -4.717863 15.235684 -6.517927
v -4.717863 15.779677 -6.755087
v -4.717863 15.364845 -6.479697
v -4.717863 15.719888 -6.634511
v -4.717863 15.499097 -6.487982
v -4.717863 15.622369 -6.541782
v -4.837740 15.746938 -7.187786
v -5.827008 15.746938 -7.187786
v -4.837740 15.836871 -7.052137
v -5.827008 15.836871 -7.052137
v -4.837740 15.875001 -6.893930
v -5.827008 15.875001 -6.893930
v -5.827008 15.856834 -6.732230
v -4.837740 15.856834 -6.732230
v -4.837740 15.784568 -6.586599
v -5.827008 15.784568 -6.586599
v -4.837740 15.666886 -6.474607
v -5.827008 15.666886 -6.474607
v -4.837740 15.517962 -6.409627
v -5.827008 15.517962 -6.409627
v -4.837740 15.355862 -6.399745
v -5.827008 15.355862 -6.399745
v -5.827008 15.199951 -6.445860
v -4.837740 15.199951 -6.445860
v -5.827008 15.069193 -6.542681
v -4.837740 15.069193 -6.542681
v -5.827008 14.979259 -6.678329
v -4.837740 14.979259 -6.678329
v -5.827008 14.941031 -6.836536
v -4.837740 14.941031 -6.836536
v -5.827008 14.959097 -6.998137
v -4.837740 14.959097 -6.998137
v -4.837740 15.031363 -7.143767
v -5.827008 15.031363 -7.143767
v -5.827008 15.149045 -7.255860
v -4.837740 15.149045 -7.255860
v -4.837740 15.616180 -7.284507
v -5.827008 15.616180 -7.284507
v -4.837740 15.460269 -7.330721
v -5.827008 15.460269 -7.330721
v -5.827008 15.297969 -7.320740
v -4.837740 15.297969 -7.320740
v -5.926025 15.189271 -7.195172
v -5.926025 15.089854 -7.100547
v -5.926025 15.315138 -7.250071
v -5.926025 15.028768 -6.977575
v -5.926025 15.452084 -7.258455
v -5.926025 15.013496 -6.840928
v -5.926025 15.583839 -7.219427
v -5.926025 15.045736 -6.707276
v -5.926025 15.694335 -7.137679
v -5.926025 15.121796 -6.592688
v -5.926025 15.770294 -7.023091
v -5.926025 15.232291 -6.510940
v -5.926025 15.802535 -6.889439
v -5.926025 15.363947 -6.471912
v -5.926025 15.787263 -6.752892
v -5.926025 15.500894 -6.480396
v -5.926025 15.726176 -6.629819
v -5.926025 15.626760 -6.535194
v -5.930816 15.408066 -6.865183
vt 0.4438 0.1147
vt 0.4443 0.1172
vt 0.4377 0.1182
vt 0.4429 0.1128
vt 0.4441 0.1191
vt 0.4409 0.1113
vt 0.4436 0.1216
vt 0.4385 0.1108
vt 0.4424 0.1235
vt 0.4358 0.1113
vt 0.4404 0.1245
vt 0.4336 0.1123
vt 0.4380 0.1250
vt 0.4319 0.1143
vt 0.4355 0.1245
vt 0.4309 0.1167
vt 0.4333 0.1235
vt 0.4309 0.1191
vt 0.4316 0.1216
vt 0.4456 0.0723
vt 0.4636 0.0723
vt 0.4456 0.0752
vt 0.4636 0.0752
vt 0.4456 0.0781
vt 0.4636 0.0781
vt 0.4636 0.0811
vt 0.4456 0.0811
vt 0.4456 0.0845
vt 0.4636 0.0845
vt 0.4456 0.0874
vt 0.4636 0.0874
vt 0.4456 0.0903
vt 0.4636 0.0903
vt 0.4456 0.0933
vt 0.4636 0.0933
vt 0.4636 0.0962
vt 0.4456 0.0962
vt 0.4636 0.0991
vt 0.4456 0.0991
vt 0.4636 0.1021
vt 0.4456 0.1021
vt 0.4636 0.1050
vt 0.4456 0.1050
vt 0.4636 0.1079
vt 0.4456 0.1079
vt 0.4453 0.1108
vt 0.4639 0.1108
vt 0.4646 0.1138
vt 0.4463 0.1138
vt 0.4419 0.1089
vt 0.4385 0.1084
vt 0.4351 0.1089
vt 0.4321 0.1104
vt 0.4297 0.1128
vt 0.4282 0.1162
vt 0.4282 0.1196
vt 0.4294 0.1226
vt 0.4316 0.1255
vt 0.4346 0.1270
vt 0.4380 0.1274
vt 0.4414 0.1270
vt 0.4448 0.1255
vt 0.4458 0.1226
vt 0.4644 0.1255
vt 0.4636 0.1226
vt 0.4463 0.1196
vt 0.4639 0.1196
vt 0.4641 0.1167
vt 0.4465 0.1167
vt 0.4668 0.1152
vt 0.4685 0.1138
vt 0.4658 0.1172
vt 0.4673 0.1118
vt 0.4709 0.1128
vt 0.4656 0.1196
vt 0.4705 0.1108
vt 0.4739 0.1108
vt 0.4736 0.1128
vt 0.4658 0.1221
vt 0.4771 0.1118
vt 0.4758 0.1138
vt 0.4666 0.1245
vt 0.4778 0.1152
vt 0.4670 0.1279
vt 0.4795 0.1138
vt 0.4683 0.1260
vt 0.4790 0.1177
vt 0.4707 0.1270
vt 0.4812 0.1167
vt 0.4702 0.1294
vt 0.4795 0.1201
vt 0.4734 0.1270
vt 0.4817 0.1201
vt 0.4736 0.1294
vt 0.4812 0.1235
vt 0.4768 0.1284
vt 0.4790 0.1226
vt 0.4758 0.1265
vt 0.4792 0.1260
vt 0.4778 0.1245
vt 0.4724 0.1201
vn 1.0000 0.0000 0.0000
vn 0.2838 0.6936 -0.6621
vn -0.0001 0.7266 -0.6871
vn 0.2825 0.8789 -0.3844
vn 0.0000 0.9154 -0.4025
vn 0.2825 0.9572 -0.0628
vn 0.0000 0.9980 -0.0629
vn 0.0000 0.9592 0.2829
vn 0.2833 0.9209 0.2676
vn 0.2839 0.7728 0.5677
vn -0.0000 0.8057 0.5923
vn 0.2848 0.5299 0.7988
vn 0.0000 0.5511 0.8344
vn 0.2840 0.2288 0.9311
vn 0.0000 0.2370 0.9715
vn 0.2834 -0.1102 0.9527
vn -0.0000 -0.1104 0.9939
vn 0.0000 -0.4473 0.8944
vn 0.2838 -0.4257 0.8592
vn 0.0000 -0.7265 0.6871
vn 0.2837 -0.6936 0.6621
vn 0.0000 -0.9155 0.4024
vn 0.2825 -0.8789 0.3844
vn 0.0000 -0.9980 0.0633
vn 0.2825 -0.9572 0.0628
vn 0.0000 -0.9591 -0.2829
vn 0.2834 -0.9209 -0.2676
vn 0.2839 -0.7727 -0.5677
vn -0.0000 -0.8057 -0.5924
vn 0.0000 -0.5511 -0.8345
vn 0.2846 -0.5299 -0.7989
vn 0.5572 -0.6671 -0.4944
vn 0.5587 -0.4565 -0.6925
vn 0.5588 -0.7950 -0.2361
vn 0.5601 -0.1972 -0.8046
vn 0.5593 -0.8271 0.0551
vn 0.5576 -0.7618 0.3299
vn 0.5587 -0.5981 0.5745
vn 0.5598 -0.3706 0.7411
vn 0.5577 -0.0945 0.8247
vn 0.5601 0.1972 0.8046
vn 0.5587 0.4564 0.6925
vn 0.5572 0.6671 0.4944
vn 0.5588 0.7950 0.2361
vn 0.5593 0.8271 -0.0551
vn 0.5576 0.7618 -0.3298
vn 0.5588 0.5981 -0.5745
vn 0.5598 0.3706 -0.7412
vn 0.2838 0.4256 -0.8592
vn 0.5576 0.0944 -0.8247
vn 0.0000 0.4473 -0.8944
vn 0.2834 0.1102 -0.9527
vn -0.0000 0.1104 -0.9939
vn -0.0000 -0.2370 -0.9715
vn 0.2841 -0.2289 -0.9311
vn -0.5911 -0.4493 -0.6699
vn -0.5916 -0.6469 -0.4812
vn -0.5892 -0.1886 -0.7857
vn -0.5916 -0.6469 -0.4811
vn -0.5893 -0.1886 -0.7856
vn -0.5916 -0.7731 -0.2288
vn -0.5898 0.0943 -0.8020
vn -0.5917 -0.8047 0.0473
vn -0.5891 0.3614 -0.7227
vn -0.5917 -0.8047 0.0474
vn -0.5904 -0.7398 0.3227
vn -0.5903 0.5825 -0.5588
vn -0.5903 0.5824 -0.5588
vn -0.5903 -0.5824 0.5589
vn -0.5902 0.7399 -0.3227
vn -0.5903 -0.5824 0.5588
vn -0.5904 0.7398 -0.3227
vn -0.5891 -0.3614 0.7227
vn -0.5917 0.8048 -0.0474
vn -0.5892 -0.3614 0.7227
vn -0.5917 0.8047 -0.0473
vn -0.5897 -0.0944 0.8021
vn -0.5916 0.7732 0.2286
vn -0.5898 -0.0943 0.8020
vn -0.5917 0.7730 0.2288
vn -0.5893 0.1886 0.7856
vn -0.5916 0.6469 0.4812
vn -0.5892 0.1886 0.7857
vn -0.5911 0.4492 0.6699
vn -1.0000 -0.0000 -0.0079
vn -0.9999 -0.0079 -0.0079
vn -1.0000 0.0000 0.0000
vn -0.9999 0.0000 -0.0158
vn -0.9999 0.0079 -0.0079
vn -1.0000 -0.0079 0.0000
vn -0.9999 0.0078 -0.0078
vn -0.9999 -0.0157 0.0000
vn -0.9999 -0.0079 0.0079
vn -0.9999 0.0157 -0.0000
vn -1.0000 0.0079 -0.0000
vn -0.9999 0.0079 0.0079
vn -0.9999 -0.0000 0.0158
vn -1.0000 0.0000 0.0079
usemtl M_BD1_Head_Body
s 1
f 1/1/1 2/2/1 3/3/1
f 4/4/1 1/1/1 3/3/1
f 2/2/1 5/5/1 3/3/1
f 6/6/1 4/4/1 3/3/1
f 5/5/1 7/7/1 3/3/1
f 8/8/1 6/6/1 3/3/1
f 7/7/1 9/9/1 3/3/1
f 10/10/1 8/8/1 3/3/1
f 9/9/1 11/11/1 3/3/1
f 12/12/1 10/10/1 3/3/1
f 11/11/1 13/13/1 3/3/1
f 14/14/1 12/12/1 3/3/1
f 13/13/1 15/15/1 3/3/1
f 16/16/1 14/14/1 3/3/1
f 15/15/1 17/17/1 3/3/1
f 18/18/1 16/16/1 3/3/1
f 17/17/1 19/19/1 3/3/1
f 19/19/1 18/18/1 3/3/1
f 20/20/2 21/21/3 22/22/4
f 23/23/5 22/22/4 21/21/3
f 22/22/4 23/23/5 24/24/6
f 25/25/7 24/24/6 23/23/5
f 26/26/8 24/24/6 25/25/7
f 24/24/6 26/26/8 27/27/9
f 27/27/9 26/26/8 28/28/10
f 29/29/11 28/28/10 26/26/8
f 28/28/10 29/29/11 30/30/12
f 31/31/13 30/30/12 29/29/11
f 30/30/12 31/31/13 32/32/14
f 33/33/15 32/32/14 31/31/13
f 32/32/14 33/33/15 34/34/16
f 35/35/17 34/34/16 33/33/15
f 36/36/18 34/34/16 35/35/17
f 34/34/16 36/36/18 37/37/19
f 38/38/20 37/37/19 36/36/18
f 37/37/19 38/38/20 39/39/21
f 40/40/22 39/39/21 38/38/20
f 39/39/21 40/40/22 41/41/23
f 42/42/24 41/41/23 40/40/22
f 41/41/23 42/42/24 43/43/25
f 44/44/26 43/43/25 42/42/24
f 43/43/25 44/44/26 45/45/27
f 44/44/26 46/46/28 45/45/27
f 46/46/28 44/44/26 47/47/29
f 48/48/30 46/46/28 47/47/29
f 46/46/28 48/48/30 49/49/31
f 49/49/31 4/4/32 46/46/28
f 4/4/32 49/49/31 1/1/33
f 6/6/34 46/46/28 4/4/32
f 49/49/31 2/2/35 1/1/33
f 46/46/28 6/6/34 45/50/27
f 45/50/27 6/6/34 43/51/25
f 8/8/36 43/51/25 6/6/34
f 41/52/23 43/51/25 8/8/36
f 10/10/37 41/52/23 8/8/36
f 12/12/38 41/52/23 10/10/37
f 41/52/23 12/12/38 39/53/21
f 14/14/39 39/53/21 12/12/38
f 39/53/21 14/14/39 37/54/19
f 16/16/40 37/54/19 14/14/39
f 37/54/19 16/16/40 34/55/16
f 32/56/14 34/55/16 16/16/40
f 18/18/41 32/56/14 16/16/40
f 30/57/12 32/56/14 18/18/41
f 19/19/42 30/57/12 18/18/41
f 17/17/43 30/57/12 19/19/42
f 30/57/12 17/17/43 28/58/10
f 15/15/44 28/58/10 17/17/43
f 28/58/10 15/15/44 27/59/9
f 27/59/9 15/15/44 24/60/6
f 13/13/45 24/60/6 15/15/44
f 22/61/4 24/60/6 13/13/45
f 11/11/46 22/61/4 13/13/45
f 9/9/47 22/61/4 11/11/46
f 22/61/4 9/9/47 20/62/2
f 7/7/48 20/62/2 9/9/47
f 20/62/2 7/7/48 50/63/49
f 5/5/50 50/63/49 7/7/48
f 21/64/3 20/62/2 51/65/51
f 50/63/49 51/65/51 20/62/2
f 52/66/52 51/65/51 50/63/49
f 50/63/49 5/5/50 52/66/52
f 51/65/51 52/66/52 53/67/53
f 52/66/52 54/68/54 53/67/53
f 5/5/50 55/69/55 52/66/52
f 54/68/54 52/66/52 55/69/55
f 55/69/55 5/5/50 2/2/35
f 55/69/55 48/48/30 54/68/54
f 2/2/35 49/49/31 55/69/55
f 48/48/30 55/69/55 49/49/31
f 56/70/56 48/48/56 57/71/57
f 58/72/58 48/48/56 56/70/56
f 48/48/56 47/73/59 57/71/57
f 48/48/56 58/72/58 54/68/60
f 57/71/57 47/73/59 59/74/61
f 60/75/62 54/68/60 58/72/58
f 47/73/59 44/76/61 59/74/61
f 54/68/60 60/75/62 53/67/62
f 42/77/63 59/74/61 44/76/61
f 60/75/62 51/65/64 53/67/62
f 59/74/61 42/77/63 61/78/65
f 51/65/64 60/75/62 62/79/64
f 40/80/66 61/78/65 42/77/63
f 62/79/64 21/64/67 51/65/64
f 61/78/65 40/80/66 63/81/66
f 21/64/67 62/79/64 64/82/68
f 40/80/66 65/83/69 63/81/66
f 64/82/68 23/84/70 21/64/67
f 65/83/69 40/80/66 38/85/71
f 23/84/70 64/82/68 66/86/72
f 38/85/71 67/87/73 65/83/69
f 68/88/74 23/84/70 66/86/72
f 67/87/73 38/85/71 36/89/75
f 23/84/70 68/88/74 25/90/76
f 36/89/75 69/91/77 67/87/73
f 70/92/78 25/90/76 68/88/74
f 69/91/77 36/89/75 35/93/79
f 25/90/76 70/92/78 26/94/80
f 33/95/81 69/91/77 35/93/79
f 70/92/78 29/96/82 26/94/80
f 69/91/77 33/95/81 71/97/83
f 29/96/82 70/92/78 72/98/82
f 31/99/84 71/97/83 33/95/81
f 72/98/82 31/99/84 29/96/82
f 71/97/83 31/99/84 73/100/84
f 31/99/84 72/98/82 73/100/84
f 58/72/85 56/70/86 74/101/87
f 60/75/88 58/72/85 74/101/87
f 56/70/86 57/71/86 74/101/87
f 62/79/89 60/75/88 74/101/87
f 57/71/86 59/74/90 74/101/87
f 64/82/91 62/79/89 74/101/87
f 59/74/90 61/78/92 74/101/87
f 66/86/89 64/82/91 74/101/87
f 61/78/92 63/81/93 74/101/87
f 68/88/94 66/86/89 74/101/87
f 63/81/93 65/83/93 74/101/87
f 70/92/95 68/88/94 74/101/87
f 65/83/93 67/87/93 74/101/87
f 72/98/96 70/92/95 74/101/87
f 67/87/93 69/91/97 74/101/87
f 73/100/96 72/98/96 74/101/87
f 69/91/97 71/97/98 74/101/87
f 71/97/98 73/100/96 74/101/87
