# Blender v2.78 (sub 0) OBJ File: ''
# www.blender.org
mtllib scomp_link_outer.mtl
o BuddyDroid_01_rig.072_BuddyDroid_01_rig.073
v -4.705485 14.042395 -5.971938
v -4.742816 8.509141 -2.546383
v -4.742816 13.925311 -6.148411
v -4.705485 8.626324 -2.370009
v -4.742816 14.159378 -5.795465
v -4.742816 8.743607 -2.193536
v -4.850217 14.262287 -5.640352
v -4.850217 8.846616 -2.038324
v -5.014913 8.923174 -1.923237
v -5.014913 14.338546 -5.525165
v -5.216838 8.963899 -1.861950
v -5.216838 14.379170 -5.463879
v -5.431740 14.379170 -5.463879
v -5.431740 8.963899 -1.861950
v -5.633667 14.338546 -5.525165
v -5.633667 8.923174 -1.923237
v -5.798262 14.262287 -5.640352
v -5.798262 8.846616 -2.038324
v -5.905763 8.743607 -2.193536
v -5.905763 14.159378 -5.795465
v -5.943093 8.626324 -2.370009
v -5.943093 14.042395 -5.971938
v -5.905763 8.509141 -2.546383
v -5.905763 13.925311 -6.148411
v -5.798262 8.406033 -2.701595
v -5.798262 13.822402 -6.303524
v -5.633667 13.746043 -6.418710
v -5.633667 8.329473 -2.816782
v -5.431740 13.705318 -6.479997
v -5.431740 8.288750 -2.878068
v -5.216838 8.288750 -2.878068
v -5.216838 13.705318 -6.479997
v -5.014913 8.329473 -2.816782
v -5.014913 13.746043 -6.418710
v -4.850217 8.405932 -2.701595
v -4.850217 13.822402 -6.303524
v -4.884554 14.061858 -5.984914
v -4.911005 13.978712 -6.110281
v -4.911005 14.145004 -5.859546
v -4.987363 14.218169 -5.749250
v -5.104347 14.272469 -5.667402
v -5.247881 14.301315 -5.623882
v -5.400598 14.301315 -5.623882
v -5.544132 14.272469 -5.667402
v -5.661116 14.218169 -5.749250
v -5.737474 14.145004 -5.859546
v -5.764025 14.061858 -5.984914
v -5.737474 13.978712 -6.110281
v -5.661116 13.905648 -6.220577
v -5.544132 13.851349 -6.302425
v -5.400598 13.822402 -6.345945
v -5.247881 13.822402 -6.345945
v -5.104347 13.851349 -6.302425
v -4.987363 13.905648 -6.220577
v -4.884554 15.357160 -6.844821
v -4.911005 15.274114 -6.970189
v -4.911005 15.440306 -6.719453
v -4.987363 15.513371 -6.609158
v -5.104347 15.567670 -6.527309
v -5.247881 15.596517 -6.483790
v -5.400598 15.596517 -6.483790
v -5.544132 15.567670 -6.527309
v -5.661116 15.513371 -6.609158
v -5.737474 15.440306 -6.719453
v -5.764025 15.357160 -6.844821
v -5.737474 15.274114 -6.970189
v -5.661116 15.200949 -7.080485
v -5.544132 15.146749 -7.162333
v -5.400598 15.117803 -7.205853
v -5.247881 15.117803 -7.205853
v -5.104347 15.146749 -7.162333
v -4.987363 15.200949 -7.080485
v -5.009822 8.616642 -2.363521
v -5.028787 8.676132 -2.273787
v -5.028787 8.557053 -2.453155
v -5.083385 8.728535 -2.195033
v -5.083385 8.504649 -2.532009
v -5.167031 8.767463 -2.136442
v -5.167031 8.465721 -2.590501
v -5.269640 8.788124 -2.105299
v -5.269640 8.445060 -2.621643
v -5.378839 8.788124 -2.105299
v -5.378839 8.445060 -2.621643
v -5.481449 8.767463 -2.136442
v -5.481449 8.465721 -2.590501
v -5.565094 8.728535 -2.195033
v -5.565094 8.504649 -2.532009
v -5.619692 8.676132 -2.273787
v -5.619692 8.557053 -2.453155
v -5.638657 8.616642 -2.363521
v -5.076499 8.620336 -2.257518
v -5.060628 8.570328 -2.332679
v -5.009822 8.570328 -2.332679
v -5.076499 8.520420 -2.407839
v -5.028787 8.629917 -2.243044
v -5.028787 8.510738 -2.422312
v -5.122313 8.664254 -2.191340
v -5.122313 8.476401 -2.474017
v -5.083385 8.682321 -2.164191
v -5.083385 8.458335 -2.501166
v -5.192483 8.696794 -2.142331
v -5.192483 8.443862 -2.523026
v -5.167031 8.721148 -2.105699
v -5.167031 8.419507 -2.559658
v -5.278524 8.714162 -2.116179
v -5.278524 8.426495 -2.549177
v -5.269640 8.741810 -2.074557
v -5.269640 8.398746 -2.590801
v -5.378839 8.741810 -2.074557
v -5.378839 8.398746 -2.590801
v -5.370055 8.714162 -2.116179
v -5.370055 8.426495 -2.549177
v -5.481449 8.721148 -2.105699
v -5.481449 8.419507 -2.559658
v -5.456095 8.696794 -2.142331
v -5.456095 8.443862 -2.523026
v -5.565094 8.682321 -2.164191
v -5.565094 8.458335 -2.501166
v -5.526266 8.664254 -2.191340
v -5.526266 8.476401 -2.474017
v -5.619692 8.629917 -2.243044
v -5.619692 8.510738 -2.422312
v -5.572081 8.620336 -2.257518
v -5.572081 8.520420 -2.407839
v -5.638657 8.570328 -2.332679
v -5.587951 8.570328 -2.332679
vt 0.7134 0.0435
vt 0.5869 0.0415
vt 0.7129 0.0396
vt 0.5879 0.0449
vt 0.7134 0.0474
vt 0.5884 0.0483
vt 0.7139 0.0513
vt 0.5884 0.0518
vt 0.5884 0.0547
vt 0.7139 0.0547
vt 0.5889 0.0581
vt 0.7144 0.0576
vt 0.7144 0.0610
vt 0.5889 0.0610
vt 0.7144 0.0640
vt 0.5889 0.0645
vt 0.7144 0.0674
vt 0.5889 0.0674
vt 0.5889 0.0703
vt 0.7144 0.0703
vt 0.5889 0.0737
vt 0.7144 0.0737
vt 0.5889 0.0767
vt 0.7144 0.0767
vt 0.5889 0.0801
vt 0.7144 0.0801
vt 0.7139 0.0830
vt 0.5884 0.0830
vt 0.7139 0.0864
vt 0.5884 0.0864
vt 0.5884 0.0898
vt 0.7139 0.0898
vt 0.5879 0.0933
vt 0.7134 0.0933
vt 0.5874 0.0967
vt 0.7134 0.0967
vt 0.7134 0.1006
vt 0.5869 0.1001
vt 0.7173 0.0444
vt 0.7144 0.0396
vt 0.7173 0.0415
vt 0.7173 0.0474
vt 0.7173 0.0508
vt 0.7173 0.0542
vt 0.7173 0.0576
vt 0.7178 0.0610
vt 0.7178 0.0640
vt 0.7178 0.0674
vt 0.7178 0.0703
vt 0.7178 0.0737
vt 0.7178 0.0771
vt 0.7178 0.0801
vt 0.7173 0.0835
vt 0.7173 0.0869
vt 0.7173 0.0898
vt 0.7168 0.0933
vt 0.7168 0.0967
vt 0.7168 0.0996
vt 0.7471 0.0454
vt 0.7471 0.0425
vt 0.7471 0.0483
vt 0.7471 0.0513
vt 0.7476 0.0542
vt 0.7476 0.0576
vt 0.7476 0.0610
vt 0.7476 0.0640
vt 0.7476 0.0674
vt 0.7476 0.0708
vt 0.7476 0.0737
vt 0.7476 0.0771
vt 0.7476 0.0801
vt 0.7476 0.0835
vt 0.7471 0.0869
vt 0.7471 0.0898
vt 0.7471 0.0933
vt 0.7466 0.0962
vt 0.7466 0.0991
vt 0.0163 0.2305
vt 0.0126 0.2231
vt 0.0192 0.2295
vt 0.0139 0.2324
vt 0.0182 0.2212
vt 0.0078 0.2266
vt 0.0222 0.2300
vt 0.0122 0.2349
vt 0.0242 0.2217
vt 0.0045 0.2314
vt 0.0250 0.2310
vt 0.0115 0.2378
vt 0.0296 0.2241
vt 0.0031 0.2373
vt 0.0272 0.2334
vt 0.0119 0.2407
vt 0.0339 0.2280
vt 0.0038 0.2432
vt 0.0285 0.2358
vt 0.0132 0.2437
vt 0.0366 0.2334
vt 0.0065 0.2485
vt 0.0373 0.2393
vt 0.0108 0.2524
vt 0.0289 0.2388
vt 0.0154 0.2456
vt 0.0359 0.2451
vt 0.0162 0.2549
vt 0.0282 0.2417
vt 0.0182 0.2471
vt 0.0327 0.2500
vt 0.0222 0.2554
vt 0.0265 0.2441
vt 0.0212 0.2471
vt 0.0279 0.2539
vt 0.0241 0.2461
vt 0.0194 0.2310
vt 0.0169 0.2319
vt 0.0163 0.2305
vt 0.0149 0.2334
vt 0.0192 0.2295
vt 0.0139 0.2324
vt 0.0219 0.2314
vt 0.0135 0.2354
vt 0.0222 0.2300
vt 0.0122 0.2349
vt 0.0242 0.2324
vt 0.0129 0.2378
vt 0.0250 0.2310
vt 0.0115 0.2378
vt 0.0261 0.2339
vt 0.0132 0.2402
vt 0.0272 0.2334
vt 0.0119 0.2407
vt 0.0285 0.2358
vt 0.0132 0.2437
vt 0.0272 0.2363
vt 0.0144 0.2427
vt 0.0289 0.2388
vt 0.0154 0.2456
vt 0.0275 0.2388
vt 0.0162 0.2446
vt 0.0282 0.2417
vt 0.0182 0.2471
vt 0.0269 0.2412
vt 0.0185 0.2456
vt 0.0265 0.2441
vt 0.0212 0.2471
vt 0.0255 0.2432
vt 0.0210 0.2456
vt 0.0241 0.2461
vt 0.0235 0.2451
vn 1.0000 -0.0001 -0.0001
vn 0.9399 -0.1892 -0.2844
vn 0.9398 -0.1895 -0.2844
vn 1.0000 -0.0000 -0.0000
vn 0.9398 0.1893 0.2846
vn 0.9398 0.1893 0.2845
vn 0.7655 0.3551 0.5366
vn 0.5015 0.4781 0.7210
vn 0.1736 0.5445 0.8206
vn -0.1736 0.5445 0.8206
vn -0.1736 0.5444 0.8207
vn -0.5015 0.4781 0.7210
vn -0.5015 0.4782 0.7210
vn -0.7655 0.3551 0.5366
vn -0.9397 0.1894 0.2847
vn -0.9398 0.1895 0.2844
vn -1.0000 -0.0000 -0.0000
vn -1.0000 -0.0001 -0.0001
vn -0.9398 -0.1893 -0.2846
vn -0.9396 -0.1895 -0.2849
vn -0.7655 -0.3551 -0.5366
vn -0.5015 -0.4782 -0.7210
vn -0.1736 -0.5445 -0.8206
vn -0.1736 -0.5444 -0.8206
vn 0.1736 -0.5445 -0.8206
vn 0.5014 -0.4782 -0.7210
vn 0.5015 -0.4781 -0.7210
vn 0.7655 -0.3551 -0.5366
vn 0.1335 0.8246 -0.5497
vn 0.1259 0.8030 -0.5826
vn 0.1259 0.8500 -0.5116
vn 0.1021 0.8718 -0.4791
vn 0.1020 0.8718 -0.4791
vn 0.0629 0.8879 -0.4557
vn 0.0238 0.8973 -0.4408
vn 0.0237 0.8973 -0.4408
vn -0.0236 0.8973 -0.4408
vn -0.0629 0.8879 -0.4557
vn -0.1021 0.8718 -0.4791
vn -0.1257 0.8500 -0.5115
vn -0.1259 0.8500 -0.5116
vn -0.1335 0.8246 -0.5497
vn -0.1259 0.8030 -0.5826
vn -0.1260 0.8030 -0.5826
vn -0.1026 0.7813 -0.6156
vn -0.0629 0.7622 -0.6443
vn -0.0236 0.7563 -0.6538
vn -0.0237 0.7563 -0.6538
vn 0.0237 0.7563 -0.6538
vn 0.0236 0.7563 -0.6538
vn 0.0629 0.7622 -0.6443
vn 0.1026 0.7813 -0.6156
vn 0.9398 -0.1894 -0.2844
vn 0.9398 0.1894 0.2844
vn 0.7654 0.3551 0.5367
vn 0.1735 0.5447 0.8205
vn 0.1736 0.5447 0.8205
vn -0.1735 0.5447 0.8205
vn -0.1736 0.5447 0.8205
vn -0.7655 0.3551 0.5365
vn -0.9398 0.1894 0.2844
vn -0.9398 0.1894 0.2845
vn -0.9398 -0.1895 -0.2844
vn -0.9398 -0.1895 -0.2843
vn -0.7654 -0.3551 -0.5367
vn -0.5015 -0.4781 -0.7210
vn -0.5014 -0.4781 -0.7211
vn -0.1737 -0.5446 -0.8205
vn 0.1737 -0.5446 -0.8205
vn 0.5014 -0.4781 -0.7211
vn 0.0393 -0.8338 0.5506
vn 0.0393 -0.8241 0.5651
vn 0.0393 -0.8398 0.5415
vn 0.0392 -0.8398 0.5415
vn 0.0313 -0.8181 0.5742
vn 0.0315 -0.8436 0.5361
vn 0.0315 -0.8181 0.5742
vn 0.0158 -0.8120 0.5834
vn 0.0157 -0.8496 0.5271
vn 0.0157 -0.8497 0.5271
vn 0.0079 -0.8121 0.5834
vn 0.0080 -0.8533 0.5214
vn 0.0078 -0.8533 0.5214
vn -0.0079 -0.8122 0.5834
vn -0.0078 -0.8533 0.5214
vn -0.0079 -0.8121 0.5834
vn -0.0079 -0.8533 0.5214
vn -0.0158 -0.8120 0.5834
vn -0.0158 -0.8497 0.5271
vn -0.0157 -0.8497 0.5271
vn -0.0315 -0.8181 0.5742
vn -0.0316 -0.8436 0.5361
vn -0.0315 -0.8436 0.5361
vn -0.0393 -0.8241 0.5651
vn -0.0392 -0.8398 0.5415
vn -0.0393 -0.8398 0.5415
vn -0.0393 -0.8338 0.5506
vn -0.0393 -0.8339 0.5506
vn 0.0000 -0.8345 0.5510
vn 0.0000 -0.8345 0.5511
vn -0.0000 -0.8344 0.5511
vn 0.0000 -0.8344 0.5512
vn 0.9398 -0.1895 -0.2845
vn 0.7655 -0.3551 -0.5365
vn 0.5015 -0.4782 -0.7210
vn 1.0000 -0.0001 -0.0002
vn 1.0000 0.0000 0.0001
vn 0.9397 0.1894 0.2846
vn 0.5016 0.4781 0.7210
vn 0.1738 0.5446 0.8205
vn -0.9398 -0.1895 -0.2845
vn -0.9398 -0.1894 -0.2844
vn -0.1738 0.5446 0.8205
vn -1.0000 -0.0001 -0.0002
vn -1.0000 0.0000 0.0001
vn -0.9398 0.1893 0.2846
vn -0.9397 0.1894 0.2846
vn -0.7654 0.3551 0.5367
usemtl M_BD1_Head_Body
s 1
f 1/1/1 2/2/2 3/3/3
f 2/2/2 1/1/1 4/4/4
f 5/5/5 4/4/4 1/1/1
f 4/4/4 5/5/5 6/6/6
f 7/7/7 6/6/6 5/5/5
f 6/6/6 7/7/7 8/8/7
f 7/7/7 9/9/8 8/8/7
f 10/10/8 9/9/8 7/7/7
f 10/10/8 11/11/9 9/9/8
f 12/12/9 11/11/9 10/10/8
f 13/13/10 11/11/9 12/12/9
f 11/11/9 13/13/10 14/14/11
f 15/15/12 14/14/11 13/13/10
f 14/14/11 15/15/12 16/16/13
f 17/17/14 16/16/13 15/15/12
f 16/16/13 17/17/14 18/18/14
f 17/17/14 19/19/15 18/18/14
f 20/20/16 19/19/15 17/17/14
f 20/20/16 21/21/17 19/19/15
f 22/22/18 21/21/17 20/20/16
f 22/22/18 23/23/19 21/21/17
f 24/24/20 23/23/19 22/22/18
f 24/24/20 25/25/21 23/23/19
f 26/26/21 25/25/21 24/24/20
f 27/27/22 25/25/21 26/26/21
f 25/25/21 27/27/22 28/28/22
f 29/29/23 28/28/22 27/27/22
f 28/28/22 29/29/23 30/30/24
f 29/29/23 31/31/25 30/30/24
f 32/32/25 31/31/25 29/29/23
f 32/32/25 33/33/26 31/31/25
f 34/34/27 33/33/26 32/32/25
f 34/34/27 35/35/28 33/33/26
f 36/36/28 35/35/28 34/34/27
f 3/37/3 35/35/28 36/36/28
f 35/35/28 3/37/3 2/38/2
f 37/39/29 3/40/30 38/41/30
f 3/40/30 37/39/29 1/1/29
f 39/42/31 1/1/29 37/39/29
f 1/1/29 39/42/31 5/5/31
f 40/43/32 5/5/31 39/42/31
f 5/5/31 40/43/32 7/7/33
f 41/44/34 7/7/33 40/43/32
f 7/7/33 41/44/34 10/10/34
f 42/45/35 10/10/34 41/44/34
f 10/10/34 42/45/35 12/12/36
f 13/13/37 12/12/36 42/45/35
f 13/13/37 42/45/35 43/46/37
f 43/46/37 15/15/38 13/13/37
f 15/15/38 43/46/37 44/47/38
f 44/47/38 17/17/39 15/15/38
f 17/17/39 44/47/38 45/48/39
f 45/48/39 20/20/40 17/17/39
f 20/20/40 45/48/39 46/49/41
f 22/22/42 20/20/40 46/49/41
f 22/22/42 46/49/41 47/50/42
f 24/24/43 22/22/42 47/50/42
f 48/51/44 24/24/43 47/50/42
f 49/52/45 24/24/43 48/51/44
f 24/24/43 49/52/45 26/26/45
f 50/53/46 26/26/45 49/52/45
f 26/26/45 50/53/46 27/27/46
f 51/54/47 27/27/46 50/53/46
f 27/27/46 51/54/47 29/29/48
f 29/29/48 51/54/47 32/32/49
f 32/32/49 51/54/47 52/55/50
f 34/34/51 32/32/49 52/55/50
f 34/34/51 52/55/50 53/56/51
f 36/36/52 34/34/51 53/56/51
f 54/57/52 36/36/52 53/56/51
f 3/37/30 36/36/52 54/57/52
f 3/37/30 54/57/52 38/58/30
f 55/59/1 38/41/53 56/60/53
f 38/41/53 55/59/1 37/39/4
f 57/61/6 37/39/4 55/59/1
f 37/39/4 57/61/6 39/42/54
f 58/62/7 39/42/54 57/61/6
f 39/42/54 58/62/7 40/43/55
f 58/62/7 41/44/8 40/43/55
f 59/63/8 41/44/8 58/62/7
f 59/63/8 42/45/56 41/44/8
f 60/64/57 42/45/56 59/63/8
f 60/64/57 43/46/58 42/45/56
f 61/65/59 43/46/58 60/64/57
f 62/66/12 43/46/58 61/65/59
f 43/46/58 62/66/12 44/47/12
f 63/67/14 44/47/12 62/66/12
f 44/47/12 63/67/14 45/48/60
f 63/67/14 46/49/61 45/48/60
f 64/68/62 46/49/61 63/67/14
f 64/68/62 47/50/17 46/49/61
f 65/69/18 47/50/17 64/68/62
f 65/69/18 48/51/63 47/50/17
f 66/70/64 48/51/63 65/69/18
f 66/70/64 49/52/21 48/51/63
f 67/71/65 49/52/21 66/70/64
f 68/72/66 49/52/21 67/71/65
f 49/52/21 68/72/66 50/53/67
f 69/73/68 50/53/67 68/72/66
f 50/53/67 69/73/68 51/54/68
f 70/74/69 51/54/68 69/73/68
f 51/54/68 70/74/69 52/55/69
f 70/74/69 53/56/70 52/55/69
f 71/75/27 53/56/70 70/74/69
f 71/75/27 54/57/28 53/56/70
f 72/76/28 54/57/28 71/75/27
f 56/77/53 54/57/28 72/76/28
f 54/57/28 56/77/53 38/58/53
f 73/78/71 4/79/71 74/80/72
f 75/81/73 4/79/71 73/78/71
f 6/82/72 74/80/72 4/79/71
f 4/79/71 75/81/73 2/83/74
f 74/80/72 6/82/72 76/84/75
f 77/85/76 2/83/74 75/81/73
f 76/84/75 6/82/72 8/86/77
f 2/83/74 77/85/76 35/87/76
f 8/86/77 78/88/78 76/84/75
f 79/89/79 35/87/76 77/85/76
f 78/88/78 8/86/77 9/90/78
f 35/87/76 79/89/79 33/91/80
f 9/90/78 80/92/81 78/88/78
f 81/93/82 33/91/80 79/89/79
f 80/92/81 9/90/78 11/94/81
f 33/91/80 81/93/82 31/95/83
f 11/94/81 82/96/84 80/92/81
f 83/97/85 31/95/83 81/93/82
f 14/98/86 82/96/84 11/94/81
f 31/95/83 83/97/85 30/99/87
f 16/100/88 82/96/84 14/98/86
f 83/97/85 28/101/89 30/99/87
f 82/96/84 16/100/88 84/102/88
f 85/103/90 28/101/89 83/97/85
f 18/104/91 84/102/88 16/100/88
f 28/101/89 85/103/90 25/105/92
f 84/102/88 18/104/91 86/106/91
f 85/103/90 87/107/93 25/105/92
f 19/108/94 86/106/91 18/104/91
f 25/105/92 87/107/93 23/109/95
f 86/106/91 19/108/94 88/110/94
f 23/109/95 87/107/93 89/111/96
f 21/112/97 88/110/94 19/108/94
f 89/111/96 21/112/97 23/109/95
f 88/110/94 21/112/97 90/113/98
f 21/112/97 89/111/96 90/113/98
f 91/114/99 92/115/100 93/116/100
f 94/117/101 93/116/100 92/115/100
f 91/114/99 93/116/100 95/118/99
f 93/116/100 94/117/101 96/119/101
f 97/120/102 91/114/99 95/118/99
f 98/121/100 96/119/101 94/117/101
f 97/120/102 95/118/99 99/122/101
f 96/119/101 98/121/100 100/123/101
f 99/122/101 101/124/101 97/120/102
f 102/125/101 100/123/101 98/121/100
f 101/124/101 99/122/101 103/126/100
f 100/123/101 102/125/101 104/127/101
f 103/126/100 105/128/101 101/124/101
f 106/129/100 104/127/101 102/125/101
f 103/126/100 107/130/100 105/128/101
f 104/127/101 106/129/100 108/131/100
f 109/132/100 105/128/101 107/130/100
f 106/129/100 110/133/101 108/131/100
f 105/128/101 109/132/100 111/134/101
f 106/129/100 112/135/101 110/133/101
f 113/136/99 111/134/101 109/132/100
f 112/135/101 114/137/100 110/133/101
f 111/134/101 113/136/99 115/138/100
f 112/135/101 116/139/100 114/137/100
f 117/140/100 115/138/100 113/136/99
f 118/141/101 114/137/100 116/139/100
f 115/138/100 117/140/100 119/142/100
f 116/139/100 120/143/101 118/141/101
f 121/144/101 119/142/100 117/140/100
f 122/145/101 118/141/101 120/143/101
f 119/142/100 121/144/101 123/146/101
f 122/145/101 120/143/101 124/147/101
f 125/148/100 123/146/101 121/144/101
f 125/148/100 122/145/101 124/147/101
f 123/146/101 125/148/100 126/149/100
f 125/148/100 124/147/101 126/149/100
f 75/81/103 100/123/28 77/85/104
f 79/89/105 77/85/104 100/123/28
f 100/123/28 75/81/103 96/119/53
f 79/89/105 100/123/28 104/127/105
f 73/78/106 96/119/53 75/81/103
f 81/93/25 79/89/105 104/127/105
f 96/119/53 73/78/106 93/116/107
f 81/93/25 104/127/105 108/131/25
f 74/80/5 93/116/107 73/78/106
f 83/97/23 81/93/25 108/131/25
f 93/116/107 74/80/5 95/118/108
f 83/97/23 108/131/25 110/133/23
f 76/84/7 95/118/108 74/80/5
f 114/137/22 83/97/23 110/133/23
f 95/118/108 76/84/7 99/122/7
f 83/97/23 114/137/22 85/103/66
f 76/84/7 103/126/109 99/122/7
f 118/141/65 85/103/66 114/137/22
f 76/84/7 78/88/109 103/126/109
f 85/103/66 118/141/65 87/107/21
f 78/88/109 107/130/110 103/126/109
f 89/111/111 87/107/21 118/141/65
f 78/88/109 80/92/110 107/130/110
f 89/111/111 118/141/65 122/145/112
f 80/92/110 109/132/113 107/130/110
f 90/113/114 89/111/111 122/145/112
f 80/92/110 82/96/113 109/132/113
f 90/113/114 122/145/112 125/148/115
f 84/102/13 109/132/113 82/96/113
f 88/110/116 90/113/114 125/148/115
f 109/132/113 84/102/13 113/136/12
f 88/110/116 125/148/115 121/144/117
f 86/106/118 113/136/12 84/102/13
f 86/106/118 88/110/116 121/144/117
f 113/136/12 86/106/118 117/140/14
f 86/106/118 121/144/117 117/140/14
